M48
;DRILL file {KiCad (5.0.2)-1} date 7/27/2020 10:04:10 PM
;FORMAT={-:-/ absolute / inch / decimal}
FMAT,2
INCH,TZ
T1C0.0315
T2C0.0354
T3C0.0394
T4C0.0433
T5C0.0630
T6C0.3750
T7C0.0787
T8C0.1378
%
G90
G05
T1
X7.5984Y-4.0551
X5.2756Y-3.9567
X4.0354Y-3.9567
X4.0354Y-4.1535
X6.2795Y-3.3661
X6.2795Y-3.7661
X6.4764Y-3.3661
X6.4764Y-3.7661
X6.8504Y-4.252
X7.2504Y-4.252
X6.1614Y-3.9567
X6.1614Y-4.1535
X4.9213Y-3.9567
X4.9213Y-4.1535
X6.5748Y-3.9567
X6.5748Y-4.1535
X7.4016Y-4.0551
X5.2756Y-4.1535
X6.6732Y-3.3661
X6.6732Y-3.7661
X5.4858Y-4.252
X5.8858Y-4.252
X4.3047Y-4.252
X4.7047Y-4.252
T2
X4.0354Y-4.3898
X4.0354Y-4.4898
X7.5Y-4.3882
X7.5Y-4.4882
X5.2362Y-4.3898
X5.2362Y-4.4898
T3
X6.5748Y-2.4803
X6.6732Y-2.4803
X6.7717Y-2.4803
X5.8071Y-4.5866
X5.8071Y-4.6866
X4.5Y-5.4
X4.5Y-5.5
X4.5Y-5.6
X4.5Y-5.7
X4.7Y-5.5
X4.8Y-5.5
X5.7Y-5.4
X5.7Y-5.5
X5.8Y-5.4
X5.8Y-5.5
X5.8Y-5.6
X5.9Y-5.4
X5.9Y-5.5
X5.9Y-5.6
X6.Y-5.4
X6.Y-5.5
X6.1Y-5.7
X6.2Y-5.7
X6.5Y-5.7
X6.6Y-5.7
X6.7Y-5.4
X6.7Y-5.5
X7.Y-5.4
X7.Y-5.5
X7.Y-5.6
X7.Y-5.7
X7.0472Y-4.5866
X7.0472Y-4.6866
X4.626Y-4.5866
X4.626Y-4.6866
T4
X5.5906Y-3.9567
X5.6906Y-3.9567
X5.7906Y-3.9567
X4.4094Y-3.9567
X4.5094Y-3.9567
X4.6094Y-3.9567
X6.9488Y-3.9567
X7.0488Y-3.9567
X7.1488Y-3.9567
T5
X6.3976Y-5.0197
X4.3307Y-5.0197
X6.1024Y-5.0197
X5.5118Y-5.0197
X5.2362Y-5.0197
X4.9213Y-5.0197
X7.2835Y-5.0197
X6.6929Y-5.0197
X6.9882Y-5.0197
X4.626Y-5.0197
X5.8071Y-5.0197
T6
X4.5276Y-2.5591
X5.7075Y-2.5591
T7
X6.5Y-2.7559
X6.8465Y-2.7559
T8
X5.6906Y-3.3008
X4.5094Y-3.3008
X7.0488Y-3.3008
T0
M30
