%TF.GenerationSoftware,KiCad,Pcbnew,(5.0.2)-1*%
%TF.CreationDate,2020-07-21T09:41:45-06:00*%
%TF.ProjectId,power_interface,706f7765-725f-4696-9e74-657266616365,rev?*%
%TF.SameCoordinates,Original*%
%TF.FileFunction,Soldermask,Top*%
%TF.FilePolarity,Negative*%
%FSLAX46Y46*%
G04 Gerber Fmt 4.6, Leading zero omitted, Abs format (unit mm)*
G04 Created by KiCad (PCBNEW (5.0.2)-1) date 7/21/2020 9:41:45 AM*
%MOMM*%
%LPD*%
G01*
G04 APERTURE LIST*
%ADD10C,0.020000*%
%ADD11C,0.200000*%
%ADD12C,0.100000*%
G04 APERTURE END LIST*
D10*
X193000028Y-59000000D02*
G75*
G03X193000028Y-59000000I-3500014J0D01*
G01*
X106500014Y-59000000D02*
G75*
G03X106500014Y-59000000I-3500014J0D01*
G01*
D11*
X196000000Y-53000000D02*
X196000000Y-147000000D01*
X97000000Y-53000000D02*
X196000000Y-53000000D01*
X97000000Y-147000000D02*
X97000000Y-53000000D01*
X196000000Y-147000000D02*
X97000000Y-147000000D01*
D10*
X112270014Y-136760000D02*
G75*
G03X112270014Y-136760000I-3500014J0D01*
G01*
X190570014Y-136760000D02*
G75*
G03X190570014Y-136760000I-3500014J0D01*
G01*
D12*
G36*
X177910443Y-143885519D02*
X177976627Y-143892037D01*
X178089853Y-143926384D01*
X178146467Y-143943557D01*
X178285087Y-144017652D01*
X178302991Y-144027222D01*
X178338729Y-144056552D01*
X178440186Y-144139814D01*
X178523448Y-144241271D01*
X178552778Y-144277009D01*
X178552779Y-144277011D01*
X178636443Y-144433533D01*
X178636443Y-144433534D01*
X178687963Y-144603373D01*
X178705359Y-144780000D01*
X178687963Y-144956627D01*
X178653616Y-145069853D01*
X178636443Y-145126467D01*
X178562348Y-145265087D01*
X178552778Y-145282991D01*
X178523448Y-145318729D01*
X178440186Y-145420186D01*
X178338729Y-145503448D01*
X178302991Y-145532778D01*
X178302989Y-145532779D01*
X178146467Y-145616443D01*
X178089853Y-145633616D01*
X177976627Y-145667963D01*
X177910443Y-145674481D01*
X177844260Y-145681000D01*
X177755740Y-145681000D01*
X177689557Y-145674481D01*
X177623373Y-145667963D01*
X177510147Y-145633616D01*
X177453533Y-145616443D01*
X177297011Y-145532779D01*
X177297009Y-145532778D01*
X177261271Y-145503448D01*
X177159814Y-145420186D01*
X177076552Y-145318729D01*
X177047222Y-145282991D01*
X177037652Y-145265087D01*
X176963557Y-145126467D01*
X176946384Y-145069853D01*
X176912037Y-144956627D01*
X176894641Y-144780000D01*
X176912037Y-144603373D01*
X176963557Y-144433534D01*
X176963557Y-144433533D01*
X177047221Y-144277011D01*
X177047222Y-144277009D01*
X177076552Y-144241271D01*
X177159814Y-144139814D01*
X177261271Y-144056552D01*
X177297009Y-144027222D01*
X177314913Y-144017652D01*
X177453533Y-143943557D01*
X177510147Y-143926384D01*
X177623373Y-143892037D01*
X177689557Y-143885519D01*
X177755740Y-143879000D01*
X177844260Y-143879000D01*
X177910443Y-143885519D01*
X177910443Y-143885519D01*
G37*
G36*
X167750443Y-143885519D02*
X167816627Y-143892037D01*
X167929853Y-143926384D01*
X167986467Y-143943557D01*
X168125087Y-144017652D01*
X168142991Y-144027222D01*
X168178729Y-144056552D01*
X168280186Y-144139814D01*
X168363448Y-144241271D01*
X168392778Y-144277009D01*
X168392779Y-144277011D01*
X168476443Y-144433533D01*
X168476443Y-144433534D01*
X168527963Y-144603373D01*
X168545359Y-144780000D01*
X168527963Y-144956627D01*
X168493616Y-145069853D01*
X168476443Y-145126467D01*
X168402348Y-145265087D01*
X168392778Y-145282991D01*
X168363448Y-145318729D01*
X168280186Y-145420186D01*
X168178729Y-145503448D01*
X168142991Y-145532778D01*
X168142989Y-145532779D01*
X167986467Y-145616443D01*
X167929853Y-145633616D01*
X167816627Y-145667963D01*
X167750443Y-145674481D01*
X167684260Y-145681000D01*
X167595740Y-145681000D01*
X167529557Y-145674481D01*
X167463373Y-145667963D01*
X167350147Y-145633616D01*
X167293533Y-145616443D01*
X167137011Y-145532779D01*
X167137009Y-145532778D01*
X167101271Y-145503448D01*
X166999814Y-145420186D01*
X166916552Y-145318729D01*
X166887222Y-145282991D01*
X166877652Y-145265087D01*
X166803557Y-145126467D01*
X166786384Y-145069853D01*
X166752037Y-144956627D01*
X166734641Y-144780000D01*
X166752037Y-144603373D01*
X166803557Y-144433534D01*
X166803557Y-144433533D01*
X166887221Y-144277011D01*
X166887222Y-144277009D01*
X166916552Y-144241271D01*
X166999814Y-144139814D01*
X167101271Y-144056552D01*
X167137009Y-144027222D01*
X167154913Y-144017652D01*
X167293533Y-143943557D01*
X167350147Y-143926384D01*
X167463373Y-143892037D01*
X167529557Y-143885519D01*
X167595740Y-143879000D01*
X167684260Y-143879000D01*
X167750443Y-143885519D01*
X167750443Y-143885519D01*
G37*
G36*
X114410443Y-143885519D02*
X114476627Y-143892037D01*
X114589853Y-143926384D01*
X114646467Y-143943557D01*
X114785087Y-144017652D01*
X114802991Y-144027222D01*
X114838729Y-144056552D01*
X114940186Y-144139814D01*
X115023448Y-144241271D01*
X115052778Y-144277009D01*
X115052779Y-144277011D01*
X115136443Y-144433533D01*
X115136443Y-144433534D01*
X115187963Y-144603373D01*
X115205359Y-144780000D01*
X115187963Y-144956627D01*
X115153616Y-145069853D01*
X115136443Y-145126467D01*
X115062348Y-145265087D01*
X115052778Y-145282991D01*
X115023448Y-145318729D01*
X114940186Y-145420186D01*
X114838729Y-145503448D01*
X114802991Y-145532778D01*
X114802989Y-145532779D01*
X114646467Y-145616443D01*
X114589853Y-145633616D01*
X114476627Y-145667963D01*
X114410443Y-145674481D01*
X114344260Y-145681000D01*
X114255740Y-145681000D01*
X114189557Y-145674481D01*
X114123373Y-145667963D01*
X114010147Y-145633616D01*
X113953533Y-145616443D01*
X113797011Y-145532779D01*
X113797009Y-145532778D01*
X113761271Y-145503448D01*
X113659814Y-145420186D01*
X113576552Y-145318729D01*
X113547222Y-145282991D01*
X113537652Y-145265087D01*
X113463557Y-145126467D01*
X113446384Y-145069853D01*
X113412037Y-144956627D01*
X113394641Y-144780000D01*
X113412037Y-144603373D01*
X113463557Y-144433534D01*
X113463557Y-144433533D01*
X113547221Y-144277011D01*
X113547222Y-144277009D01*
X113576552Y-144241271D01*
X113659814Y-144139814D01*
X113761271Y-144056552D01*
X113797009Y-144027222D01*
X113814913Y-144017652D01*
X113953533Y-143943557D01*
X114010147Y-143926384D01*
X114123373Y-143892037D01*
X114189557Y-143885519D01*
X114255740Y-143879000D01*
X114344260Y-143879000D01*
X114410443Y-143885519D01*
X114410443Y-143885519D01*
G37*
G36*
X155050443Y-143885519D02*
X155116627Y-143892037D01*
X155229853Y-143926384D01*
X155286467Y-143943557D01*
X155425087Y-144017652D01*
X155442991Y-144027222D01*
X155478729Y-144056552D01*
X155580186Y-144139814D01*
X155663448Y-144241271D01*
X155692778Y-144277009D01*
X155692779Y-144277011D01*
X155776443Y-144433533D01*
X155776443Y-144433534D01*
X155827963Y-144603373D01*
X155845359Y-144780000D01*
X155827963Y-144956627D01*
X155793616Y-145069853D01*
X155776443Y-145126467D01*
X155702348Y-145265087D01*
X155692778Y-145282991D01*
X155663448Y-145318729D01*
X155580186Y-145420186D01*
X155478729Y-145503448D01*
X155442991Y-145532778D01*
X155442989Y-145532779D01*
X155286467Y-145616443D01*
X155229853Y-145633616D01*
X155116627Y-145667963D01*
X155050443Y-145674481D01*
X154984260Y-145681000D01*
X154895740Y-145681000D01*
X154829557Y-145674481D01*
X154763373Y-145667963D01*
X154650147Y-145633616D01*
X154593533Y-145616443D01*
X154437011Y-145532779D01*
X154437009Y-145532778D01*
X154401271Y-145503448D01*
X154299814Y-145420186D01*
X154216552Y-145318729D01*
X154187222Y-145282991D01*
X154177652Y-145265087D01*
X154103557Y-145126467D01*
X154086384Y-145069853D01*
X154052037Y-144956627D01*
X154034641Y-144780000D01*
X154052037Y-144603373D01*
X154103557Y-144433534D01*
X154103557Y-144433533D01*
X154187221Y-144277011D01*
X154187222Y-144277009D01*
X154216552Y-144241271D01*
X154299814Y-144139814D01*
X154401271Y-144056552D01*
X154437009Y-144027222D01*
X154454913Y-144017652D01*
X154593533Y-143943557D01*
X154650147Y-143926384D01*
X154763373Y-143892037D01*
X154829557Y-143885519D01*
X154895740Y-143879000D01*
X154984260Y-143879000D01*
X155050443Y-143885519D01*
X155050443Y-143885519D01*
G37*
G36*
X165210443Y-143885519D02*
X165276627Y-143892037D01*
X165389853Y-143926384D01*
X165446467Y-143943557D01*
X165585087Y-144017652D01*
X165602991Y-144027222D01*
X165638729Y-144056552D01*
X165740186Y-144139814D01*
X165823448Y-144241271D01*
X165852778Y-144277009D01*
X165852779Y-144277011D01*
X165936443Y-144433533D01*
X165936443Y-144433534D01*
X165987963Y-144603373D01*
X166005359Y-144780000D01*
X165987963Y-144956627D01*
X165953616Y-145069853D01*
X165936443Y-145126467D01*
X165862348Y-145265087D01*
X165852778Y-145282991D01*
X165823448Y-145318729D01*
X165740186Y-145420186D01*
X165638729Y-145503448D01*
X165602991Y-145532778D01*
X165602989Y-145532779D01*
X165446467Y-145616443D01*
X165389853Y-145633616D01*
X165276627Y-145667963D01*
X165210443Y-145674481D01*
X165144260Y-145681000D01*
X165055740Y-145681000D01*
X164989557Y-145674481D01*
X164923373Y-145667963D01*
X164810147Y-145633616D01*
X164753533Y-145616443D01*
X164597011Y-145532779D01*
X164597009Y-145532778D01*
X164561271Y-145503448D01*
X164459814Y-145420186D01*
X164376552Y-145318729D01*
X164347222Y-145282991D01*
X164337652Y-145265087D01*
X164263557Y-145126467D01*
X164246384Y-145069853D01*
X164212037Y-144956627D01*
X164194641Y-144780000D01*
X164212037Y-144603373D01*
X164263557Y-144433534D01*
X164263557Y-144433533D01*
X164347221Y-144277011D01*
X164347222Y-144277009D01*
X164376552Y-144241271D01*
X164459814Y-144139814D01*
X164561271Y-144056552D01*
X164597009Y-144027222D01*
X164614913Y-144017652D01*
X164753533Y-143943557D01*
X164810147Y-143926384D01*
X164923373Y-143892037D01*
X164989557Y-143885519D01*
X165055740Y-143879000D01*
X165144260Y-143879000D01*
X165210443Y-143885519D01*
X165210443Y-143885519D01*
G37*
G36*
X157590443Y-143885519D02*
X157656627Y-143892037D01*
X157769853Y-143926384D01*
X157826467Y-143943557D01*
X157965087Y-144017652D01*
X157982991Y-144027222D01*
X158018729Y-144056552D01*
X158120186Y-144139814D01*
X158203448Y-144241271D01*
X158232778Y-144277009D01*
X158232779Y-144277011D01*
X158316443Y-144433533D01*
X158316443Y-144433534D01*
X158367963Y-144603373D01*
X158385359Y-144780000D01*
X158367963Y-144956627D01*
X158333616Y-145069853D01*
X158316443Y-145126467D01*
X158242348Y-145265087D01*
X158232778Y-145282991D01*
X158203448Y-145318729D01*
X158120186Y-145420186D01*
X158018729Y-145503448D01*
X157982991Y-145532778D01*
X157982989Y-145532779D01*
X157826467Y-145616443D01*
X157769853Y-145633616D01*
X157656627Y-145667963D01*
X157590443Y-145674481D01*
X157524260Y-145681000D01*
X157435740Y-145681000D01*
X157369557Y-145674481D01*
X157303373Y-145667963D01*
X157190147Y-145633616D01*
X157133533Y-145616443D01*
X156977011Y-145532779D01*
X156977009Y-145532778D01*
X156941271Y-145503448D01*
X156839814Y-145420186D01*
X156756552Y-145318729D01*
X156727222Y-145282991D01*
X156717652Y-145265087D01*
X156643557Y-145126467D01*
X156626384Y-145069853D01*
X156592037Y-144956627D01*
X156574641Y-144780000D01*
X156592037Y-144603373D01*
X156643557Y-144433534D01*
X156643557Y-144433533D01*
X156727221Y-144277011D01*
X156727222Y-144277009D01*
X156756552Y-144241271D01*
X156839814Y-144139814D01*
X156941271Y-144056552D01*
X156977009Y-144027222D01*
X156994913Y-144017652D01*
X157133533Y-143943557D01*
X157190147Y-143926384D01*
X157303373Y-143892037D01*
X157369557Y-143885519D01*
X157435740Y-143879000D01*
X157524260Y-143879000D01*
X157590443Y-143885519D01*
X157590443Y-143885519D01*
G37*
G36*
X114410442Y-141345518D02*
X114476627Y-141352037D01*
X114589853Y-141386384D01*
X114646467Y-141403557D01*
X114785087Y-141477652D01*
X114802991Y-141487222D01*
X114838729Y-141516552D01*
X114940186Y-141599814D01*
X115023448Y-141701271D01*
X115052778Y-141737009D01*
X115052779Y-141737011D01*
X115136443Y-141893533D01*
X115136443Y-141893534D01*
X115187963Y-142063373D01*
X115205359Y-142240000D01*
X115187963Y-142416627D01*
X115153616Y-142529853D01*
X115136443Y-142586467D01*
X115062348Y-142725087D01*
X115052778Y-142742991D01*
X115023448Y-142778729D01*
X114940186Y-142880186D01*
X114838729Y-142963448D01*
X114802991Y-142992778D01*
X114802989Y-142992779D01*
X114646467Y-143076443D01*
X114589853Y-143093616D01*
X114476627Y-143127963D01*
X114410443Y-143134481D01*
X114344260Y-143141000D01*
X114255740Y-143141000D01*
X114189557Y-143134481D01*
X114123373Y-143127963D01*
X114010147Y-143093616D01*
X113953533Y-143076443D01*
X113797011Y-142992779D01*
X113797009Y-142992778D01*
X113761271Y-142963448D01*
X113659814Y-142880186D01*
X113576552Y-142778729D01*
X113547222Y-142742991D01*
X113537652Y-142725087D01*
X113463557Y-142586467D01*
X113446384Y-142529853D01*
X113412037Y-142416627D01*
X113394641Y-142240000D01*
X113412037Y-142063373D01*
X113463557Y-141893534D01*
X113463557Y-141893533D01*
X113547221Y-141737011D01*
X113547222Y-141737009D01*
X113576552Y-141701271D01*
X113659814Y-141599814D01*
X113761271Y-141516552D01*
X113797009Y-141487222D01*
X113814913Y-141477652D01*
X113953533Y-141403557D01*
X114010147Y-141386384D01*
X114123373Y-141352037D01*
X114189558Y-141345518D01*
X114255740Y-141339000D01*
X114344260Y-141339000D01*
X114410442Y-141345518D01*
X114410442Y-141345518D01*
G37*
G36*
X147430442Y-141345518D02*
X147496627Y-141352037D01*
X147609853Y-141386384D01*
X147666467Y-141403557D01*
X147805087Y-141477652D01*
X147822991Y-141487222D01*
X147858729Y-141516552D01*
X147960186Y-141599814D01*
X148043448Y-141701271D01*
X148072778Y-141737009D01*
X148072779Y-141737011D01*
X148156443Y-141893533D01*
X148156443Y-141893534D01*
X148207963Y-142063373D01*
X148225359Y-142240000D01*
X148207963Y-142416627D01*
X148173616Y-142529853D01*
X148156443Y-142586467D01*
X148082348Y-142725087D01*
X148072778Y-142742991D01*
X148043448Y-142778729D01*
X147960186Y-142880186D01*
X147858729Y-142963448D01*
X147822991Y-142992778D01*
X147822989Y-142992779D01*
X147666467Y-143076443D01*
X147609853Y-143093616D01*
X147496627Y-143127963D01*
X147430443Y-143134481D01*
X147364260Y-143141000D01*
X147275740Y-143141000D01*
X147209557Y-143134481D01*
X147143373Y-143127963D01*
X147030147Y-143093616D01*
X146973533Y-143076443D01*
X146817011Y-142992779D01*
X146817009Y-142992778D01*
X146781271Y-142963448D01*
X146679814Y-142880186D01*
X146596552Y-142778729D01*
X146567222Y-142742991D01*
X146557652Y-142725087D01*
X146483557Y-142586467D01*
X146466384Y-142529853D01*
X146432037Y-142416627D01*
X146414641Y-142240000D01*
X146432037Y-142063373D01*
X146483557Y-141893534D01*
X146483557Y-141893533D01*
X146567221Y-141737011D01*
X146567222Y-141737009D01*
X146596552Y-141701271D01*
X146679814Y-141599814D01*
X146781271Y-141516552D01*
X146817009Y-141487222D01*
X146834913Y-141477652D01*
X146973533Y-141403557D01*
X147030147Y-141386384D01*
X147143373Y-141352037D01*
X147209558Y-141345518D01*
X147275740Y-141339000D01*
X147364260Y-141339000D01*
X147430442Y-141345518D01*
X147430442Y-141345518D01*
G37*
G36*
X149970442Y-141345518D02*
X150036627Y-141352037D01*
X150149853Y-141386384D01*
X150206467Y-141403557D01*
X150345087Y-141477652D01*
X150362991Y-141487222D01*
X150398729Y-141516552D01*
X150500186Y-141599814D01*
X150583448Y-141701271D01*
X150612778Y-141737009D01*
X150612779Y-141737011D01*
X150696443Y-141893533D01*
X150696443Y-141893534D01*
X150747963Y-142063373D01*
X150765359Y-142240000D01*
X150747963Y-142416627D01*
X150713616Y-142529853D01*
X150696443Y-142586467D01*
X150622348Y-142725087D01*
X150612778Y-142742991D01*
X150583448Y-142778729D01*
X150500186Y-142880186D01*
X150398729Y-142963448D01*
X150362991Y-142992778D01*
X150362989Y-142992779D01*
X150206467Y-143076443D01*
X150149853Y-143093616D01*
X150036627Y-143127963D01*
X149970443Y-143134481D01*
X149904260Y-143141000D01*
X149815740Y-143141000D01*
X149749557Y-143134481D01*
X149683373Y-143127963D01*
X149570147Y-143093616D01*
X149513533Y-143076443D01*
X149357011Y-142992779D01*
X149357009Y-142992778D01*
X149321271Y-142963448D01*
X149219814Y-142880186D01*
X149136552Y-142778729D01*
X149107222Y-142742991D01*
X149097652Y-142725087D01*
X149023557Y-142586467D01*
X149006384Y-142529853D01*
X148972037Y-142416627D01*
X148954641Y-142240000D01*
X148972037Y-142063373D01*
X149023557Y-141893534D01*
X149023557Y-141893533D01*
X149107221Y-141737011D01*
X149107222Y-141737009D01*
X149136552Y-141701271D01*
X149219814Y-141599814D01*
X149321271Y-141516552D01*
X149357009Y-141487222D01*
X149374913Y-141477652D01*
X149513533Y-141403557D01*
X149570147Y-141386384D01*
X149683373Y-141352037D01*
X149749558Y-141345518D01*
X149815740Y-141339000D01*
X149904260Y-141339000D01*
X149970442Y-141345518D01*
X149970442Y-141345518D01*
G37*
G36*
X177910442Y-141345518D02*
X177976627Y-141352037D01*
X178089853Y-141386384D01*
X178146467Y-141403557D01*
X178285087Y-141477652D01*
X178302991Y-141487222D01*
X178338729Y-141516552D01*
X178440186Y-141599814D01*
X178523448Y-141701271D01*
X178552778Y-141737009D01*
X178552779Y-141737011D01*
X178636443Y-141893533D01*
X178636443Y-141893534D01*
X178687963Y-142063373D01*
X178705359Y-142240000D01*
X178687963Y-142416627D01*
X178653616Y-142529853D01*
X178636443Y-142586467D01*
X178562348Y-142725087D01*
X178552778Y-142742991D01*
X178523448Y-142778729D01*
X178440186Y-142880186D01*
X178338729Y-142963448D01*
X178302991Y-142992778D01*
X178302989Y-142992779D01*
X178146467Y-143076443D01*
X178089853Y-143093616D01*
X177976627Y-143127963D01*
X177910443Y-143134481D01*
X177844260Y-143141000D01*
X177755740Y-143141000D01*
X177689557Y-143134481D01*
X177623373Y-143127963D01*
X177510147Y-143093616D01*
X177453533Y-143076443D01*
X177297011Y-142992779D01*
X177297009Y-142992778D01*
X177261271Y-142963448D01*
X177159814Y-142880186D01*
X177076552Y-142778729D01*
X177047222Y-142742991D01*
X177037652Y-142725087D01*
X176963557Y-142586467D01*
X176946384Y-142529853D01*
X176912037Y-142416627D01*
X176894641Y-142240000D01*
X176912037Y-142063373D01*
X176963557Y-141893534D01*
X176963557Y-141893533D01*
X177047221Y-141737011D01*
X177047222Y-141737009D01*
X177076552Y-141701271D01*
X177159814Y-141599814D01*
X177261271Y-141516552D01*
X177297009Y-141487222D01*
X177314913Y-141477652D01*
X177453533Y-141403557D01*
X177510147Y-141386384D01*
X177623373Y-141352037D01*
X177689558Y-141345518D01*
X177755740Y-141339000D01*
X177844260Y-141339000D01*
X177910442Y-141345518D01*
X177910442Y-141345518D01*
G37*
G36*
X144890442Y-138805518D02*
X144956627Y-138812037D01*
X145069853Y-138846384D01*
X145126467Y-138863557D01*
X145265087Y-138937652D01*
X145282991Y-138947222D01*
X145318729Y-138976552D01*
X145420186Y-139059814D01*
X145503448Y-139161271D01*
X145532778Y-139197009D01*
X145532779Y-139197011D01*
X145616443Y-139353533D01*
X145616443Y-139353534D01*
X145667963Y-139523373D01*
X145685359Y-139700000D01*
X145667963Y-139876627D01*
X145633616Y-139989853D01*
X145616443Y-140046467D01*
X145542348Y-140185087D01*
X145532778Y-140202991D01*
X145503448Y-140238729D01*
X145420186Y-140340186D01*
X145318729Y-140423448D01*
X145282991Y-140452778D01*
X145282989Y-140452779D01*
X145126467Y-140536443D01*
X145069853Y-140553616D01*
X144956627Y-140587963D01*
X144890442Y-140594482D01*
X144824260Y-140601000D01*
X144735740Y-140601000D01*
X144669558Y-140594482D01*
X144603373Y-140587963D01*
X144490147Y-140553616D01*
X144433533Y-140536443D01*
X144277011Y-140452779D01*
X144277009Y-140452778D01*
X144241271Y-140423448D01*
X144139814Y-140340186D01*
X144056552Y-140238729D01*
X144027222Y-140202991D01*
X144017652Y-140185087D01*
X143943557Y-140046467D01*
X143926384Y-139989853D01*
X143892037Y-139876627D01*
X143874641Y-139700000D01*
X143892037Y-139523373D01*
X143943557Y-139353534D01*
X143943557Y-139353533D01*
X144027221Y-139197011D01*
X144027222Y-139197009D01*
X144056552Y-139161271D01*
X144139814Y-139059814D01*
X144241271Y-138976552D01*
X144277009Y-138947222D01*
X144294913Y-138937652D01*
X144433533Y-138863557D01*
X144490147Y-138846384D01*
X144603373Y-138812037D01*
X144669558Y-138805518D01*
X144735740Y-138799000D01*
X144824260Y-138799000D01*
X144890442Y-138805518D01*
X144890442Y-138805518D01*
G37*
G36*
X170290442Y-138805518D02*
X170356627Y-138812037D01*
X170469853Y-138846384D01*
X170526467Y-138863557D01*
X170665087Y-138937652D01*
X170682991Y-138947222D01*
X170718729Y-138976552D01*
X170820186Y-139059814D01*
X170903448Y-139161271D01*
X170932778Y-139197009D01*
X170932779Y-139197011D01*
X171016443Y-139353533D01*
X171016443Y-139353534D01*
X171067963Y-139523373D01*
X171085359Y-139700000D01*
X171067963Y-139876627D01*
X171033616Y-139989853D01*
X171016443Y-140046467D01*
X170942348Y-140185087D01*
X170932778Y-140202991D01*
X170903448Y-140238729D01*
X170820186Y-140340186D01*
X170718729Y-140423448D01*
X170682991Y-140452778D01*
X170682989Y-140452779D01*
X170526467Y-140536443D01*
X170469853Y-140553616D01*
X170356627Y-140587963D01*
X170290442Y-140594482D01*
X170224260Y-140601000D01*
X170135740Y-140601000D01*
X170069558Y-140594482D01*
X170003373Y-140587963D01*
X169890147Y-140553616D01*
X169833533Y-140536443D01*
X169677011Y-140452779D01*
X169677009Y-140452778D01*
X169641271Y-140423448D01*
X169539814Y-140340186D01*
X169456552Y-140238729D01*
X169427222Y-140202991D01*
X169417652Y-140185087D01*
X169343557Y-140046467D01*
X169326384Y-139989853D01*
X169292037Y-139876627D01*
X169274641Y-139700000D01*
X169292037Y-139523373D01*
X169343557Y-139353534D01*
X169343557Y-139353533D01*
X169427221Y-139197011D01*
X169427222Y-139197009D01*
X169456552Y-139161271D01*
X169539814Y-139059814D01*
X169641271Y-138976552D01*
X169677009Y-138947222D01*
X169694913Y-138937652D01*
X169833533Y-138863557D01*
X169890147Y-138846384D01*
X170003373Y-138812037D01*
X170069558Y-138805518D01*
X170135740Y-138799000D01*
X170224260Y-138799000D01*
X170290442Y-138805518D01*
X170290442Y-138805518D01*
G37*
G36*
X177910442Y-138805518D02*
X177976627Y-138812037D01*
X178089853Y-138846384D01*
X178146467Y-138863557D01*
X178285087Y-138937652D01*
X178302991Y-138947222D01*
X178338729Y-138976552D01*
X178440186Y-139059814D01*
X178523448Y-139161271D01*
X178552778Y-139197009D01*
X178552779Y-139197011D01*
X178636443Y-139353533D01*
X178636443Y-139353534D01*
X178687963Y-139523373D01*
X178705359Y-139700000D01*
X178687963Y-139876627D01*
X178653616Y-139989853D01*
X178636443Y-140046467D01*
X178562348Y-140185087D01*
X178552778Y-140202991D01*
X178523448Y-140238729D01*
X178440186Y-140340186D01*
X178338729Y-140423448D01*
X178302991Y-140452778D01*
X178302989Y-140452779D01*
X178146467Y-140536443D01*
X178089853Y-140553616D01*
X177976627Y-140587963D01*
X177910442Y-140594482D01*
X177844260Y-140601000D01*
X177755740Y-140601000D01*
X177689558Y-140594482D01*
X177623373Y-140587963D01*
X177510147Y-140553616D01*
X177453533Y-140536443D01*
X177297011Y-140452779D01*
X177297009Y-140452778D01*
X177261271Y-140423448D01*
X177159814Y-140340186D01*
X177076552Y-140238729D01*
X177047222Y-140202991D01*
X177037652Y-140185087D01*
X176963557Y-140046467D01*
X176946384Y-139989853D01*
X176912037Y-139876627D01*
X176894641Y-139700000D01*
X176912037Y-139523373D01*
X176963557Y-139353534D01*
X176963557Y-139353533D01*
X177047221Y-139197011D01*
X177047222Y-139197009D01*
X177076552Y-139161271D01*
X177159814Y-139059814D01*
X177261271Y-138976552D01*
X177297009Y-138947222D01*
X177314913Y-138937652D01*
X177453533Y-138863557D01*
X177510147Y-138846384D01*
X177623373Y-138812037D01*
X177689558Y-138805518D01*
X177755740Y-138799000D01*
X177844260Y-138799000D01*
X177910442Y-138805518D01*
X177910442Y-138805518D01*
G37*
G36*
X152510442Y-138805518D02*
X152576627Y-138812037D01*
X152689853Y-138846384D01*
X152746467Y-138863557D01*
X152885087Y-138937652D01*
X152902991Y-138947222D01*
X152938729Y-138976552D01*
X153040186Y-139059814D01*
X153123448Y-139161271D01*
X153152778Y-139197009D01*
X153152779Y-139197011D01*
X153236443Y-139353533D01*
X153236443Y-139353534D01*
X153287963Y-139523373D01*
X153305359Y-139700000D01*
X153287963Y-139876627D01*
X153253616Y-139989853D01*
X153236443Y-140046467D01*
X153162348Y-140185087D01*
X153152778Y-140202991D01*
X153123448Y-140238729D01*
X153040186Y-140340186D01*
X152938729Y-140423448D01*
X152902991Y-140452778D01*
X152902989Y-140452779D01*
X152746467Y-140536443D01*
X152689853Y-140553616D01*
X152576627Y-140587963D01*
X152510442Y-140594482D01*
X152444260Y-140601000D01*
X152355740Y-140601000D01*
X152289558Y-140594482D01*
X152223373Y-140587963D01*
X152110147Y-140553616D01*
X152053533Y-140536443D01*
X151897011Y-140452779D01*
X151897009Y-140452778D01*
X151861271Y-140423448D01*
X151759814Y-140340186D01*
X151676552Y-140238729D01*
X151647222Y-140202991D01*
X151637652Y-140185087D01*
X151563557Y-140046467D01*
X151546384Y-139989853D01*
X151512037Y-139876627D01*
X151494641Y-139700000D01*
X151512037Y-139523373D01*
X151563557Y-139353534D01*
X151563557Y-139353533D01*
X151647221Y-139197011D01*
X151647222Y-139197009D01*
X151676552Y-139161271D01*
X151759814Y-139059814D01*
X151861271Y-138976552D01*
X151897009Y-138947222D01*
X151914913Y-138937652D01*
X152053533Y-138863557D01*
X152110147Y-138846384D01*
X152223373Y-138812037D01*
X152289558Y-138805518D01*
X152355740Y-138799000D01*
X152444260Y-138799000D01*
X152510442Y-138805518D01*
X152510442Y-138805518D01*
G37*
G36*
X114410442Y-138805518D02*
X114476627Y-138812037D01*
X114589853Y-138846384D01*
X114646467Y-138863557D01*
X114785087Y-138937652D01*
X114802991Y-138947222D01*
X114838729Y-138976552D01*
X114940186Y-139059814D01*
X115023448Y-139161271D01*
X115052778Y-139197009D01*
X115052779Y-139197011D01*
X115136443Y-139353533D01*
X115136443Y-139353534D01*
X115187963Y-139523373D01*
X115205359Y-139700000D01*
X115187963Y-139876627D01*
X115153616Y-139989853D01*
X115136443Y-140046467D01*
X115062348Y-140185087D01*
X115052778Y-140202991D01*
X115023448Y-140238729D01*
X114940186Y-140340186D01*
X114838729Y-140423448D01*
X114802991Y-140452778D01*
X114802989Y-140452779D01*
X114646467Y-140536443D01*
X114589853Y-140553616D01*
X114476627Y-140587963D01*
X114410442Y-140594482D01*
X114344260Y-140601000D01*
X114255740Y-140601000D01*
X114189558Y-140594482D01*
X114123373Y-140587963D01*
X114010147Y-140553616D01*
X113953533Y-140536443D01*
X113797011Y-140452779D01*
X113797009Y-140452778D01*
X113761271Y-140423448D01*
X113659814Y-140340186D01*
X113576552Y-140238729D01*
X113547222Y-140202991D01*
X113537652Y-140185087D01*
X113463557Y-140046467D01*
X113446384Y-139989853D01*
X113412037Y-139876627D01*
X113394641Y-139700000D01*
X113412037Y-139523373D01*
X113463557Y-139353534D01*
X113463557Y-139353533D01*
X113547221Y-139197011D01*
X113547222Y-139197009D01*
X113576552Y-139161271D01*
X113659814Y-139059814D01*
X113761271Y-138976552D01*
X113797009Y-138947222D01*
X113814913Y-138937652D01*
X113953533Y-138863557D01*
X114010147Y-138846384D01*
X114123373Y-138812037D01*
X114189558Y-138805518D01*
X114255740Y-138799000D01*
X114344260Y-138799000D01*
X114410442Y-138805518D01*
X114410442Y-138805518D01*
G37*
G36*
X122030442Y-138805518D02*
X122096627Y-138812037D01*
X122209853Y-138846384D01*
X122266467Y-138863557D01*
X122405087Y-138937652D01*
X122422991Y-138947222D01*
X122458729Y-138976552D01*
X122560186Y-139059814D01*
X122643448Y-139161271D01*
X122672778Y-139197009D01*
X122672779Y-139197011D01*
X122756443Y-139353533D01*
X122756443Y-139353534D01*
X122807963Y-139523373D01*
X122825359Y-139700000D01*
X122807963Y-139876627D01*
X122773616Y-139989853D01*
X122756443Y-140046467D01*
X122682348Y-140185087D01*
X122672778Y-140202991D01*
X122643448Y-140238729D01*
X122560186Y-140340186D01*
X122458729Y-140423448D01*
X122422991Y-140452778D01*
X122422989Y-140452779D01*
X122266467Y-140536443D01*
X122209853Y-140553616D01*
X122096627Y-140587963D01*
X122030442Y-140594482D01*
X121964260Y-140601000D01*
X121875740Y-140601000D01*
X121809558Y-140594482D01*
X121743373Y-140587963D01*
X121630147Y-140553616D01*
X121573533Y-140536443D01*
X121417011Y-140452779D01*
X121417009Y-140452778D01*
X121381271Y-140423448D01*
X121279814Y-140340186D01*
X121196552Y-140238729D01*
X121167222Y-140202991D01*
X121157652Y-140185087D01*
X121083557Y-140046467D01*
X121066384Y-139989853D01*
X121032037Y-139876627D01*
X121014641Y-139700000D01*
X121032037Y-139523373D01*
X121083557Y-139353534D01*
X121083557Y-139353533D01*
X121167221Y-139197011D01*
X121167222Y-139197009D01*
X121196552Y-139161271D01*
X121279814Y-139059814D01*
X121381271Y-138976552D01*
X121417009Y-138947222D01*
X121434913Y-138937652D01*
X121573533Y-138863557D01*
X121630147Y-138846384D01*
X121743373Y-138812037D01*
X121809558Y-138805518D01*
X121875740Y-138799000D01*
X121964260Y-138799000D01*
X122030442Y-138805518D01*
X122030442Y-138805518D01*
G37*
G36*
X147430442Y-138805518D02*
X147496627Y-138812037D01*
X147609853Y-138846384D01*
X147666467Y-138863557D01*
X147805087Y-138937652D01*
X147822991Y-138947222D01*
X147858729Y-138976552D01*
X147960186Y-139059814D01*
X148043448Y-139161271D01*
X148072778Y-139197009D01*
X148072779Y-139197011D01*
X148156443Y-139353533D01*
X148156443Y-139353534D01*
X148207963Y-139523373D01*
X148225359Y-139700000D01*
X148207963Y-139876627D01*
X148173616Y-139989853D01*
X148156443Y-140046467D01*
X148082348Y-140185087D01*
X148072778Y-140202991D01*
X148043448Y-140238729D01*
X147960186Y-140340186D01*
X147858729Y-140423448D01*
X147822991Y-140452778D01*
X147822989Y-140452779D01*
X147666467Y-140536443D01*
X147609853Y-140553616D01*
X147496627Y-140587963D01*
X147430442Y-140594482D01*
X147364260Y-140601000D01*
X147275740Y-140601000D01*
X147209558Y-140594482D01*
X147143373Y-140587963D01*
X147030147Y-140553616D01*
X146973533Y-140536443D01*
X146817011Y-140452779D01*
X146817009Y-140452778D01*
X146781271Y-140423448D01*
X146679814Y-140340186D01*
X146596552Y-140238729D01*
X146567222Y-140202991D01*
X146557652Y-140185087D01*
X146483557Y-140046467D01*
X146466384Y-139989853D01*
X146432037Y-139876627D01*
X146414641Y-139700000D01*
X146432037Y-139523373D01*
X146483557Y-139353534D01*
X146483557Y-139353533D01*
X146567221Y-139197011D01*
X146567222Y-139197009D01*
X146596552Y-139161271D01*
X146679814Y-139059814D01*
X146781271Y-138976552D01*
X146817009Y-138947222D01*
X146834913Y-138937652D01*
X146973533Y-138863557D01*
X147030147Y-138846384D01*
X147143373Y-138812037D01*
X147209558Y-138805518D01*
X147275740Y-138799000D01*
X147364260Y-138799000D01*
X147430442Y-138805518D01*
X147430442Y-138805518D01*
G37*
G36*
X119490442Y-138805518D02*
X119556627Y-138812037D01*
X119669853Y-138846384D01*
X119726467Y-138863557D01*
X119865087Y-138937652D01*
X119882991Y-138947222D01*
X119918729Y-138976552D01*
X120020186Y-139059814D01*
X120103448Y-139161271D01*
X120132778Y-139197009D01*
X120132779Y-139197011D01*
X120216443Y-139353533D01*
X120216443Y-139353534D01*
X120267963Y-139523373D01*
X120285359Y-139700000D01*
X120267963Y-139876627D01*
X120233616Y-139989853D01*
X120216443Y-140046467D01*
X120142348Y-140185087D01*
X120132778Y-140202991D01*
X120103448Y-140238729D01*
X120020186Y-140340186D01*
X119918729Y-140423448D01*
X119882991Y-140452778D01*
X119882989Y-140452779D01*
X119726467Y-140536443D01*
X119669853Y-140553616D01*
X119556627Y-140587963D01*
X119490442Y-140594482D01*
X119424260Y-140601000D01*
X119335740Y-140601000D01*
X119269558Y-140594482D01*
X119203373Y-140587963D01*
X119090147Y-140553616D01*
X119033533Y-140536443D01*
X118877011Y-140452779D01*
X118877009Y-140452778D01*
X118841271Y-140423448D01*
X118739814Y-140340186D01*
X118656552Y-140238729D01*
X118627222Y-140202991D01*
X118617652Y-140185087D01*
X118543557Y-140046467D01*
X118526384Y-139989853D01*
X118492037Y-139876627D01*
X118474641Y-139700000D01*
X118492037Y-139523373D01*
X118543557Y-139353534D01*
X118543557Y-139353533D01*
X118627221Y-139197011D01*
X118627222Y-139197009D01*
X118656552Y-139161271D01*
X118739814Y-139059814D01*
X118841271Y-138976552D01*
X118877009Y-138947222D01*
X118894913Y-138937652D01*
X119033533Y-138863557D01*
X119090147Y-138846384D01*
X119203373Y-138812037D01*
X119269558Y-138805518D01*
X119335740Y-138799000D01*
X119424260Y-138799000D01*
X119490442Y-138805518D01*
X119490442Y-138805518D01*
G37*
G36*
X149970442Y-138805518D02*
X150036627Y-138812037D01*
X150149853Y-138846384D01*
X150206467Y-138863557D01*
X150345087Y-138937652D01*
X150362991Y-138947222D01*
X150398729Y-138976552D01*
X150500186Y-139059814D01*
X150583448Y-139161271D01*
X150612778Y-139197009D01*
X150612779Y-139197011D01*
X150696443Y-139353533D01*
X150696443Y-139353534D01*
X150747963Y-139523373D01*
X150765359Y-139700000D01*
X150747963Y-139876627D01*
X150713616Y-139989853D01*
X150696443Y-140046467D01*
X150622348Y-140185087D01*
X150612778Y-140202991D01*
X150583448Y-140238729D01*
X150500186Y-140340186D01*
X150398729Y-140423448D01*
X150362991Y-140452778D01*
X150362989Y-140452779D01*
X150206467Y-140536443D01*
X150149853Y-140553616D01*
X150036627Y-140587963D01*
X149970442Y-140594482D01*
X149904260Y-140601000D01*
X149815740Y-140601000D01*
X149749558Y-140594482D01*
X149683373Y-140587963D01*
X149570147Y-140553616D01*
X149513533Y-140536443D01*
X149357011Y-140452779D01*
X149357009Y-140452778D01*
X149321271Y-140423448D01*
X149219814Y-140340186D01*
X149136552Y-140238729D01*
X149107222Y-140202991D01*
X149097652Y-140185087D01*
X149023557Y-140046467D01*
X149006384Y-139989853D01*
X148972037Y-139876627D01*
X148954641Y-139700000D01*
X148972037Y-139523373D01*
X149023557Y-139353534D01*
X149023557Y-139353533D01*
X149107221Y-139197011D01*
X149107222Y-139197009D01*
X149136552Y-139161271D01*
X149219814Y-139059814D01*
X149321271Y-138976552D01*
X149357009Y-138947222D01*
X149374913Y-138937652D01*
X149513533Y-138863557D01*
X149570147Y-138846384D01*
X149683373Y-138812037D01*
X149749558Y-138805518D01*
X149815740Y-138799000D01*
X149904260Y-138799000D01*
X149970442Y-138805518D01*
X149970442Y-138805518D01*
G37*
G36*
X114410443Y-136265519D02*
X114476627Y-136272037D01*
X114589853Y-136306384D01*
X114646467Y-136323557D01*
X114785087Y-136397652D01*
X114802991Y-136407222D01*
X114838729Y-136436552D01*
X114940186Y-136519814D01*
X115023448Y-136621271D01*
X115052778Y-136657009D01*
X115052779Y-136657011D01*
X115136443Y-136813533D01*
X115136443Y-136813534D01*
X115187963Y-136983373D01*
X115205359Y-137160000D01*
X115187963Y-137336627D01*
X115153616Y-137449853D01*
X115136443Y-137506467D01*
X115062348Y-137645087D01*
X115052778Y-137662991D01*
X115023448Y-137698729D01*
X114940186Y-137800186D01*
X114838729Y-137883448D01*
X114802991Y-137912778D01*
X114802989Y-137912779D01*
X114646467Y-137996443D01*
X114589853Y-138013616D01*
X114476627Y-138047963D01*
X114410442Y-138054482D01*
X114344260Y-138061000D01*
X114255740Y-138061000D01*
X114189558Y-138054482D01*
X114123373Y-138047963D01*
X114010147Y-138013616D01*
X113953533Y-137996443D01*
X113797011Y-137912779D01*
X113797009Y-137912778D01*
X113761271Y-137883448D01*
X113659814Y-137800186D01*
X113576552Y-137698729D01*
X113547222Y-137662991D01*
X113537652Y-137645087D01*
X113463557Y-137506467D01*
X113446384Y-137449853D01*
X113412037Y-137336627D01*
X113394641Y-137160000D01*
X113412037Y-136983373D01*
X113463557Y-136813534D01*
X113463557Y-136813533D01*
X113547221Y-136657011D01*
X113547222Y-136657009D01*
X113576552Y-136621271D01*
X113659814Y-136519814D01*
X113761271Y-136436552D01*
X113797009Y-136407222D01*
X113814913Y-136397652D01*
X113953533Y-136323557D01*
X114010147Y-136306384D01*
X114123373Y-136272037D01*
X114189557Y-136265519D01*
X114255740Y-136259000D01*
X114344260Y-136259000D01*
X114410443Y-136265519D01*
X114410443Y-136265519D01*
G37*
G36*
X177910443Y-136265519D02*
X177976627Y-136272037D01*
X178089853Y-136306384D01*
X178146467Y-136323557D01*
X178285087Y-136397652D01*
X178302991Y-136407222D01*
X178338729Y-136436552D01*
X178440186Y-136519814D01*
X178523448Y-136621271D01*
X178552778Y-136657009D01*
X178552779Y-136657011D01*
X178636443Y-136813533D01*
X178636443Y-136813534D01*
X178687963Y-136983373D01*
X178705359Y-137160000D01*
X178687963Y-137336627D01*
X178653616Y-137449853D01*
X178636443Y-137506467D01*
X178562348Y-137645087D01*
X178552778Y-137662991D01*
X178523448Y-137698729D01*
X178440186Y-137800186D01*
X178338729Y-137883448D01*
X178302991Y-137912778D01*
X178302989Y-137912779D01*
X178146467Y-137996443D01*
X178089853Y-138013616D01*
X177976627Y-138047963D01*
X177910442Y-138054482D01*
X177844260Y-138061000D01*
X177755740Y-138061000D01*
X177689558Y-138054482D01*
X177623373Y-138047963D01*
X177510147Y-138013616D01*
X177453533Y-137996443D01*
X177297011Y-137912779D01*
X177297009Y-137912778D01*
X177261271Y-137883448D01*
X177159814Y-137800186D01*
X177076552Y-137698729D01*
X177047222Y-137662991D01*
X177037652Y-137645087D01*
X176963557Y-137506467D01*
X176946384Y-137449853D01*
X176912037Y-137336627D01*
X176894641Y-137160000D01*
X176912037Y-136983373D01*
X176963557Y-136813534D01*
X176963557Y-136813533D01*
X177047221Y-136657011D01*
X177047222Y-136657009D01*
X177076552Y-136621271D01*
X177159814Y-136519814D01*
X177261271Y-136436552D01*
X177297009Y-136407222D01*
X177314913Y-136397652D01*
X177453533Y-136323557D01*
X177510147Y-136306384D01*
X177623373Y-136272037D01*
X177689557Y-136265519D01*
X177755740Y-136259000D01*
X177844260Y-136259000D01*
X177910443Y-136265519D01*
X177910443Y-136265519D01*
G37*
G36*
X170290443Y-136265519D02*
X170356627Y-136272037D01*
X170469853Y-136306384D01*
X170526467Y-136323557D01*
X170665087Y-136397652D01*
X170682991Y-136407222D01*
X170718729Y-136436552D01*
X170820186Y-136519814D01*
X170903448Y-136621271D01*
X170932778Y-136657009D01*
X170932779Y-136657011D01*
X171016443Y-136813533D01*
X171016443Y-136813534D01*
X171067963Y-136983373D01*
X171085359Y-137160000D01*
X171067963Y-137336627D01*
X171033616Y-137449853D01*
X171016443Y-137506467D01*
X170942348Y-137645087D01*
X170932778Y-137662991D01*
X170903448Y-137698729D01*
X170820186Y-137800186D01*
X170718729Y-137883448D01*
X170682991Y-137912778D01*
X170682989Y-137912779D01*
X170526467Y-137996443D01*
X170469853Y-138013616D01*
X170356627Y-138047963D01*
X170290442Y-138054482D01*
X170224260Y-138061000D01*
X170135740Y-138061000D01*
X170069558Y-138054482D01*
X170003373Y-138047963D01*
X169890147Y-138013616D01*
X169833533Y-137996443D01*
X169677011Y-137912779D01*
X169677009Y-137912778D01*
X169641271Y-137883448D01*
X169539814Y-137800186D01*
X169456552Y-137698729D01*
X169427222Y-137662991D01*
X169417652Y-137645087D01*
X169343557Y-137506467D01*
X169326384Y-137449853D01*
X169292037Y-137336627D01*
X169274641Y-137160000D01*
X169292037Y-136983373D01*
X169343557Y-136813534D01*
X169343557Y-136813533D01*
X169427221Y-136657011D01*
X169427222Y-136657009D01*
X169456552Y-136621271D01*
X169539814Y-136519814D01*
X169641271Y-136436552D01*
X169677009Y-136407222D01*
X169694913Y-136397652D01*
X169833533Y-136323557D01*
X169890147Y-136306384D01*
X170003373Y-136272037D01*
X170069557Y-136265519D01*
X170135740Y-136259000D01*
X170224260Y-136259000D01*
X170290443Y-136265519D01*
X170290443Y-136265519D01*
G37*
G36*
X147430443Y-136265519D02*
X147496627Y-136272037D01*
X147609853Y-136306384D01*
X147666467Y-136323557D01*
X147805087Y-136397652D01*
X147822991Y-136407222D01*
X147858729Y-136436552D01*
X147960186Y-136519814D01*
X148043448Y-136621271D01*
X148072778Y-136657009D01*
X148072779Y-136657011D01*
X148156443Y-136813533D01*
X148156443Y-136813534D01*
X148207963Y-136983373D01*
X148225359Y-137160000D01*
X148207963Y-137336627D01*
X148173616Y-137449853D01*
X148156443Y-137506467D01*
X148082348Y-137645087D01*
X148072778Y-137662991D01*
X148043448Y-137698729D01*
X147960186Y-137800186D01*
X147858729Y-137883448D01*
X147822991Y-137912778D01*
X147822989Y-137912779D01*
X147666467Y-137996443D01*
X147609853Y-138013616D01*
X147496627Y-138047963D01*
X147430442Y-138054482D01*
X147364260Y-138061000D01*
X147275740Y-138061000D01*
X147209558Y-138054482D01*
X147143373Y-138047963D01*
X147030147Y-138013616D01*
X146973533Y-137996443D01*
X146817011Y-137912779D01*
X146817009Y-137912778D01*
X146781271Y-137883448D01*
X146679814Y-137800186D01*
X146596552Y-137698729D01*
X146567222Y-137662991D01*
X146557652Y-137645087D01*
X146483557Y-137506467D01*
X146466384Y-137449853D01*
X146432037Y-137336627D01*
X146414641Y-137160000D01*
X146432037Y-136983373D01*
X146483557Y-136813534D01*
X146483557Y-136813533D01*
X146567221Y-136657011D01*
X146567222Y-136657009D01*
X146596552Y-136621271D01*
X146679814Y-136519814D01*
X146781271Y-136436552D01*
X146817009Y-136407222D01*
X146834913Y-136397652D01*
X146973533Y-136323557D01*
X147030147Y-136306384D01*
X147143373Y-136272037D01*
X147209557Y-136265519D01*
X147275740Y-136259000D01*
X147364260Y-136259000D01*
X147430443Y-136265519D01*
X147430443Y-136265519D01*
G37*
G36*
X149970443Y-136265519D02*
X150036627Y-136272037D01*
X150149853Y-136306384D01*
X150206467Y-136323557D01*
X150345087Y-136397652D01*
X150362991Y-136407222D01*
X150398729Y-136436552D01*
X150500186Y-136519814D01*
X150583448Y-136621271D01*
X150612778Y-136657009D01*
X150612779Y-136657011D01*
X150696443Y-136813533D01*
X150696443Y-136813534D01*
X150747963Y-136983373D01*
X150765359Y-137160000D01*
X150747963Y-137336627D01*
X150713616Y-137449853D01*
X150696443Y-137506467D01*
X150622348Y-137645087D01*
X150612778Y-137662991D01*
X150583448Y-137698729D01*
X150500186Y-137800186D01*
X150398729Y-137883448D01*
X150362991Y-137912778D01*
X150362989Y-137912779D01*
X150206467Y-137996443D01*
X150149853Y-138013616D01*
X150036627Y-138047963D01*
X149970442Y-138054482D01*
X149904260Y-138061000D01*
X149815740Y-138061000D01*
X149749558Y-138054482D01*
X149683373Y-138047963D01*
X149570147Y-138013616D01*
X149513533Y-137996443D01*
X149357011Y-137912779D01*
X149357009Y-137912778D01*
X149321271Y-137883448D01*
X149219814Y-137800186D01*
X149136552Y-137698729D01*
X149107222Y-137662991D01*
X149097652Y-137645087D01*
X149023557Y-137506467D01*
X149006384Y-137449853D01*
X148972037Y-137336627D01*
X148954641Y-137160000D01*
X148972037Y-136983373D01*
X149023557Y-136813534D01*
X149023557Y-136813533D01*
X149107221Y-136657011D01*
X149107222Y-136657009D01*
X149136552Y-136621271D01*
X149219814Y-136519814D01*
X149321271Y-136436552D01*
X149357009Y-136407222D01*
X149374913Y-136397652D01*
X149513533Y-136323557D01*
X149570147Y-136306384D01*
X149683373Y-136272037D01*
X149749557Y-136265519D01*
X149815740Y-136259000D01*
X149904260Y-136259000D01*
X149970443Y-136265519D01*
X149970443Y-136265519D01*
G37*
G36*
X152510443Y-136265519D02*
X152576627Y-136272037D01*
X152689853Y-136306384D01*
X152746467Y-136323557D01*
X152885087Y-136397652D01*
X152902991Y-136407222D01*
X152938729Y-136436552D01*
X153040186Y-136519814D01*
X153123448Y-136621271D01*
X153152778Y-136657009D01*
X153152779Y-136657011D01*
X153236443Y-136813533D01*
X153236443Y-136813534D01*
X153287963Y-136983373D01*
X153305359Y-137160000D01*
X153287963Y-137336627D01*
X153253616Y-137449853D01*
X153236443Y-137506467D01*
X153162348Y-137645087D01*
X153152778Y-137662991D01*
X153123448Y-137698729D01*
X153040186Y-137800186D01*
X152938729Y-137883448D01*
X152902991Y-137912778D01*
X152902989Y-137912779D01*
X152746467Y-137996443D01*
X152689853Y-138013616D01*
X152576627Y-138047963D01*
X152510442Y-138054482D01*
X152444260Y-138061000D01*
X152355740Y-138061000D01*
X152289558Y-138054482D01*
X152223373Y-138047963D01*
X152110147Y-138013616D01*
X152053533Y-137996443D01*
X151897011Y-137912779D01*
X151897009Y-137912778D01*
X151861271Y-137883448D01*
X151759814Y-137800186D01*
X151676552Y-137698729D01*
X151647222Y-137662991D01*
X151637652Y-137645087D01*
X151563557Y-137506467D01*
X151546384Y-137449853D01*
X151512037Y-137336627D01*
X151494641Y-137160000D01*
X151512037Y-136983373D01*
X151563557Y-136813534D01*
X151563557Y-136813533D01*
X151647221Y-136657011D01*
X151647222Y-136657009D01*
X151676552Y-136621271D01*
X151759814Y-136519814D01*
X151861271Y-136436552D01*
X151897009Y-136407222D01*
X151914913Y-136397652D01*
X152053533Y-136323557D01*
X152110147Y-136306384D01*
X152223373Y-136272037D01*
X152289557Y-136265519D01*
X152355740Y-136259000D01*
X152444260Y-136259000D01*
X152510443Y-136265519D01*
X152510443Y-136265519D01*
G37*
G36*
X144890443Y-136265519D02*
X144956627Y-136272037D01*
X145069853Y-136306384D01*
X145126467Y-136323557D01*
X145265087Y-136397652D01*
X145282991Y-136407222D01*
X145318729Y-136436552D01*
X145420186Y-136519814D01*
X145503448Y-136621271D01*
X145532778Y-136657009D01*
X145532779Y-136657011D01*
X145616443Y-136813533D01*
X145616443Y-136813534D01*
X145667963Y-136983373D01*
X145685359Y-137160000D01*
X145667963Y-137336627D01*
X145633616Y-137449853D01*
X145616443Y-137506467D01*
X145542348Y-137645087D01*
X145532778Y-137662991D01*
X145503448Y-137698729D01*
X145420186Y-137800186D01*
X145318729Y-137883448D01*
X145282991Y-137912778D01*
X145282989Y-137912779D01*
X145126467Y-137996443D01*
X145069853Y-138013616D01*
X144956627Y-138047963D01*
X144890442Y-138054482D01*
X144824260Y-138061000D01*
X144735740Y-138061000D01*
X144669558Y-138054482D01*
X144603373Y-138047963D01*
X144490147Y-138013616D01*
X144433533Y-137996443D01*
X144277011Y-137912779D01*
X144277009Y-137912778D01*
X144241271Y-137883448D01*
X144139814Y-137800186D01*
X144056552Y-137698729D01*
X144027222Y-137662991D01*
X144017652Y-137645087D01*
X143943557Y-137506467D01*
X143926384Y-137449853D01*
X143892037Y-137336627D01*
X143874641Y-137160000D01*
X143892037Y-136983373D01*
X143943557Y-136813534D01*
X143943557Y-136813533D01*
X144027221Y-136657011D01*
X144027222Y-136657009D01*
X144056552Y-136621271D01*
X144139814Y-136519814D01*
X144241271Y-136436552D01*
X144277009Y-136407222D01*
X144294913Y-136397652D01*
X144433533Y-136323557D01*
X144490147Y-136306384D01*
X144603373Y-136272037D01*
X144669557Y-136265519D01*
X144735740Y-136259000D01*
X144824260Y-136259000D01*
X144890443Y-136265519D01*
X144890443Y-136265519D01*
G37*
G36*
X162923238Y-126104760D02*
X162923240Y-126104761D01*
X162923241Y-126104761D01*
X163187306Y-126214140D01*
X163187307Y-126214141D01*
X163424962Y-126372937D01*
X163627063Y-126575038D01*
X163627065Y-126575041D01*
X163785860Y-126812694D01*
X163895239Y-127076759D01*
X163951000Y-127357089D01*
X163951000Y-127642911D01*
X163895239Y-127923241D01*
X163785860Y-128187306D01*
X163785859Y-128187307D01*
X163627063Y-128424962D01*
X163424962Y-128627063D01*
X163424959Y-128627065D01*
X163187306Y-128785860D01*
X162923241Y-128895239D01*
X162923240Y-128895239D01*
X162923238Y-128895240D01*
X162642912Y-128951000D01*
X162357088Y-128951000D01*
X162076762Y-128895240D01*
X162076760Y-128895239D01*
X162076759Y-128895239D01*
X161812694Y-128785860D01*
X161575041Y-128627065D01*
X161575038Y-128627063D01*
X161372937Y-128424962D01*
X161214141Y-128187307D01*
X161214140Y-128187306D01*
X161104761Y-127923241D01*
X161049000Y-127642911D01*
X161049000Y-127357089D01*
X161104761Y-127076759D01*
X161214140Y-126812694D01*
X161372935Y-126575041D01*
X161372937Y-126575038D01*
X161575038Y-126372937D01*
X161812693Y-126214141D01*
X161812694Y-126214140D01*
X162076759Y-126104761D01*
X162076760Y-126104761D01*
X162076762Y-126104760D01*
X162357088Y-126049000D01*
X162642912Y-126049000D01*
X162923238Y-126104760D01*
X162923238Y-126104760D01*
G37*
G36*
X125423238Y-126104760D02*
X125423240Y-126104761D01*
X125423241Y-126104761D01*
X125687306Y-126214140D01*
X125687307Y-126214141D01*
X125924962Y-126372937D01*
X126127063Y-126575038D01*
X126127065Y-126575041D01*
X126285860Y-126812694D01*
X126395239Y-127076759D01*
X126451000Y-127357089D01*
X126451000Y-127642911D01*
X126395239Y-127923241D01*
X126285860Y-128187306D01*
X126285859Y-128187307D01*
X126127063Y-128424962D01*
X125924962Y-128627063D01*
X125924959Y-128627065D01*
X125687306Y-128785860D01*
X125423241Y-128895239D01*
X125423240Y-128895239D01*
X125423238Y-128895240D01*
X125142912Y-128951000D01*
X124857088Y-128951000D01*
X124576762Y-128895240D01*
X124576760Y-128895239D01*
X124576759Y-128895239D01*
X124312694Y-128785860D01*
X124075041Y-128627065D01*
X124075038Y-128627063D01*
X123872937Y-128424962D01*
X123714141Y-128187307D01*
X123714140Y-128187306D01*
X123604761Y-127923241D01*
X123549000Y-127642911D01*
X123549000Y-127357089D01*
X123604761Y-127076759D01*
X123714140Y-126812694D01*
X123872935Y-126575041D01*
X123872937Y-126575038D01*
X124075038Y-126372937D01*
X124312693Y-126214141D01*
X124312694Y-126214140D01*
X124576759Y-126104761D01*
X124576760Y-126104761D01*
X124576762Y-126104760D01*
X124857088Y-126049000D01*
X125142912Y-126049000D01*
X125423238Y-126104760D01*
X125423238Y-126104760D01*
G37*
G36*
X177923238Y-126104760D02*
X177923240Y-126104761D01*
X177923241Y-126104761D01*
X178187306Y-126214140D01*
X178187307Y-126214141D01*
X178424962Y-126372937D01*
X178627063Y-126575038D01*
X178627065Y-126575041D01*
X178785860Y-126812694D01*
X178895239Y-127076759D01*
X178951000Y-127357089D01*
X178951000Y-127642911D01*
X178895239Y-127923241D01*
X178785860Y-128187306D01*
X178785859Y-128187307D01*
X178627063Y-128424962D01*
X178424962Y-128627063D01*
X178424959Y-128627065D01*
X178187306Y-128785860D01*
X177923241Y-128895239D01*
X177923240Y-128895239D01*
X177923238Y-128895240D01*
X177642912Y-128951000D01*
X177357088Y-128951000D01*
X177076762Y-128895240D01*
X177076760Y-128895239D01*
X177076759Y-128895239D01*
X176812694Y-128785860D01*
X176575041Y-128627065D01*
X176575038Y-128627063D01*
X176372937Y-128424962D01*
X176214141Y-128187307D01*
X176214140Y-128187306D01*
X176104761Y-127923241D01*
X176049000Y-127642911D01*
X176049000Y-127357089D01*
X176104761Y-127076759D01*
X176214140Y-126812694D01*
X176372935Y-126575041D01*
X176372937Y-126575038D01*
X176575038Y-126372937D01*
X176812693Y-126214141D01*
X176812694Y-126214140D01*
X177076759Y-126104761D01*
X177076760Y-126104761D01*
X177076762Y-126104760D01*
X177357088Y-126049000D01*
X177642912Y-126049000D01*
X177923238Y-126104760D01*
X177923238Y-126104760D01*
G37*
G36*
X155423238Y-126104760D02*
X155423240Y-126104761D01*
X155423241Y-126104761D01*
X155687306Y-126214140D01*
X155687307Y-126214141D01*
X155924962Y-126372937D01*
X156127063Y-126575038D01*
X156127065Y-126575041D01*
X156285860Y-126812694D01*
X156395239Y-127076759D01*
X156451000Y-127357089D01*
X156451000Y-127642911D01*
X156395239Y-127923241D01*
X156285860Y-128187306D01*
X156285859Y-128187307D01*
X156127063Y-128424962D01*
X155924962Y-128627063D01*
X155924959Y-128627065D01*
X155687306Y-128785860D01*
X155423241Y-128895239D01*
X155423240Y-128895239D01*
X155423238Y-128895240D01*
X155142912Y-128951000D01*
X154857088Y-128951000D01*
X154576762Y-128895240D01*
X154576760Y-128895239D01*
X154576759Y-128895239D01*
X154312694Y-128785860D01*
X154075041Y-128627065D01*
X154075038Y-128627063D01*
X153872937Y-128424962D01*
X153714141Y-128187307D01*
X153714140Y-128187306D01*
X153604761Y-127923241D01*
X153549000Y-127642911D01*
X153549000Y-127357089D01*
X153604761Y-127076759D01*
X153714140Y-126812694D01*
X153872935Y-126575041D01*
X153872937Y-126575038D01*
X154075038Y-126372937D01*
X154312693Y-126214141D01*
X154312694Y-126214140D01*
X154576759Y-126104761D01*
X154576760Y-126104761D01*
X154576762Y-126104760D01*
X154857088Y-126049000D01*
X155142912Y-126049000D01*
X155423238Y-126104760D01*
X155423238Y-126104760D01*
G37*
G36*
X133423238Y-126104760D02*
X133423240Y-126104761D01*
X133423241Y-126104761D01*
X133687306Y-126214140D01*
X133687307Y-126214141D01*
X133924962Y-126372937D01*
X134127063Y-126575038D01*
X134127065Y-126575041D01*
X134285860Y-126812694D01*
X134395239Y-127076759D01*
X134451000Y-127357089D01*
X134451000Y-127642911D01*
X134395239Y-127923241D01*
X134285860Y-128187306D01*
X134285859Y-128187307D01*
X134127063Y-128424962D01*
X133924962Y-128627063D01*
X133924959Y-128627065D01*
X133687306Y-128785860D01*
X133423241Y-128895239D01*
X133423240Y-128895239D01*
X133423238Y-128895240D01*
X133142912Y-128951000D01*
X132857088Y-128951000D01*
X132576762Y-128895240D01*
X132576760Y-128895239D01*
X132576759Y-128895239D01*
X132312694Y-128785860D01*
X132075041Y-128627065D01*
X132075038Y-128627063D01*
X131872937Y-128424962D01*
X131714141Y-128187307D01*
X131714140Y-128187306D01*
X131604761Y-127923241D01*
X131549000Y-127642911D01*
X131549000Y-127357089D01*
X131604761Y-127076759D01*
X131714140Y-126812694D01*
X131872935Y-126575041D01*
X131872937Y-126575038D01*
X132075038Y-126372937D01*
X132312693Y-126214141D01*
X132312694Y-126214140D01*
X132576759Y-126104761D01*
X132576760Y-126104761D01*
X132576762Y-126104760D01*
X132857088Y-126049000D01*
X133142912Y-126049000D01*
X133423238Y-126104760D01*
X133423238Y-126104760D01*
G37*
G36*
X140423238Y-126104760D02*
X140423240Y-126104761D01*
X140423241Y-126104761D01*
X140687306Y-126214140D01*
X140687307Y-126214141D01*
X140924962Y-126372937D01*
X141127063Y-126575038D01*
X141127065Y-126575041D01*
X141285860Y-126812694D01*
X141395239Y-127076759D01*
X141451000Y-127357089D01*
X141451000Y-127642911D01*
X141395239Y-127923241D01*
X141285860Y-128187306D01*
X141285859Y-128187307D01*
X141127063Y-128424962D01*
X140924962Y-128627063D01*
X140924959Y-128627065D01*
X140687306Y-128785860D01*
X140423241Y-128895239D01*
X140423240Y-128895239D01*
X140423238Y-128895240D01*
X140142912Y-128951000D01*
X139857088Y-128951000D01*
X139576762Y-128895240D01*
X139576760Y-128895239D01*
X139576759Y-128895239D01*
X139312694Y-128785860D01*
X139075041Y-128627065D01*
X139075038Y-128627063D01*
X138872937Y-128424962D01*
X138714141Y-128187307D01*
X138714140Y-128187306D01*
X138604761Y-127923241D01*
X138549000Y-127642911D01*
X138549000Y-127357089D01*
X138604761Y-127076759D01*
X138714140Y-126812694D01*
X138872935Y-126575041D01*
X138872937Y-126575038D01*
X139075038Y-126372937D01*
X139312693Y-126214141D01*
X139312694Y-126214140D01*
X139576759Y-126104761D01*
X139576760Y-126104761D01*
X139576762Y-126104760D01*
X139857088Y-126049000D01*
X140142912Y-126049000D01*
X140423238Y-126104760D01*
X140423238Y-126104760D01*
G37*
G36*
X170423238Y-126104760D02*
X170423240Y-126104761D01*
X170423241Y-126104761D01*
X170687306Y-126214140D01*
X170687307Y-126214141D01*
X170924962Y-126372937D01*
X171127063Y-126575038D01*
X171127065Y-126575041D01*
X171285860Y-126812694D01*
X171395239Y-127076759D01*
X171451000Y-127357089D01*
X171451000Y-127642911D01*
X171395239Y-127923241D01*
X171285860Y-128187306D01*
X171285859Y-128187307D01*
X171127063Y-128424962D01*
X170924962Y-128627063D01*
X170924959Y-128627065D01*
X170687306Y-128785860D01*
X170423241Y-128895239D01*
X170423240Y-128895239D01*
X170423238Y-128895240D01*
X170142912Y-128951000D01*
X169857088Y-128951000D01*
X169576762Y-128895240D01*
X169576760Y-128895239D01*
X169576759Y-128895239D01*
X169312694Y-128785860D01*
X169075041Y-128627065D01*
X169075038Y-128627063D01*
X168872937Y-128424962D01*
X168714141Y-128187307D01*
X168714140Y-128187306D01*
X168604761Y-127923241D01*
X168549000Y-127642911D01*
X168549000Y-127357089D01*
X168604761Y-127076759D01*
X168714140Y-126812694D01*
X168872935Y-126575041D01*
X168872937Y-126575038D01*
X169075038Y-126372937D01*
X169312693Y-126214141D01*
X169312694Y-126214140D01*
X169576759Y-126104761D01*
X169576760Y-126104761D01*
X169576762Y-126104760D01*
X169857088Y-126049000D01*
X170142912Y-126049000D01*
X170423238Y-126104760D01*
X170423238Y-126104760D01*
G37*
G36*
X110423238Y-126104760D02*
X110423240Y-126104761D01*
X110423241Y-126104761D01*
X110687306Y-126214140D01*
X110687307Y-126214141D01*
X110924962Y-126372937D01*
X111127063Y-126575038D01*
X111127065Y-126575041D01*
X111285860Y-126812694D01*
X111395239Y-127076759D01*
X111451000Y-127357089D01*
X111451000Y-127642911D01*
X111395239Y-127923241D01*
X111285860Y-128187306D01*
X111285859Y-128187307D01*
X111127063Y-128424962D01*
X110924962Y-128627063D01*
X110924959Y-128627065D01*
X110687306Y-128785860D01*
X110423241Y-128895239D01*
X110423240Y-128895239D01*
X110423238Y-128895240D01*
X110142912Y-128951000D01*
X109857088Y-128951000D01*
X109576762Y-128895240D01*
X109576760Y-128895239D01*
X109576759Y-128895239D01*
X109312694Y-128785860D01*
X109075041Y-128627065D01*
X109075038Y-128627063D01*
X108872937Y-128424962D01*
X108714141Y-128187307D01*
X108714140Y-128187306D01*
X108604761Y-127923241D01*
X108549000Y-127642911D01*
X108549000Y-127357089D01*
X108604761Y-127076759D01*
X108714140Y-126812694D01*
X108872935Y-126575041D01*
X108872937Y-126575038D01*
X109075038Y-126372937D01*
X109312693Y-126214141D01*
X109312694Y-126214140D01*
X109576759Y-126104761D01*
X109576760Y-126104761D01*
X109576762Y-126104760D01*
X109857088Y-126049000D01*
X110142912Y-126049000D01*
X110423238Y-126104760D01*
X110423238Y-126104760D01*
G37*
G36*
X147923238Y-126104760D02*
X147923240Y-126104761D01*
X147923241Y-126104761D01*
X148187306Y-126214140D01*
X148187307Y-126214141D01*
X148424962Y-126372937D01*
X148627063Y-126575038D01*
X148627065Y-126575041D01*
X148785860Y-126812694D01*
X148895239Y-127076759D01*
X148951000Y-127357089D01*
X148951000Y-127642911D01*
X148895239Y-127923241D01*
X148785860Y-128187306D01*
X148785859Y-128187307D01*
X148627063Y-128424962D01*
X148424962Y-128627063D01*
X148424959Y-128627065D01*
X148187306Y-128785860D01*
X147923241Y-128895239D01*
X147923240Y-128895239D01*
X147923238Y-128895240D01*
X147642912Y-128951000D01*
X147357088Y-128951000D01*
X147076762Y-128895240D01*
X147076760Y-128895239D01*
X147076759Y-128895239D01*
X146812694Y-128785860D01*
X146575041Y-128627065D01*
X146575038Y-128627063D01*
X146372937Y-128424962D01*
X146214141Y-128187307D01*
X146214140Y-128187306D01*
X146104761Y-127923241D01*
X146049000Y-127642911D01*
X146049000Y-127357089D01*
X146104761Y-127076759D01*
X146214140Y-126812694D01*
X146372935Y-126575041D01*
X146372937Y-126575038D01*
X146575038Y-126372937D01*
X146812693Y-126214141D01*
X146812694Y-126214140D01*
X147076759Y-126104761D01*
X147076760Y-126104761D01*
X147076762Y-126104760D01*
X147357088Y-126049000D01*
X147642912Y-126049000D01*
X147923238Y-126104760D01*
X147923238Y-126104760D01*
G37*
G36*
X185423238Y-126104760D02*
X185423240Y-126104761D01*
X185423241Y-126104761D01*
X185687306Y-126214140D01*
X185687307Y-126214141D01*
X185924962Y-126372937D01*
X186127063Y-126575038D01*
X186127065Y-126575041D01*
X186285860Y-126812694D01*
X186395239Y-127076759D01*
X186451000Y-127357089D01*
X186451000Y-127642911D01*
X186395239Y-127923241D01*
X186285860Y-128187306D01*
X186285859Y-128187307D01*
X186127063Y-128424962D01*
X185924962Y-128627063D01*
X185924959Y-128627065D01*
X185687306Y-128785860D01*
X185423241Y-128895239D01*
X185423240Y-128895239D01*
X185423238Y-128895240D01*
X185142912Y-128951000D01*
X184857088Y-128951000D01*
X184576762Y-128895240D01*
X184576760Y-128895239D01*
X184576759Y-128895239D01*
X184312694Y-128785860D01*
X184075041Y-128627065D01*
X184075038Y-128627063D01*
X183872937Y-128424962D01*
X183714141Y-128187307D01*
X183714140Y-128187306D01*
X183604761Y-127923241D01*
X183549000Y-127642911D01*
X183549000Y-127357089D01*
X183604761Y-127076759D01*
X183714140Y-126812694D01*
X183872935Y-126575041D01*
X183872937Y-126575038D01*
X184075038Y-126372937D01*
X184312693Y-126214141D01*
X184312694Y-126214140D01*
X184576759Y-126104761D01*
X184576760Y-126104761D01*
X184576762Y-126104760D01*
X184857088Y-126049000D01*
X185142912Y-126049000D01*
X185423238Y-126104760D01*
X185423238Y-126104760D01*
G37*
G36*
X117923238Y-126104760D02*
X117923240Y-126104761D01*
X117923241Y-126104761D01*
X118187306Y-126214140D01*
X118187307Y-126214141D01*
X118424962Y-126372937D01*
X118627063Y-126575038D01*
X118627065Y-126575041D01*
X118785860Y-126812694D01*
X118895239Y-127076759D01*
X118951000Y-127357089D01*
X118951000Y-127642911D01*
X118895239Y-127923241D01*
X118785860Y-128187306D01*
X118785859Y-128187307D01*
X118627063Y-128424962D01*
X118424962Y-128627063D01*
X118424959Y-128627065D01*
X118187306Y-128785860D01*
X117923241Y-128895239D01*
X117923240Y-128895239D01*
X117923238Y-128895240D01*
X117642912Y-128951000D01*
X117357088Y-128951000D01*
X117076762Y-128895240D01*
X117076760Y-128895239D01*
X117076759Y-128895239D01*
X116812694Y-128785860D01*
X116575041Y-128627065D01*
X116575038Y-128627063D01*
X116372937Y-128424962D01*
X116214141Y-128187307D01*
X116214140Y-128187306D01*
X116104761Y-127923241D01*
X116049000Y-127642911D01*
X116049000Y-127357089D01*
X116104761Y-127076759D01*
X116214140Y-126812694D01*
X116372935Y-126575041D01*
X116372937Y-126575038D01*
X116575038Y-126372937D01*
X116812693Y-126214141D01*
X116812694Y-126214140D01*
X117076759Y-126104761D01*
X117076760Y-126104761D01*
X117076762Y-126104760D01*
X117357088Y-126049000D01*
X117642912Y-126049000D01*
X117923238Y-126104760D01*
X117923238Y-126104760D01*
G37*
G36*
X117610442Y-118145518D02*
X117676627Y-118152037D01*
X117789853Y-118186384D01*
X117846467Y-118203557D01*
X117985087Y-118277652D01*
X118002991Y-118287222D01*
X118038729Y-118316552D01*
X118140186Y-118399814D01*
X118223448Y-118501271D01*
X118252778Y-118537009D01*
X118252779Y-118537011D01*
X118336443Y-118693533D01*
X118336443Y-118693534D01*
X118387963Y-118863373D01*
X118405359Y-119040000D01*
X118387963Y-119216627D01*
X118353616Y-119329853D01*
X118336443Y-119386467D01*
X118262348Y-119525087D01*
X118252778Y-119542991D01*
X118223448Y-119578729D01*
X118140186Y-119680186D01*
X118038729Y-119763448D01*
X118002991Y-119792778D01*
X118002989Y-119792779D01*
X117846467Y-119876443D01*
X117789853Y-119893616D01*
X117676627Y-119927963D01*
X117610442Y-119934482D01*
X117544260Y-119941000D01*
X117455740Y-119941000D01*
X117389558Y-119934482D01*
X117323373Y-119927963D01*
X117210147Y-119893616D01*
X117153533Y-119876443D01*
X116997011Y-119792779D01*
X116997009Y-119792778D01*
X116961271Y-119763448D01*
X116859814Y-119680186D01*
X116776552Y-119578729D01*
X116747222Y-119542991D01*
X116737652Y-119525087D01*
X116663557Y-119386467D01*
X116646384Y-119329853D01*
X116612037Y-119216627D01*
X116594641Y-119040000D01*
X116612037Y-118863373D01*
X116663557Y-118693534D01*
X116663557Y-118693533D01*
X116747221Y-118537011D01*
X116747222Y-118537009D01*
X116776552Y-118501271D01*
X116859814Y-118399814D01*
X116961271Y-118316552D01*
X116997009Y-118287222D01*
X117014913Y-118277652D01*
X117153533Y-118203557D01*
X117210147Y-118186384D01*
X117323373Y-118152037D01*
X117389558Y-118145518D01*
X117455740Y-118139000D01*
X117544260Y-118139000D01*
X117610442Y-118145518D01*
X117610442Y-118145518D01*
G37*
G36*
X147610442Y-118145518D02*
X147676627Y-118152037D01*
X147789853Y-118186384D01*
X147846467Y-118203557D01*
X147985087Y-118277652D01*
X148002991Y-118287222D01*
X148038729Y-118316552D01*
X148140186Y-118399814D01*
X148223448Y-118501271D01*
X148252778Y-118537009D01*
X148252779Y-118537011D01*
X148336443Y-118693533D01*
X148336443Y-118693534D01*
X148387963Y-118863373D01*
X148405359Y-119040000D01*
X148387963Y-119216627D01*
X148353616Y-119329853D01*
X148336443Y-119386467D01*
X148262348Y-119525087D01*
X148252778Y-119542991D01*
X148223448Y-119578729D01*
X148140186Y-119680186D01*
X148038729Y-119763448D01*
X148002991Y-119792778D01*
X148002989Y-119792779D01*
X147846467Y-119876443D01*
X147789853Y-119893616D01*
X147676627Y-119927963D01*
X147610442Y-119934482D01*
X147544260Y-119941000D01*
X147455740Y-119941000D01*
X147389558Y-119934482D01*
X147323373Y-119927963D01*
X147210147Y-119893616D01*
X147153533Y-119876443D01*
X146997011Y-119792779D01*
X146997009Y-119792778D01*
X146961271Y-119763448D01*
X146859814Y-119680186D01*
X146776552Y-119578729D01*
X146747222Y-119542991D01*
X146737652Y-119525087D01*
X146663557Y-119386467D01*
X146646384Y-119329853D01*
X146612037Y-119216627D01*
X146594641Y-119040000D01*
X146612037Y-118863373D01*
X146663557Y-118693534D01*
X146663557Y-118693533D01*
X146747221Y-118537011D01*
X146747222Y-118537009D01*
X146776552Y-118501271D01*
X146859814Y-118399814D01*
X146961271Y-118316552D01*
X146997009Y-118287222D01*
X147014913Y-118277652D01*
X147153533Y-118203557D01*
X147210147Y-118186384D01*
X147323373Y-118152037D01*
X147389558Y-118145518D01*
X147455740Y-118139000D01*
X147544260Y-118139000D01*
X147610442Y-118145518D01*
X147610442Y-118145518D01*
G37*
G36*
X179110442Y-118145518D02*
X179176627Y-118152037D01*
X179289853Y-118186384D01*
X179346467Y-118203557D01*
X179485087Y-118277652D01*
X179502991Y-118287222D01*
X179538729Y-118316552D01*
X179640186Y-118399814D01*
X179723448Y-118501271D01*
X179752778Y-118537009D01*
X179752779Y-118537011D01*
X179836443Y-118693533D01*
X179836443Y-118693534D01*
X179887963Y-118863373D01*
X179905359Y-119040000D01*
X179887963Y-119216627D01*
X179853616Y-119329853D01*
X179836443Y-119386467D01*
X179762348Y-119525087D01*
X179752778Y-119542991D01*
X179723448Y-119578729D01*
X179640186Y-119680186D01*
X179538729Y-119763448D01*
X179502991Y-119792778D01*
X179502989Y-119792779D01*
X179346467Y-119876443D01*
X179289853Y-119893616D01*
X179176627Y-119927963D01*
X179110442Y-119934482D01*
X179044260Y-119941000D01*
X178955740Y-119941000D01*
X178889558Y-119934482D01*
X178823373Y-119927963D01*
X178710147Y-119893616D01*
X178653533Y-119876443D01*
X178497011Y-119792779D01*
X178497009Y-119792778D01*
X178461271Y-119763448D01*
X178359814Y-119680186D01*
X178276552Y-119578729D01*
X178247222Y-119542991D01*
X178237652Y-119525087D01*
X178163557Y-119386467D01*
X178146384Y-119329853D01*
X178112037Y-119216627D01*
X178094641Y-119040000D01*
X178112037Y-118863373D01*
X178163557Y-118693534D01*
X178163557Y-118693533D01*
X178247221Y-118537011D01*
X178247222Y-118537009D01*
X178276552Y-118501271D01*
X178359814Y-118399814D01*
X178461271Y-118316552D01*
X178497009Y-118287222D01*
X178514913Y-118277652D01*
X178653533Y-118203557D01*
X178710147Y-118186384D01*
X178823373Y-118152037D01*
X178889558Y-118145518D01*
X178955740Y-118139000D01*
X179044260Y-118139000D01*
X179110442Y-118145518D01*
X179110442Y-118145518D01*
G37*
G36*
X148401000Y-117401000D02*
X146599000Y-117401000D01*
X146599000Y-115599000D01*
X148401000Y-115599000D01*
X148401000Y-117401000D01*
X148401000Y-117401000D01*
G37*
G36*
X179901000Y-117401000D02*
X178099000Y-117401000D01*
X178099000Y-115599000D01*
X179901000Y-115599000D01*
X179901000Y-117401000D01*
X179901000Y-117401000D01*
G37*
G36*
X118401000Y-117401000D02*
X116599000Y-117401000D01*
X116599000Y-115599000D01*
X118401000Y-115599000D01*
X118401000Y-117401000D01*
X118401000Y-117401000D01*
G37*
G36*
X133277396Y-113125546D02*
X133450466Y-113197234D01*
X133606230Y-113301312D01*
X133738688Y-113433770D01*
X133842766Y-113589534D01*
X133914454Y-113762604D01*
X133951000Y-113946333D01*
X133951000Y-114133667D01*
X133914454Y-114317396D01*
X133842766Y-114490466D01*
X133738688Y-114646230D01*
X133606230Y-114778688D01*
X133450466Y-114882766D01*
X133277396Y-114954454D01*
X133093667Y-114991000D01*
X132906333Y-114991000D01*
X132722604Y-114954454D01*
X132549534Y-114882766D01*
X132393770Y-114778688D01*
X132261312Y-114646230D01*
X132157234Y-114490466D01*
X132085546Y-114317396D01*
X132049000Y-114133667D01*
X132049000Y-113946333D01*
X132085546Y-113762604D01*
X132157234Y-113589534D01*
X132261312Y-113433770D01*
X132393770Y-113301312D01*
X132549534Y-113197234D01*
X132722604Y-113125546D01*
X132906333Y-113089000D01*
X133093667Y-113089000D01*
X133277396Y-113125546D01*
X133277396Y-113125546D01*
G37*
G36*
X102777396Y-113125546D02*
X102950466Y-113197234D01*
X103106230Y-113301312D01*
X103238688Y-113433770D01*
X103342766Y-113589534D01*
X103414454Y-113762604D01*
X103451000Y-113946333D01*
X103451000Y-114133667D01*
X103414454Y-114317396D01*
X103342766Y-114490466D01*
X103238688Y-114646230D01*
X103106230Y-114778688D01*
X102950466Y-114882766D01*
X102777396Y-114954454D01*
X102593667Y-114991000D01*
X102406333Y-114991000D01*
X102222604Y-114954454D01*
X102049534Y-114882766D01*
X101893770Y-114778688D01*
X101761312Y-114646230D01*
X101657234Y-114490466D01*
X101585546Y-114317396D01*
X101549000Y-114133667D01*
X101549000Y-113946333D01*
X101585546Y-113762604D01*
X101657234Y-113589534D01*
X101761312Y-113433770D01*
X101893770Y-113301312D01*
X102049534Y-113197234D01*
X102222604Y-113125546D01*
X102406333Y-113089000D01*
X102593667Y-113089000D01*
X102777396Y-113125546D01*
X102777396Y-113125546D01*
G37*
G36*
X191451000Y-114951000D02*
X189549000Y-114951000D01*
X189549000Y-113049000D01*
X191451000Y-113049000D01*
X191451000Y-114951000D01*
X191451000Y-114951000D01*
G37*
G36*
X133951000Y-112451000D02*
X132049000Y-112451000D01*
X132049000Y-110549000D01*
X133951000Y-110549000D01*
X133951000Y-112451000D01*
X133951000Y-112451000D01*
G37*
G36*
X103451000Y-112451000D02*
X101549000Y-112451000D01*
X101549000Y-110549000D01*
X103451000Y-110549000D01*
X103451000Y-112451000D01*
X103451000Y-112451000D01*
G37*
G36*
X190777396Y-110545546D02*
X190950466Y-110617234D01*
X191106230Y-110721312D01*
X191238688Y-110853770D01*
X191342766Y-111009534D01*
X191414454Y-111182604D01*
X191451000Y-111366333D01*
X191451000Y-111553667D01*
X191414454Y-111737396D01*
X191342766Y-111910466D01*
X191238688Y-112066230D01*
X191106230Y-112198688D01*
X190950466Y-112302766D01*
X190777396Y-112374454D01*
X190593667Y-112411000D01*
X190406333Y-112411000D01*
X190222604Y-112374454D01*
X190049534Y-112302766D01*
X189893770Y-112198688D01*
X189761312Y-112066230D01*
X189657234Y-111910466D01*
X189585546Y-111737396D01*
X189549000Y-111553667D01*
X189549000Y-111366333D01*
X189585546Y-111182604D01*
X189657234Y-111009534D01*
X189761312Y-110853770D01*
X189893770Y-110721312D01*
X190049534Y-110617234D01*
X190222604Y-110545546D01*
X190406333Y-110509000D01*
X190593667Y-110509000D01*
X190777396Y-110545546D01*
X190777396Y-110545546D01*
G37*
G36*
X174248228Y-107181703D02*
X174403100Y-107245853D01*
X174542481Y-107338985D01*
X174661015Y-107457519D01*
X174754147Y-107596900D01*
X174818297Y-107751772D01*
X174851000Y-107916184D01*
X174851000Y-108083816D01*
X174818297Y-108248228D01*
X174754147Y-108403100D01*
X174661015Y-108542481D01*
X174542481Y-108661015D01*
X174403100Y-108754147D01*
X174248228Y-108818297D01*
X174083816Y-108851000D01*
X173916184Y-108851000D01*
X173751772Y-108818297D01*
X173596900Y-108754147D01*
X173457519Y-108661015D01*
X173338985Y-108542481D01*
X173245853Y-108403100D01*
X173181703Y-108248228D01*
X173149000Y-108083816D01*
X173149000Y-107916184D01*
X173181703Y-107751772D01*
X173245853Y-107596900D01*
X173338985Y-107457519D01*
X173457519Y-107338985D01*
X173596900Y-107245853D01*
X173751772Y-107181703D01*
X173916184Y-107149000D01*
X174083816Y-107149000D01*
X174248228Y-107181703D01*
X174248228Y-107181703D01*
G37*
G36*
X109506821Y-107161313D02*
X109506824Y-107161314D01*
X109506825Y-107161314D01*
X109667239Y-107209975D01*
X109667241Y-107209976D01*
X109667244Y-107209977D01*
X109815078Y-107288995D01*
X109944659Y-107395341D01*
X110051005Y-107524922D01*
X110130023Y-107672756D01*
X110130024Y-107672759D01*
X110130025Y-107672761D01*
X110178686Y-107833175D01*
X110178687Y-107833179D01*
X110195117Y-108000000D01*
X110178687Y-108166821D01*
X110178686Y-108166824D01*
X110178686Y-108166825D01*
X110153993Y-108248228D01*
X110130023Y-108327244D01*
X110051005Y-108475078D01*
X109944659Y-108604659D01*
X109815078Y-108711005D01*
X109667244Y-108790023D01*
X109667241Y-108790024D01*
X109667239Y-108790025D01*
X109506825Y-108838686D01*
X109506824Y-108838686D01*
X109506821Y-108838687D01*
X109381804Y-108851000D01*
X109298196Y-108851000D01*
X109173179Y-108838687D01*
X109173176Y-108838686D01*
X109173175Y-108838686D01*
X109012761Y-108790025D01*
X109012759Y-108790024D01*
X109012756Y-108790023D01*
X108864922Y-108711005D01*
X108735341Y-108604659D01*
X108628995Y-108475078D01*
X108549977Y-108327244D01*
X108526008Y-108248228D01*
X108501314Y-108166825D01*
X108501314Y-108166824D01*
X108501313Y-108166821D01*
X108484883Y-108000000D01*
X108501313Y-107833179D01*
X108501314Y-107833175D01*
X108549975Y-107672761D01*
X108549976Y-107672759D01*
X108549977Y-107672756D01*
X108628995Y-107524922D01*
X108735341Y-107395341D01*
X108864922Y-107288995D01*
X109012756Y-107209977D01*
X109012759Y-107209976D01*
X109012761Y-107209975D01*
X109173175Y-107161314D01*
X109173176Y-107161314D01*
X109173179Y-107161313D01*
X109298196Y-107149000D01*
X109381804Y-107149000D01*
X109506821Y-107161313D01*
X109506821Y-107161313D01*
G37*
G36*
X119748228Y-107181703D02*
X119903100Y-107245853D01*
X120042481Y-107338985D01*
X120161015Y-107457519D01*
X120254147Y-107596900D01*
X120318297Y-107751772D01*
X120351000Y-107916184D01*
X120351000Y-108083816D01*
X120318297Y-108248228D01*
X120254147Y-108403100D01*
X120161015Y-108542481D01*
X120042481Y-108661015D01*
X119903100Y-108754147D01*
X119748228Y-108818297D01*
X119583816Y-108851000D01*
X119416184Y-108851000D01*
X119251772Y-108818297D01*
X119096900Y-108754147D01*
X118957519Y-108661015D01*
X118838985Y-108542481D01*
X118745853Y-108403100D01*
X118681703Y-108248228D01*
X118649000Y-108083816D01*
X118649000Y-107916184D01*
X118681703Y-107751772D01*
X118745853Y-107596900D01*
X118838985Y-107457519D01*
X118957519Y-107338985D01*
X119096900Y-107245853D01*
X119251772Y-107181703D01*
X119416184Y-107149000D01*
X119583816Y-107149000D01*
X119748228Y-107181703D01*
X119748228Y-107181703D01*
G37*
G36*
X139506821Y-107161313D02*
X139506824Y-107161314D01*
X139506825Y-107161314D01*
X139667239Y-107209975D01*
X139667241Y-107209976D01*
X139667244Y-107209977D01*
X139815078Y-107288995D01*
X139944659Y-107395341D01*
X140051005Y-107524922D01*
X140130023Y-107672756D01*
X140130024Y-107672759D01*
X140130025Y-107672761D01*
X140178686Y-107833175D01*
X140178687Y-107833179D01*
X140195117Y-108000000D01*
X140178687Y-108166821D01*
X140178686Y-108166824D01*
X140178686Y-108166825D01*
X140153993Y-108248228D01*
X140130023Y-108327244D01*
X140051005Y-108475078D01*
X139944659Y-108604659D01*
X139815078Y-108711005D01*
X139667244Y-108790023D01*
X139667241Y-108790024D01*
X139667239Y-108790025D01*
X139506825Y-108838686D01*
X139506824Y-108838686D01*
X139506821Y-108838687D01*
X139381804Y-108851000D01*
X139298196Y-108851000D01*
X139173179Y-108838687D01*
X139173176Y-108838686D01*
X139173175Y-108838686D01*
X139012761Y-108790025D01*
X139012759Y-108790024D01*
X139012756Y-108790023D01*
X138864922Y-108711005D01*
X138735341Y-108604659D01*
X138628995Y-108475078D01*
X138549977Y-108327244D01*
X138526008Y-108248228D01*
X138501314Y-108166825D01*
X138501314Y-108166824D01*
X138501313Y-108166821D01*
X138484883Y-108000000D01*
X138501313Y-107833179D01*
X138501314Y-107833175D01*
X138549975Y-107672761D01*
X138549976Y-107672759D01*
X138549977Y-107672756D01*
X138628995Y-107524922D01*
X138735341Y-107395341D01*
X138864922Y-107288995D01*
X139012756Y-107209977D01*
X139012759Y-107209976D01*
X139012761Y-107209975D01*
X139173175Y-107161314D01*
X139173176Y-107161314D01*
X139173179Y-107161313D01*
X139298196Y-107149000D01*
X139381804Y-107149000D01*
X139506821Y-107161313D01*
X139506821Y-107161313D01*
G37*
G36*
X149748228Y-107181703D02*
X149903100Y-107245853D01*
X150042481Y-107338985D01*
X150161015Y-107457519D01*
X150254147Y-107596900D01*
X150318297Y-107751772D01*
X150351000Y-107916184D01*
X150351000Y-108083816D01*
X150318297Y-108248228D01*
X150254147Y-108403100D01*
X150161015Y-108542481D01*
X150042481Y-108661015D01*
X149903100Y-108754147D01*
X149748228Y-108818297D01*
X149583816Y-108851000D01*
X149416184Y-108851000D01*
X149251772Y-108818297D01*
X149096900Y-108754147D01*
X148957519Y-108661015D01*
X148838985Y-108542481D01*
X148745853Y-108403100D01*
X148681703Y-108248228D01*
X148649000Y-108083816D01*
X148649000Y-107916184D01*
X148681703Y-107751772D01*
X148745853Y-107596900D01*
X148838985Y-107457519D01*
X148957519Y-107338985D01*
X149096900Y-107245853D01*
X149251772Y-107181703D01*
X149416184Y-107149000D01*
X149583816Y-107149000D01*
X149748228Y-107181703D01*
X149748228Y-107181703D01*
G37*
G36*
X184326821Y-107161313D02*
X184326824Y-107161314D01*
X184326825Y-107161314D01*
X184487239Y-107209975D01*
X184487241Y-107209976D01*
X184487244Y-107209977D01*
X184635078Y-107288995D01*
X184764659Y-107395341D01*
X184871005Y-107524922D01*
X184950023Y-107672756D01*
X184950024Y-107672759D01*
X184950025Y-107672761D01*
X184998686Y-107833175D01*
X184998687Y-107833179D01*
X185015117Y-108000000D01*
X184998687Y-108166821D01*
X184998686Y-108166824D01*
X184998686Y-108166825D01*
X184973993Y-108248228D01*
X184950023Y-108327244D01*
X184871005Y-108475078D01*
X184764659Y-108604659D01*
X184635078Y-108711005D01*
X184487244Y-108790023D01*
X184487241Y-108790024D01*
X184487239Y-108790025D01*
X184326825Y-108838686D01*
X184326824Y-108838686D01*
X184326821Y-108838687D01*
X184201804Y-108851000D01*
X184118196Y-108851000D01*
X183993179Y-108838687D01*
X183993176Y-108838686D01*
X183993175Y-108838686D01*
X183832761Y-108790025D01*
X183832759Y-108790024D01*
X183832756Y-108790023D01*
X183684922Y-108711005D01*
X183555341Y-108604659D01*
X183448995Y-108475078D01*
X183369977Y-108327244D01*
X183346008Y-108248228D01*
X183321314Y-108166825D01*
X183321314Y-108166824D01*
X183321313Y-108166821D01*
X183304883Y-108000000D01*
X183321313Y-107833179D01*
X183321314Y-107833175D01*
X183369975Y-107672761D01*
X183369976Y-107672759D01*
X183369977Y-107672756D01*
X183448995Y-107524922D01*
X183555341Y-107395341D01*
X183684922Y-107288995D01*
X183832756Y-107209977D01*
X183832759Y-107209976D01*
X183832761Y-107209975D01*
X183993175Y-107161314D01*
X183993176Y-107161314D01*
X183993179Y-107161313D01*
X184118196Y-107149000D01*
X184201804Y-107149000D01*
X184326821Y-107161313D01*
X184326821Y-107161313D01*
G37*
G36*
X134248228Y-104681703D02*
X134403100Y-104745853D01*
X134542481Y-104838985D01*
X134661015Y-104957519D01*
X134754147Y-105096900D01*
X134818297Y-105251772D01*
X134851000Y-105416184D01*
X134851000Y-105583816D01*
X134818297Y-105748228D01*
X134754147Y-105903100D01*
X134661015Y-106042481D01*
X134542481Y-106161015D01*
X134403100Y-106254147D01*
X134248228Y-106318297D01*
X134083816Y-106351000D01*
X133916184Y-106351000D01*
X133751772Y-106318297D01*
X133596900Y-106254147D01*
X133457519Y-106161015D01*
X133338985Y-106042481D01*
X133245853Y-105903100D01*
X133181703Y-105748228D01*
X133149000Y-105583816D01*
X133149000Y-105416184D01*
X133181703Y-105251772D01*
X133245853Y-105096900D01*
X133338985Y-104957519D01*
X133457519Y-104838985D01*
X133596900Y-104745853D01*
X133751772Y-104681703D01*
X133916184Y-104649000D01*
X134083816Y-104649000D01*
X134248228Y-104681703D01*
X134248228Y-104681703D01*
G37*
G36*
X167248228Y-104681703D02*
X167403100Y-104745853D01*
X167542481Y-104838985D01*
X167661015Y-104957519D01*
X167754147Y-105096900D01*
X167818297Y-105251772D01*
X167851000Y-105416184D01*
X167851000Y-105583816D01*
X167818297Y-105748228D01*
X167754147Y-105903100D01*
X167661015Y-106042481D01*
X167542481Y-106161015D01*
X167403100Y-106254147D01*
X167248228Y-106318297D01*
X167083816Y-106351000D01*
X166916184Y-106351000D01*
X166751772Y-106318297D01*
X166596900Y-106254147D01*
X166457519Y-106161015D01*
X166338985Y-106042481D01*
X166245853Y-105903100D01*
X166181703Y-105748228D01*
X166149000Y-105583816D01*
X166149000Y-105416184D01*
X166181703Y-105251772D01*
X166245853Y-105096900D01*
X166338985Y-104957519D01*
X166457519Y-104838985D01*
X166596900Y-104745853D01*
X166751772Y-104681703D01*
X166916184Y-104649000D01*
X167083816Y-104649000D01*
X167248228Y-104681703D01*
X167248228Y-104681703D01*
G37*
G36*
X102748228Y-104681703D02*
X102903100Y-104745853D01*
X103042481Y-104838985D01*
X103161015Y-104957519D01*
X103254147Y-105096900D01*
X103318297Y-105251772D01*
X103351000Y-105416184D01*
X103351000Y-105583816D01*
X103318297Y-105748228D01*
X103254147Y-105903100D01*
X103161015Y-106042481D01*
X103042481Y-106161015D01*
X102903100Y-106254147D01*
X102748228Y-106318297D01*
X102583816Y-106351000D01*
X102416184Y-106351000D01*
X102251772Y-106318297D01*
X102096900Y-106254147D01*
X101957519Y-106161015D01*
X101838985Y-106042481D01*
X101745853Y-105903100D01*
X101681703Y-105748228D01*
X101649000Y-105583816D01*
X101649000Y-105416184D01*
X101681703Y-105251772D01*
X101745853Y-105096900D01*
X101838985Y-104957519D01*
X101957519Y-104838985D01*
X102096900Y-104745853D01*
X102251772Y-104681703D01*
X102416184Y-104649000D01*
X102583816Y-104649000D01*
X102748228Y-104681703D01*
X102748228Y-104681703D01*
G37*
G36*
X156748228Y-104681703D02*
X156903100Y-104745853D01*
X157042481Y-104838985D01*
X157161015Y-104957519D01*
X157254147Y-105096900D01*
X157318297Y-105251772D01*
X157351000Y-105416184D01*
X157351000Y-105583816D01*
X157318297Y-105748228D01*
X157254147Y-105903100D01*
X157161015Y-106042481D01*
X157042481Y-106161015D01*
X156903100Y-106254147D01*
X156748228Y-106318297D01*
X156583816Y-106351000D01*
X156416184Y-106351000D01*
X156251772Y-106318297D01*
X156096900Y-106254147D01*
X155957519Y-106161015D01*
X155838985Y-106042481D01*
X155745853Y-105903100D01*
X155681703Y-105748228D01*
X155649000Y-105583816D01*
X155649000Y-105416184D01*
X155681703Y-105251772D01*
X155745853Y-105096900D01*
X155838985Y-104957519D01*
X155957519Y-104838985D01*
X156096900Y-104745853D01*
X156251772Y-104681703D01*
X156416184Y-104649000D01*
X156583816Y-104649000D01*
X156748228Y-104681703D01*
X156748228Y-104681703D01*
G37*
G36*
X125248228Y-104681703D02*
X125403100Y-104745853D01*
X125542481Y-104838985D01*
X125661015Y-104957519D01*
X125754147Y-105096900D01*
X125818297Y-105251772D01*
X125851000Y-105416184D01*
X125851000Y-105583816D01*
X125818297Y-105748228D01*
X125754147Y-105903100D01*
X125661015Y-106042481D01*
X125542481Y-106161015D01*
X125403100Y-106254147D01*
X125248228Y-106318297D01*
X125083816Y-106351000D01*
X124916184Y-106351000D01*
X124751772Y-106318297D01*
X124596900Y-106254147D01*
X124457519Y-106161015D01*
X124338985Y-106042481D01*
X124245853Y-105903100D01*
X124181703Y-105748228D01*
X124149000Y-105583816D01*
X124149000Y-105416184D01*
X124181703Y-105251772D01*
X124245853Y-105096900D01*
X124338985Y-104957519D01*
X124457519Y-104838985D01*
X124596900Y-104745853D01*
X124751772Y-104681703D01*
X124916184Y-104649000D01*
X125083816Y-104649000D01*
X125248228Y-104681703D01*
X125248228Y-104681703D01*
G37*
G36*
X188851000Y-103851000D02*
X187149000Y-103851000D01*
X187149000Y-102149000D01*
X188851000Y-102149000D01*
X188851000Y-103851000D01*
X188851000Y-103851000D01*
G37*
G36*
X193248228Y-102181703D02*
X193403100Y-102245853D01*
X193542481Y-102338985D01*
X193661015Y-102457519D01*
X193754147Y-102596900D01*
X193818297Y-102751772D01*
X193851000Y-102916184D01*
X193851000Y-103083816D01*
X193818297Y-103248228D01*
X193754147Y-103403100D01*
X193661015Y-103542481D01*
X193542481Y-103661015D01*
X193403100Y-103754147D01*
X193248228Y-103818297D01*
X193083816Y-103851000D01*
X192916184Y-103851000D01*
X192751772Y-103818297D01*
X192596900Y-103754147D01*
X192457519Y-103661015D01*
X192338985Y-103542481D01*
X192245853Y-103403100D01*
X192181703Y-103248228D01*
X192149000Y-103083816D01*
X192149000Y-102916184D01*
X192181703Y-102751772D01*
X192245853Y-102596900D01*
X192338985Y-102457519D01*
X192457519Y-102338985D01*
X192596900Y-102245853D01*
X192751772Y-102181703D01*
X192916184Y-102149000D01*
X193083816Y-102149000D01*
X193248228Y-102181703D01*
X193248228Y-102181703D01*
G37*
G36*
X144736719Y-99463520D02*
X144925880Y-99520901D01*
X145100212Y-99614083D01*
X145253015Y-99739485D01*
X145378417Y-99892288D01*
X145471599Y-100066619D01*
X145528980Y-100255780D01*
X145543500Y-100403206D01*
X145543500Y-100596793D01*
X145528980Y-100744219D01*
X145471599Y-100933380D01*
X145378417Y-101107712D01*
X145253015Y-101260515D01*
X145100212Y-101385917D01*
X144925881Y-101479099D01*
X144736720Y-101536480D01*
X144540000Y-101555855D01*
X144343281Y-101536480D01*
X144154120Y-101479099D01*
X143979788Y-101385917D01*
X143826985Y-101260515D01*
X143701583Y-101107712D01*
X143608401Y-100933381D01*
X143551020Y-100744220D01*
X143536500Y-100596794D01*
X143536500Y-100403207D01*
X143551020Y-100255781D01*
X143608401Y-100066620D01*
X143701583Y-99892288D01*
X143826985Y-99739485D01*
X143979788Y-99614083D01*
X144154119Y-99520901D01*
X144343280Y-99463520D01*
X144540000Y-99444145D01*
X144736719Y-99463520D01*
X144736719Y-99463520D01*
G37*
G36*
X181776719Y-99463520D02*
X181965880Y-99520901D01*
X182140212Y-99614083D01*
X182293015Y-99739485D01*
X182418417Y-99892288D01*
X182511599Y-100066619D01*
X182568980Y-100255780D01*
X182583500Y-100403206D01*
X182583500Y-100596793D01*
X182568980Y-100744219D01*
X182511599Y-100933380D01*
X182418417Y-101107712D01*
X182293015Y-101260515D01*
X182140212Y-101385917D01*
X181965881Y-101479099D01*
X181776720Y-101536480D01*
X181580000Y-101555855D01*
X181383281Y-101536480D01*
X181194120Y-101479099D01*
X181019788Y-101385917D01*
X180866985Y-101260515D01*
X180741583Y-101107712D01*
X180648401Y-100933381D01*
X180591020Y-100744220D01*
X180576500Y-100596794D01*
X180576500Y-100403207D01*
X180591020Y-100255781D01*
X180648401Y-100066620D01*
X180741583Y-99892288D01*
X180866985Y-99739485D01*
X181019788Y-99614083D01*
X181194119Y-99520901D01*
X181383280Y-99463520D01*
X181580000Y-99444145D01*
X181776719Y-99463520D01*
X181776719Y-99463520D01*
G37*
G36*
X179236719Y-99463520D02*
X179425880Y-99520901D01*
X179600212Y-99614083D01*
X179753015Y-99739485D01*
X179878417Y-99892288D01*
X179971599Y-100066619D01*
X180028980Y-100255780D01*
X180043500Y-100403206D01*
X180043500Y-100596793D01*
X180028980Y-100744219D01*
X179971599Y-100933380D01*
X179878417Y-101107712D01*
X179753015Y-101260515D01*
X179600212Y-101385917D01*
X179425881Y-101479099D01*
X179236720Y-101536480D01*
X179040000Y-101555855D01*
X178843281Y-101536480D01*
X178654120Y-101479099D01*
X178479788Y-101385917D01*
X178326985Y-101260515D01*
X178201583Y-101107712D01*
X178108401Y-100933381D01*
X178051020Y-100744220D01*
X178036500Y-100596794D01*
X178036500Y-100403207D01*
X178051020Y-100255781D01*
X178108401Y-100066620D01*
X178201583Y-99892288D01*
X178326985Y-99739485D01*
X178479788Y-99614083D01*
X178654119Y-99520901D01*
X178843280Y-99463520D01*
X179040000Y-99444145D01*
X179236719Y-99463520D01*
X179236719Y-99463520D01*
G37*
G36*
X117276719Y-99463520D02*
X117465880Y-99520901D01*
X117640212Y-99614083D01*
X117793015Y-99739485D01*
X117918417Y-99892288D01*
X118011599Y-100066619D01*
X118068980Y-100255780D01*
X118083500Y-100403206D01*
X118083500Y-100596793D01*
X118068980Y-100744219D01*
X118011599Y-100933380D01*
X117918417Y-101107712D01*
X117793015Y-101260515D01*
X117640212Y-101385917D01*
X117465881Y-101479099D01*
X117276720Y-101536480D01*
X117080000Y-101555855D01*
X116883281Y-101536480D01*
X116694120Y-101479099D01*
X116519788Y-101385917D01*
X116366985Y-101260515D01*
X116241583Y-101107712D01*
X116148401Y-100933381D01*
X116091020Y-100744220D01*
X116076500Y-100596794D01*
X116076500Y-100403207D01*
X116091020Y-100255781D01*
X116148401Y-100066620D01*
X116241583Y-99892288D01*
X116366985Y-99739485D01*
X116519788Y-99614083D01*
X116694119Y-99520901D01*
X116883280Y-99463520D01*
X117080000Y-99444145D01*
X117276719Y-99463520D01*
X117276719Y-99463520D01*
G37*
G36*
X114736719Y-99463520D02*
X114925880Y-99520901D01*
X115100212Y-99614083D01*
X115253015Y-99739485D01*
X115378417Y-99892288D01*
X115471599Y-100066619D01*
X115528980Y-100255780D01*
X115543500Y-100403206D01*
X115543500Y-100596793D01*
X115528980Y-100744219D01*
X115471599Y-100933380D01*
X115378417Y-101107712D01*
X115253015Y-101260515D01*
X115100212Y-101385917D01*
X114925881Y-101479099D01*
X114736720Y-101536480D01*
X114540000Y-101555855D01*
X114343281Y-101536480D01*
X114154120Y-101479099D01*
X113979788Y-101385917D01*
X113826985Y-101260515D01*
X113701583Y-101107712D01*
X113608401Y-100933381D01*
X113551020Y-100744220D01*
X113536500Y-100596794D01*
X113536500Y-100403207D01*
X113551020Y-100255781D01*
X113608401Y-100066620D01*
X113701583Y-99892288D01*
X113826985Y-99739485D01*
X113979788Y-99614083D01*
X114154119Y-99520901D01*
X114343280Y-99463520D01*
X114540000Y-99444145D01*
X114736719Y-99463520D01*
X114736719Y-99463520D01*
G37*
G36*
X147276719Y-99463520D02*
X147465880Y-99520901D01*
X147640212Y-99614083D01*
X147793015Y-99739485D01*
X147918417Y-99892288D01*
X148011599Y-100066619D01*
X148068980Y-100255780D01*
X148083500Y-100403206D01*
X148083500Y-100596793D01*
X148068980Y-100744219D01*
X148011599Y-100933380D01*
X147918417Y-101107712D01*
X147793015Y-101260515D01*
X147640212Y-101385917D01*
X147465881Y-101479099D01*
X147276720Y-101536480D01*
X147080000Y-101555855D01*
X146883281Y-101536480D01*
X146694120Y-101479099D01*
X146519788Y-101385917D01*
X146366985Y-101260515D01*
X146241583Y-101107712D01*
X146148401Y-100933381D01*
X146091020Y-100744220D01*
X146076500Y-100596794D01*
X146076500Y-100403207D01*
X146091020Y-100255781D01*
X146148401Y-100066620D01*
X146241583Y-99892288D01*
X146366985Y-99739485D01*
X146519788Y-99614083D01*
X146694119Y-99520901D01*
X146883280Y-99463520D01*
X147080000Y-99444145D01*
X147276719Y-99463520D01*
X147276719Y-99463520D01*
G37*
G36*
X177503500Y-101551000D02*
X175496500Y-101551000D01*
X175496500Y-99449000D01*
X177503500Y-99449000D01*
X177503500Y-101551000D01*
X177503500Y-101551000D01*
G37*
G36*
X143003500Y-101551000D02*
X140996500Y-101551000D01*
X140996500Y-99449000D01*
X143003500Y-99449000D01*
X143003500Y-101551000D01*
X143003500Y-101551000D01*
G37*
G36*
X113003500Y-101551000D02*
X110996500Y-101551000D01*
X110996500Y-99449000D01*
X113003500Y-99449000D01*
X113003500Y-101551000D01*
X113003500Y-101551000D01*
G37*
G36*
X103351000Y-101351000D02*
X101649000Y-101351000D01*
X101649000Y-99649000D01*
X103351000Y-99649000D01*
X103351000Y-101351000D01*
X103351000Y-101351000D01*
G37*
G36*
X167851000Y-101351000D02*
X166149000Y-101351000D01*
X166149000Y-99649000D01*
X167851000Y-99649000D01*
X167851000Y-101351000D01*
X167851000Y-101351000D01*
G37*
G36*
X157351000Y-101351000D02*
X155649000Y-101351000D01*
X155649000Y-99649000D01*
X157351000Y-99649000D01*
X157351000Y-101351000D01*
X157351000Y-101351000D01*
G37*
G36*
X134851000Y-101351000D02*
X133149000Y-101351000D01*
X133149000Y-99649000D01*
X134851000Y-99649000D01*
X134851000Y-101351000D01*
X134851000Y-101351000D01*
G37*
G36*
X125851000Y-101351000D02*
X124149000Y-101351000D01*
X124149000Y-99649000D01*
X125851000Y-99649000D01*
X125851000Y-101351000D01*
X125851000Y-101351000D01*
G37*
G36*
X164666821Y-94821313D02*
X164666824Y-94821314D01*
X164666825Y-94821314D01*
X164827239Y-94869975D01*
X164827241Y-94869976D01*
X164827244Y-94869977D01*
X164975078Y-94948995D01*
X165104659Y-95055341D01*
X165211005Y-95184922D01*
X165290023Y-95332756D01*
X165338687Y-95493179D01*
X165355117Y-95660000D01*
X165338687Y-95826821D01*
X165290023Y-95987244D01*
X165211005Y-96135078D01*
X165104659Y-96264659D01*
X164975078Y-96371005D01*
X164827244Y-96450023D01*
X164827241Y-96450024D01*
X164827239Y-96450025D01*
X164666825Y-96498686D01*
X164666824Y-96498686D01*
X164666821Y-96498687D01*
X164541804Y-96511000D01*
X164458196Y-96511000D01*
X164333179Y-96498687D01*
X164333176Y-96498686D01*
X164333175Y-96498686D01*
X164172761Y-96450025D01*
X164172759Y-96450024D01*
X164172756Y-96450023D01*
X164024922Y-96371005D01*
X163895341Y-96264659D01*
X163788995Y-96135078D01*
X163709977Y-95987244D01*
X163661313Y-95826821D01*
X163644883Y-95660000D01*
X163661313Y-95493179D01*
X163709977Y-95332756D01*
X163788995Y-95184922D01*
X163895341Y-95055341D01*
X164024922Y-94948995D01*
X164172756Y-94869977D01*
X164172759Y-94869976D01*
X164172761Y-94869975D01*
X164333175Y-94821314D01*
X164333176Y-94821314D01*
X164333179Y-94821313D01*
X164458196Y-94809000D01*
X164541804Y-94809000D01*
X164666821Y-94821313D01*
X164666821Y-94821313D01*
G37*
G36*
X169666821Y-94821313D02*
X169666824Y-94821314D01*
X169666825Y-94821314D01*
X169827239Y-94869975D01*
X169827241Y-94869976D01*
X169827244Y-94869977D01*
X169975078Y-94948995D01*
X170104659Y-95055341D01*
X170211005Y-95184922D01*
X170290023Y-95332756D01*
X170338687Y-95493179D01*
X170355117Y-95660000D01*
X170338687Y-95826821D01*
X170290023Y-95987244D01*
X170211005Y-96135078D01*
X170104659Y-96264659D01*
X169975078Y-96371005D01*
X169827244Y-96450023D01*
X169827241Y-96450024D01*
X169827239Y-96450025D01*
X169666825Y-96498686D01*
X169666824Y-96498686D01*
X169666821Y-96498687D01*
X169541804Y-96511000D01*
X169458196Y-96511000D01*
X169333179Y-96498687D01*
X169333176Y-96498686D01*
X169333175Y-96498686D01*
X169172761Y-96450025D01*
X169172759Y-96450024D01*
X169172756Y-96450023D01*
X169024922Y-96371005D01*
X168895341Y-96264659D01*
X168788995Y-96135078D01*
X168709977Y-95987244D01*
X168661313Y-95826821D01*
X168644883Y-95660000D01*
X168661313Y-95493179D01*
X168709977Y-95332756D01*
X168788995Y-95184922D01*
X168895341Y-95055341D01*
X169024922Y-94948995D01*
X169172756Y-94869977D01*
X169172759Y-94869976D01*
X169172761Y-94869975D01*
X169333175Y-94821314D01*
X169333176Y-94821314D01*
X169333179Y-94821313D01*
X169458196Y-94809000D01*
X169541804Y-94809000D01*
X169666821Y-94821313D01*
X169666821Y-94821313D01*
G37*
G36*
X159666821Y-94821313D02*
X159666824Y-94821314D01*
X159666825Y-94821314D01*
X159827239Y-94869975D01*
X159827241Y-94869976D01*
X159827244Y-94869977D01*
X159975078Y-94948995D01*
X160104659Y-95055341D01*
X160211005Y-95184922D01*
X160290023Y-95332756D01*
X160338687Y-95493179D01*
X160355117Y-95660000D01*
X160338687Y-95826821D01*
X160290023Y-95987244D01*
X160211005Y-96135078D01*
X160104659Y-96264659D01*
X159975078Y-96371005D01*
X159827244Y-96450023D01*
X159827241Y-96450024D01*
X159827239Y-96450025D01*
X159666825Y-96498686D01*
X159666824Y-96498686D01*
X159666821Y-96498687D01*
X159541804Y-96511000D01*
X159458196Y-96511000D01*
X159333179Y-96498687D01*
X159333176Y-96498686D01*
X159333175Y-96498686D01*
X159172761Y-96450025D01*
X159172759Y-96450024D01*
X159172756Y-96450023D01*
X159024922Y-96371005D01*
X158895341Y-96264659D01*
X158788995Y-96135078D01*
X158709977Y-95987244D01*
X158661313Y-95826821D01*
X158644883Y-95660000D01*
X158661313Y-95493179D01*
X158709977Y-95332756D01*
X158788995Y-95184922D01*
X158895341Y-95055341D01*
X159024922Y-94948995D01*
X159172756Y-94869977D01*
X159172759Y-94869976D01*
X159172761Y-94869975D01*
X159333175Y-94821314D01*
X159333176Y-94821314D01*
X159333179Y-94821313D01*
X159458196Y-94809000D01*
X159541804Y-94809000D01*
X159666821Y-94821313D01*
X159666821Y-94821313D01*
G37*
G36*
X159748228Y-84681703D02*
X159903100Y-84745853D01*
X160042481Y-84838985D01*
X160161015Y-84957519D01*
X160254147Y-85096900D01*
X160318297Y-85251772D01*
X160351000Y-85416184D01*
X160351000Y-85583816D01*
X160318297Y-85748228D01*
X160254147Y-85903100D01*
X160161015Y-86042481D01*
X160042481Y-86161015D01*
X159903100Y-86254147D01*
X159748228Y-86318297D01*
X159583816Y-86351000D01*
X159416184Y-86351000D01*
X159251772Y-86318297D01*
X159096900Y-86254147D01*
X158957519Y-86161015D01*
X158838985Y-86042481D01*
X158745853Y-85903100D01*
X158681703Y-85748228D01*
X158649000Y-85583816D01*
X158649000Y-85416184D01*
X158681703Y-85251772D01*
X158745853Y-85096900D01*
X158838985Y-84957519D01*
X158957519Y-84838985D01*
X159096900Y-84745853D01*
X159251772Y-84681703D01*
X159416184Y-84649000D01*
X159583816Y-84649000D01*
X159748228Y-84681703D01*
X159748228Y-84681703D01*
G37*
G36*
X164748228Y-84681703D02*
X164903100Y-84745853D01*
X165042481Y-84838985D01*
X165161015Y-84957519D01*
X165254147Y-85096900D01*
X165318297Y-85251772D01*
X165351000Y-85416184D01*
X165351000Y-85583816D01*
X165318297Y-85748228D01*
X165254147Y-85903100D01*
X165161015Y-86042481D01*
X165042481Y-86161015D01*
X164903100Y-86254147D01*
X164748228Y-86318297D01*
X164583816Y-86351000D01*
X164416184Y-86351000D01*
X164251772Y-86318297D01*
X164096900Y-86254147D01*
X163957519Y-86161015D01*
X163838985Y-86042481D01*
X163745853Y-85903100D01*
X163681703Y-85748228D01*
X163649000Y-85583816D01*
X163649000Y-85416184D01*
X163681703Y-85251772D01*
X163745853Y-85096900D01*
X163838985Y-84957519D01*
X163957519Y-84838985D01*
X164096900Y-84745853D01*
X164251772Y-84681703D01*
X164416184Y-84649000D01*
X164583816Y-84649000D01*
X164748228Y-84681703D01*
X164748228Y-84681703D01*
G37*
G36*
X169748228Y-84681703D02*
X169903100Y-84745853D01*
X170042481Y-84838985D01*
X170161015Y-84957519D01*
X170254147Y-85096900D01*
X170318297Y-85251772D01*
X170351000Y-85416184D01*
X170351000Y-85583816D01*
X170318297Y-85748228D01*
X170254147Y-85903100D01*
X170161015Y-86042481D01*
X170042481Y-86161015D01*
X169903100Y-86254147D01*
X169748228Y-86318297D01*
X169583816Y-86351000D01*
X169416184Y-86351000D01*
X169251772Y-86318297D01*
X169096900Y-86254147D01*
X168957519Y-86161015D01*
X168838985Y-86042481D01*
X168745853Y-85903100D01*
X168681703Y-85748228D01*
X168649000Y-85583816D01*
X168649000Y-85416184D01*
X168681703Y-85251772D01*
X168745853Y-85096900D01*
X168838985Y-84957519D01*
X168957519Y-84838985D01*
X169096900Y-84745853D01*
X169251772Y-84681703D01*
X169416184Y-84649000D01*
X169583816Y-84649000D01*
X169748228Y-84681703D01*
X169748228Y-84681703D01*
G37*
G36*
X114716669Y-82047686D02*
X114893058Y-82065059D01*
X115119385Y-82133714D01*
X115232549Y-82168042D01*
X115545425Y-82335279D01*
X115819661Y-82560339D01*
X116044721Y-82834575D01*
X116211958Y-83147451D01*
X116211958Y-83147452D01*
X116314941Y-83486942D01*
X116349714Y-83840000D01*
X116314941Y-84193058D01*
X116246286Y-84419385D01*
X116211958Y-84532549D01*
X116044721Y-84845425D01*
X115819661Y-85119661D01*
X115545425Y-85344721D01*
X115232549Y-85511958D01*
X115119385Y-85546286D01*
X114893058Y-85614941D01*
X114716669Y-85632314D01*
X114628476Y-85641000D01*
X114451524Y-85641000D01*
X114363331Y-85632314D01*
X114186942Y-85614941D01*
X113960615Y-85546286D01*
X113847451Y-85511958D01*
X113534575Y-85344721D01*
X113260339Y-85119661D01*
X113035279Y-84845425D01*
X112868042Y-84532549D01*
X112833714Y-84419385D01*
X112765059Y-84193058D01*
X112730286Y-83840000D01*
X112765059Y-83486942D01*
X112868042Y-83147452D01*
X112868042Y-83147451D01*
X113035279Y-82834575D01*
X113260339Y-82560339D01*
X113534575Y-82335279D01*
X113847451Y-82168042D01*
X113960615Y-82133714D01*
X114186942Y-82065059D01*
X114363331Y-82047686D01*
X114451524Y-82039000D01*
X114628476Y-82039000D01*
X114716669Y-82047686D01*
X114716669Y-82047686D01*
G37*
G36*
X144716669Y-82047686D02*
X144893058Y-82065059D01*
X145119385Y-82133714D01*
X145232549Y-82168042D01*
X145545425Y-82335279D01*
X145819661Y-82560339D01*
X146044721Y-82834575D01*
X146211958Y-83147451D01*
X146211958Y-83147452D01*
X146314941Y-83486942D01*
X146349714Y-83840000D01*
X146314941Y-84193058D01*
X146246286Y-84419385D01*
X146211958Y-84532549D01*
X146044721Y-84845425D01*
X145819661Y-85119661D01*
X145545425Y-85344721D01*
X145232549Y-85511958D01*
X145119385Y-85546286D01*
X144893058Y-85614941D01*
X144716669Y-85632314D01*
X144628476Y-85641000D01*
X144451524Y-85641000D01*
X144363331Y-85632314D01*
X144186942Y-85614941D01*
X143960615Y-85546286D01*
X143847451Y-85511958D01*
X143534575Y-85344721D01*
X143260339Y-85119661D01*
X143035279Y-84845425D01*
X142868042Y-84532549D01*
X142833714Y-84419385D01*
X142765059Y-84193058D01*
X142730286Y-83840000D01*
X142765059Y-83486942D01*
X142868042Y-83147452D01*
X142868042Y-83147451D01*
X143035279Y-82834575D01*
X143260339Y-82560339D01*
X143534575Y-82335279D01*
X143847451Y-82168042D01*
X143960615Y-82133714D01*
X144186942Y-82065059D01*
X144363331Y-82047686D01*
X144451524Y-82039000D01*
X144628476Y-82039000D01*
X144716669Y-82047686D01*
X144716669Y-82047686D01*
G37*
G36*
X179216669Y-82047686D02*
X179393058Y-82065059D01*
X179619385Y-82133714D01*
X179732549Y-82168042D01*
X180045425Y-82335279D01*
X180319661Y-82560339D01*
X180544721Y-82834575D01*
X180711958Y-83147451D01*
X180711958Y-83147452D01*
X180814941Y-83486942D01*
X180849714Y-83840000D01*
X180814941Y-84193058D01*
X180746286Y-84419385D01*
X180711958Y-84532549D01*
X180544721Y-84845425D01*
X180319661Y-85119661D01*
X180045425Y-85344721D01*
X179732549Y-85511958D01*
X179619385Y-85546286D01*
X179393058Y-85614941D01*
X179216669Y-85632314D01*
X179128476Y-85641000D01*
X178951524Y-85641000D01*
X178863331Y-85632314D01*
X178686942Y-85614941D01*
X178460615Y-85546286D01*
X178347451Y-85511958D01*
X178034575Y-85344721D01*
X177760339Y-85119661D01*
X177535279Y-84845425D01*
X177368042Y-84532549D01*
X177333714Y-84419385D01*
X177265059Y-84193058D01*
X177230286Y-83840000D01*
X177265059Y-83486942D01*
X177368042Y-83147452D01*
X177368042Y-83147451D01*
X177535279Y-82834575D01*
X177760339Y-82560339D01*
X178034575Y-82335279D01*
X178347451Y-82168042D01*
X178460615Y-82133714D01*
X178686942Y-82065059D01*
X178863331Y-82047686D01*
X178951524Y-82039000D01*
X179128476Y-82039000D01*
X179216669Y-82047686D01*
X179216669Y-82047686D01*
G37*
G36*
X165698252Y-68027818D02*
X165698254Y-68027819D01*
X165698255Y-68027819D01*
X166071513Y-68182427D01*
X166071514Y-68182428D01*
X166407439Y-68406886D01*
X166693114Y-68692561D01*
X166693116Y-68692564D01*
X166917573Y-69028487D01*
X167072181Y-69401745D01*
X167072182Y-69401748D01*
X167151000Y-69797993D01*
X167151000Y-70202006D01*
X167072181Y-70598255D01*
X166917573Y-70971513D01*
X166917572Y-70971514D01*
X166693114Y-71307439D01*
X166407439Y-71593114D01*
X166407436Y-71593116D01*
X166071513Y-71817573D01*
X165698255Y-71972181D01*
X165698254Y-71972181D01*
X165698252Y-71972182D01*
X165302007Y-72051000D01*
X164897993Y-72051000D01*
X164501748Y-71972182D01*
X164501746Y-71972181D01*
X164501745Y-71972181D01*
X164128487Y-71817573D01*
X163792564Y-71593116D01*
X163792561Y-71593114D01*
X163506886Y-71307439D01*
X163282428Y-70971514D01*
X163282427Y-70971513D01*
X163127819Y-70598255D01*
X163049000Y-70202006D01*
X163049000Y-69797993D01*
X163127818Y-69401748D01*
X163127819Y-69401745D01*
X163282427Y-69028487D01*
X163506884Y-68692564D01*
X163506886Y-68692561D01*
X163792561Y-68406886D01*
X164128486Y-68182428D01*
X164128487Y-68182427D01*
X164501745Y-68027819D01*
X164501746Y-68027819D01*
X164501748Y-68027818D01*
X164897993Y-67949000D01*
X165302007Y-67949000D01*
X165698252Y-68027818D01*
X165698252Y-68027818D01*
G37*
G36*
X174498252Y-68027818D02*
X174498254Y-68027819D01*
X174498255Y-68027819D01*
X174871513Y-68182427D01*
X174871514Y-68182428D01*
X175207439Y-68406886D01*
X175493114Y-68692561D01*
X175493116Y-68692564D01*
X175717573Y-69028487D01*
X175872181Y-69401745D01*
X175872182Y-69401748D01*
X175951000Y-69797993D01*
X175951000Y-70202006D01*
X175872181Y-70598255D01*
X175717573Y-70971513D01*
X175717572Y-70971514D01*
X175493114Y-71307439D01*
X175207439Y-71593114D01*
X175207436Y-71593116D01*
X174871513Y-71817573D01*
X174498255Y-71972181D01*
X174498254Y-71972181D01*
X174498252Y-71972182D01*
X174102007Y-72051000D01*
X173697993Y-72051000D01*
X173301748Y-71972182D01*
X173301746Y-71972181D01*
X173301745Y-71972181D01*
X172928487Y-71817573D01*
X172592564Y-71593116D01*
X172592561Y-71593114D01*
X172306886Y-71307439D01*
X172082428Y-70971514D01*
X172082427Y-70971513D01*
X171927819Y-70598255D01*
X171849000Y-70202006D01*
X171849000Y-69797993D01*
X171927818Y-69401748D01*
X171927819Y-69401745D01*
X172082427Y-69028487D01*
X172306884Y-68692564D01*
X172306886Y-68692561D01*
X172592561Y-68406886D01*
X172928486Y-68182428D01*
X172928487Y-68182427D01*
X173301745Y-68027819D01*
X173301746Y-68027819D01*
X173301748Y-68027818D01*
X173697993Y-67949000D01*
X174102007Y-67949000D01*
X174498252Y-68027818D01*
X174498252Y-68027818D01*
G37*
G36*
X117052325Y-58234389D02*
X118332794Y-58764777D01*
X118332796Y-58764778D01*
X119469855Y-59524537D01*
X119485191Y-59534784D01*
X120465216Y-60514809D01*
X121235223Y-61667206D01*
X121765611Y-62947675D01*
X122036000Y-64307013D01*
X122036000Y-65692987D01*
X121765611Y-67052325D01*
X121235223Y-68332794D01*
X121235222Y-68332796D01*
X120770377Y-69028486D01*
X120465216Y-69485191D01*
X119485191Y-70465216D01*
X119485188Y-70465218D01*
X118332796Y-71235222D01*
X118332795Y-71235223D01*
X118332794Y-71235223D01*
X117052325Y-71765611D01*
X115692987Y-72036000D01*
X114307013Y-72036000D01*
X112947675Y-71765611D01*
X111667206Y-71235223D01*
X111667205Y-71235223D01*
X111667204Y-71235222D01*
X110514812Y-70465218D01*
X110514809Y-70465216D01*
X109534784Y-69485191D01*
X109229623Y-69028486D01*
X108764778Y-68332796D01*
X108764777Y-68332794D01*
X108234389Y-67052325D01*
X107964000Y-65692987D01*
X107964000Y-64307013D01*
X108234389Y-62947675D01*
X108764777Y-61667206D01*
X109534784Y-60514809D01*
X110514809Y-59534784D01*
X110530145Y-59524537D01*
X111667204Y-58764778D01*
X111667206Y-58764777D01*
X112947675Y-58234389D01*
X114307013Y-57964000D01*
X115692987Y-57964000D01*
X117052325Y-58234389D01*
X117052325Y-58234389D01*
G37*
G36*
X147022325Y-58234389D02*
X148302794Y-58764777D01*
X148302796Y-58764778D01*
X149439855Y-59524537D01*
X149455191Y-59534784D01*
X150435216Y-60514809D01*
X151205223Y-61667206D01*
X151735611Y-62947675D01*
X152006000Y-64307013D01*
X152006000Y-65692987D01*
X151735611Y-67052325D01*
X151205223Y-68332794D01*
X151205222Y-68332796D01*
X150740377Y-69028486D01*
X150435216Y-69485191D01*
X149455191Y-70465216D01*
X149455188Y-70465218D01*
X148302796Y-71235222D01*
X148302795Y-71235223D01*
X148302794Y-71235223D01*
X147022325Y-71765611D01*
X145662987Y-72036000D01*
X144277013Y-72036000D01*
X142917675Y-71765611D01*
X141637206Y-71235223D01*
X141637205Y-71235223D01*
X141637204Y-71235222D01*
X140484812Y-70465218D01*
X140484809Y-70465216D01*
X139504784Y-69485191D01*
X139199623Y-69028486D01*
X138734778Y-68332796D01*
X138734777Y-68332794D01*
X138204389Y-67052325D01*
X137934000Y-65692987D01*
X137934000Y-64307013D01*
X138204389Y-62947675D01*
X138734777Y-61667206D01*
X139504784Y-60514809D01*
X140484809Y-59534784D01*
X140500145Y-59524537D01*
X141637204Y-58764778D01*
X141637206Y-58764777D01*
X142917675Y-58234389D01*
X144277013Y-57964000D01*
X145662987Y-57964000D01*
X147022325Y-58234389D01*
X147022325Y-58234389D01*
G37*
G36*
X172277396Y-62085546D02*
X172450466Y-62157234D01*
X172606230Y-62261312D01*
X172738688Y-62393770D01*
X172842766Y-62549534D01*
X172914454Y-62722604D01*
X172951000Y-62906333D01*
X172951000Y-63093667D01*
X172914454Y-63277396D01*
X172842766Y-63450466D01*
X172738688Y-63606230D01*
X172606230Y-63738688D01*
X172450466Y-63842766D01*
X172277396Y-63914454D01*
X172093667Y-63951000D01*
X171906333Y-63951000D01*
X171722604Y-63914454D01*
X171549534Y-63842766D01*
X171393770Y-63738688D01*
X171261312Y-63606230D01*
X171157234Y-63450466D01*
X171085546Y-63277396D01*
X171049000Y-63093667D01*
X171049000Y-62906333D01*
X171085546Y-62722604D01*
X171157234Y-62549534D01*
X171261312Y-62393770D01*
X171393770Y-62261312D01*
X171549534Y-62157234D01*
X171722604Y-62085546D01*
X171906333Y-62049000D01*
X172093667Y-62049000D01*
X172277396Y-62085546D01*
X172277396Y-62085546D01*
G37*
G36*
X169777396Y-62085546D02*
X169950466Y-62157234D01*
X170106230Y-62261312D01*
X170238688Y-62393770D01*
X170342766Y-62549534D01*
X170414454Y-62722604D01*
X170451000Y-62906333D01*
X170451000Y-63093667D01*
X170414454Y-63277396D01*
X170342766Y-63450466D01*
X170238688Y-63606230D01*
X170106230Y-63738688D01*
X169950466Y-63842766D01*
X169777396Y-63914454D01*
X169593667Y-63951000D01*
X169406333Y-63951000D01*
X169222604Y-63914454D01*
X169049534Y-63842766D01*
X168893770Y-63738688D01*
X168761312Y-63606230D01*
X168657234Y-63450466D01*
X168585546Y-63277396D01*
X168549000Y-63093667D01*
X168549000Y-62906333D01*
X168585546Y-62722604D01*
X168657234Y-62549534D01*
X168761312Y-62393770D01*
X168893770Y-62261312D01*
X169049534Y-62157234D01*
X169222604Y-62085546D01*
X169406333Y-62049000D01*
X169593667Y-62049000D01*
X169777396Y-62085546D01*
X169777396Y-62085546D01*
G37*
G36*
X167277396Y-62085546D02*
X167450466Y-62157234D01*
X167606230Y-62261312D01*
X167738688Y-62393770D01*
X167842766Y-62549534D01*
X167914454Y-62722604D01*
X167951000Y-62906333D01*
X167951000Y-63093667D01*
X167914454Y-63277396D01*
X167842766Y-63450466D01*
X167738688Y-63606230D01*
X167606230Y-63738688D01*
X167450466Y-63842766D01*
X167277396Y-63914454D01*
X167093667Y-63951000D01*
X166906333Y-63951000D01*
X166722604Y-63914454D01*
X166549534Y-63842766D01*
X166393770Y-63738688D01*
X166261312Y-63606230D01*
X166157234Y-63450466D01*
X166085546Y-63277396D01*
X166049000Y-63093667D01*
X166049000Y-62906333D01*
X166085546Y-62722604D01*
X166157234Y-62549534D01*
X166261312Y-62393770D01*
X166393770Y-62261312D01*
X166549534Y-62157234D01*
X166722604Y-62085546D01*
X166906333Y-62049000D01*
X167093667Y-62049000D01*
X167277396Y-62085546D01*
X167277396Y-62085546D01*
G37*
M02*
