%TF.GenerationSoftware,KiCad,Pcbnew,(5.0.2)-1*%
%TF.CreationDate,2020-07-27T22:04:26-06:00*%
%TF.ProjectId,power_interface,706f7765-725f-4696-9e74-657266616365,rev?*%
%TF.SameCoordinates,Original*%
%TF.FileFunction,Copper,L1,Top*%
%TF.FilePolarity,Positive*%
%FSLAX46Y46*%
G04 Gerber Fmt 4.6, Leading zero omitted, Abs format (unit mm)*
G04 Created by KiCad (PCBNEW (5.0.2)-1) date 7/27/2020 10:04:26 PM*
%MOMM*%
%LPD*%
G01*
G04 APERTURE LIST*
%ADD10C,0.020000*%
%ADD11C,0.200000*%
%ADD12C,1.800000*%
%ADD13C,4.000000*%
%ADD14C,1.600000*%
%ADD15R,1.600000X1.600000*%
%ADD16R,1.800000X1.800000*%
%ADD17O,1.700000X1.700000*%
%ADD18C,13.970000*%
%ADD19R,1.700000X1.700000*%
%ADD20O,1.600000X1.600000*%
%ADD21C,2.800000*%
%ADD22R,1.905000X2.000000*%
%ADD23O,1.905000X2.000000*%
%ADD24C,2.540000*%
%ADD25C,1.270000*%
%ADD26C,1.905000*%
%ADD27C,0.508000*%
G04 APERTURE END LIST*
D10*
X193000028Y-59000000D02*
G75*
G03X193000028Y-59000000I-3500014J0D01*
G01*
X106500014Y-59000000D02*
G75*
G03X106500014Y-59000000I-3500014J0D01*
G01*
D11*
X196000000Y-53000000D02*
X196000000Y-147000000D01*
X97000000Y-53000000D02*
X196000000Y-53000000D01*
X97000000Y-147000000D02*
X97000000Y-53000000D01*
X196000000Y-147000000D02*
X97000000Y-147000000D01*
D10*
X112020000Y-136760000D02*
G75*
G03X112020000Y-136760000I-3250000J0D01*
G01*
X185720000Y-136760000D02*
G75*
G03X185720000Y-136760000I-3250000J0D01*
G01*
D12*
X172000000Y-63000000D03*
X169500000Y-63000000D03*
X167000000Y-63000000D03*
D13*
X173900000Y-70000000D03*
X165100000Y-70000000D03*
D14*
X156500000Y-105500000D03*
D15*
X156500000Y-100500000D03*
D14*
X125000000Y-105500000D03*
D15*
X125000000Y-100500000D03*
D14*
X193000000Y-103000000D03*
D15*
X188000000Y-103000000D03*
X134000000Y-100500000D03*
D14*
X134000000Y-105500000D03*
D15*
X102500000Y-100500000D03*
D14*
X102500000Y-105500000D03*
D15*
X167000000Y-100500000D03*
D14*
X167000000Y-105500000D03*
D16*
X133000000Y-111500000D03*
D12*
X133000000Y-114040000D03*
X102500000Y-114040000D03*
D16*
X102500000Y-111500000D03*
X190500000Y-114000000D03*
D12*
X190500000Y-111460000D03*
D17*
X121920000Y-139700000D03*
X152400000Y-139700000D03*
X147320000Y-139700000D03*
X144780000Y-139700000D03*
X170180000Y-139700000D03*
X170180000Y-137160000D03*
X144780000Y-137160000D03*
X147320000Y-137160000D03*
X149860000Y-137160000D03*
X152400000Y-137160000D03*
X149860000Y-139700000D03*
X167640000Y-144780000D03*
X165100000Y-144780000D03*
X157480000Y-144780000D03*
X154940000Y-144780000D03*
X147320000Y-142240000D03*
X119380000Y-139700000D03*
X149860000Y-142240000D03*
X114300000Y-144780000D03*
X114300000Y-142240000D03*
X114300000Y-139700000D03*
X114300000Y-137160000D03*
X177800000Y-144780000D03*
X177800000Y-142240000D03*
X177800000Y-139700000D03*
X177800000Y-137160000D03*
D18*
X115000000Y-65000000D03*
X144970000Y-65000000D03*
D19*
X147500000Y-116500000D03*
D17*
X147500000Y-119040000D03*
X117500000Y-119040000D03*
D19*
X117500000Y-116500000D03*
X179000000Y-116500000D03*
D17*
X179000000Y-119040000D03*
D14*
X159500000Y-85500000D03*
D20*
X159500000Y-95660000D03*
D14*
X164500000Y-85500000D03*
D20*
X164500000Y-95660000D03*
X169500000Y-95660000D03*
D14*
X169500000Y-85500000D03*
D20*
X139340000Y-108000000D03*
D14*
X149500000Y-108000000D03*
X119500000Y-108000000D03*
D20*
X109340000Y-108000000D03*
X184160000Y-108000000D03*
D14*
X174000000Y-108000000D03*
D21*
X170000000Y-127500000D03*
X110000000Y-127500000D03*
X147500000Y-127500000D03*
X117500000Y-127500000D03*
X185000000Y-127500000D03*
X125000000Y-127500000D03*
X140000000Y-127500000D03*
X133000000Y-127500000D03*
X155000000Y-127500000D03*
X162500000Y-127500000D03*
X177500000Y-127500000D03*
D22*
X142000000Y-100500000D03*
D23*
X144540000Y-100500000D03*
X147080000Y-100500000D03*
D22*
X112000000Y-100500000D03*
D23*
X114540000Y-100500000D03*
X117080000Y-100500000D03*
X181580000Y-100500000D03*
X179040000Y-100500000D03*
D22*
X176500000Y-100500000D03*
D24*
X147080000Y-100452500D02*
X147080000Y-100500000D01*
D25*
X117080000Y-100500000D02*
X117080000Y-100547500D01*
X147080000Y-100420000D02*
X147080000Y-100500000D01*
X181580000Y-100500000D02*
X181580000Y-100452500D01*
X148970000Y-61000000D02*
X144970000Y-65000000D01*
D26*
X190500000Y-100500000D02*
X193000000Y-103000000D01*
X181580000Y-100500000D02*
X190500000Y-100500000D01*
X151954999Y-58015001D02*
X144970000Y-65000000D01*
X177015001Y-58015001D02*
X151954999Y-58015001D01*
X187500000Y-68500000D02*
X177015001Y-58015001D01*
X187500000Y-94500000D02*
X187500000Y-68500000D01*
X181580000Y-100500000D02*
X181580000Y-100420000D01*
X181580000Y-100420000D02*
X187500000Y-94500000D01*
X117080000Y-92890000D02*
X117080000Y-100500000D01*
X144970000Y-65000000D02*
X117080000Y-92890000D01*
X151000000Y-96500000D02*
X147080000Y-100420000D01*
X151000000Y-71000000D02*
X151000000Y-96500000D01*
X144970000Y-65000000D02*
X145000000Y-65000000D01*
X145000000Y-65000000D02*
X151000000Y-71000000D01*
D27*
X147080000Y-100547500D02*
X147080000Y-100500000D01*
X152032500Y-105500000D02*
X147080000Y-100547500D01*
X156500000Y-105500000D02*
X152032500Y-105500000D01*
X123868630Y-105500000D02*
X125000000Y-105500000D01*
X120572000Y-105500000D02*
X123868630Y-105500000D01*
X117080000Y-102008000D02*
X120572000Y-105500000D01*
X117080000Y-100500000D02*
X117080000Y-102008000D01*
D26*
X144540000Y-113540000D02*
X147500000Y-116500000D01*
D27*
X149500000Y-108000000D02*
X144540000Y-108000000D01*
D26*
X144540000Y-108000000D02*
X144540000Y-113540000D01*
D27*
X134000000Y-105500000D02*
X144540000Y-105500000D01*
D26*
X144540000Y-100500000D02*
X144540000Y-105500000D01*
X144540000Y-105500000D02*
X144540000Y-108000000D01*
X114540000Y-113540000D02*
X117500000Y-116500000D01*
D27*
X119500000Y-108000000D02*
X114540000Y-108000000D01*
D26*
X114540000Y-108000000D02*
X114540000Y-113540000D01*
D27*
X102500000Y-105500000D02*
X114540000Y-105500000D01*
D26*
X114540000Y-100500000D02*
X114540000Y-105500000D01*
X114540000Y-105500000D02*
X114540000Y-108000000D01*
X179040000Y-116460000D02*
X179000000Y-116500000D01*
D27*
X174000000Y-108000000D02*
X179040000Y-108000000D01*
D26*
X179040000Y-100500000D02*
X179040000Y-108000000D01*
X179040000Y-108000000D02*
X179040000Y-116460000D01*
D27*
X169500000Y-108000000D02*
X167000000Y-105500000D01*
X174000000Y-108000000D02*
X169500000Y-108000000D01*
X169500000Y-103000000D02*
X167000000Y-105500000D01*
X169500000Y-95660000D02*
X169500000Y-103000000D01*
X139340000Y-108000000D02*
X139340000Y-110660000D01*
X135960000Y-114040000D02*
X133000000Y-114040000D01*
X139340000Y-110660000D02*
X135960000Y-114040000D01*
X103300000Y-114040000D02*
X102500000Y-114040000D01*
X109340000Y-108000000D02*
X103300000Y-114040000D01*
X187040000Y-108000000D02*
X190500000Y-111460000D01*
X184160000Y-108000000D02*
X187040000Y-108000000D01*
D25*
X110000000Y-127780000D02*
X110000000Y-127500000D01*
X121920000Y-139700000D02*
X110000000Y-127780000D01*
D26*
X147500000Y-119040000D02*
X147500000Y-127500000D01*
X147500000Y-136980000D02*
X147320000Y-137160000D01*
X147500000Y-127500000D02*
X147500000Y-136980000D01*
X147320000Y-137160000D02*
X147320000Y-139700000D01*
X117500000Y-119040000D02*
X117500000Y-127500000D01*
X117500000Y-127500000D02*
X127160000Y-137160000D01*
X127160000Y-137160000D02*
X144780000Y-137160000D01*
X129700000Y-139700000D02*
X144780000Y-139700000D01*
X127160000Y-137160000D02*
X129700000Y-139700000D01*
X179000000Y-121500000D02*
X185000000Y-127500000D01*
X179000000Y-119040000D02*
X179000000Y-121500000D01*
X171029999Y-136310001D02*
X170180000Y-137160000D01*
X177287499Y-130052501D02*
X171029999Y-136310001D01*
X182447499Y-130052501D02*
X177287499Y-130052501D01*
X185000000Y-127500000D02*
X182447499Y-130052501D01*
X170180000Y-139700000D02*
X170180000Y-137160000D01*
D25*
X167640000Y-143577919D02*
X167640000Y-144780000D01*
X167640000Y-135380102D02*
X167640000Y-143577919D01*
X175520102Y-127500000D02*
X167640000Y-135380102D01*
X177500000Y-127500000D02*
X175520102Y-127500000D01*
D27*
X165299999Y-84700001D02*
X164500000Y-85500000D01*
X168200000Y-81800000D02*
X165299999Y-84700001D01*
X168200000Y-67800000D02*
X168200000Y-81800000D01*
X167000000Y-66600000D02*
X168200000Y-67800000D01*
X164500000Y-85500000D02*
X159500000Y-85500000D01*
X167000000Y-63000000D02*
X167000000Y-66600000D01*
X169500000Y-63000000D02*
X169500000Y-85500000D01*
X176500000Y-100452500D02*
X173000000Y-96952500D01*
X176500000Y-100500000D02*
X176500000Y-100452500D01*
X173000000Y-89000000D02*
X169500000Y-85500000D01*
X173000000Y-96952500D02*
X173000000Y-89000000D01*
X169500000Y-90660000D02*
X164500000Y-95660000D01*
X169500000Y-85500000D02*
X169500000Y-90660000D01*
M02*
