%TF.GenerationSoftware,KiCad,Pcbnew,(5.0.2)-1*%
%TF.CreationDate,2020-07-27T22:04:26-06:00*%
%TF.ProjectId,power_interface,706f7765-725f-4696-9e74-657266616365,rev?*%
%TF.SameCoordinates,Original*%
%TF.FileFunction,Legend,Top*%
%TF.FilePolarity,Positive*%
%FSLAX46Y46*%
G04 Gerber Fmt 4.6, Leading zero omitted, Abs format (unit mm)*
G04 Created by KiCad (PCBNEW (5.0.2)-1) date 7/27/2020 10:04:26 PM*
%MOMM*%
%LPD*%
G01*
G04 APERTURE LIST*
%ADD10C,0.020000*%
%ADD11C,0.300000*%
%ADD12C,0.200000*%
%ADD13C,0.120000*%
%ADD14C,0.150000*%
G04 APERTURE END LIST*
D10*
X193000028Y-59000000D02*
G75*
G03X193000028Y-59000000I-3500014J0D01*
G01*
X106500014Y-59000000D02*
G75*
G03X106500014Y-59000000I-3500014J0D01*
G01*
D11*
X175714285Y-132107142D02*
X175928571Y-132178571D01*
X176285714Y-132178571D01*
X176428571Y-132107142D01*
X176500000Y-132035714D01*
X176571428Y-131892857D01*
X176571428Y-131750000D01*
X176500000Y-131607142D01*
X176428571Y-131535714D01*
X176285714Y-131464285D01*
X176000000Y-131392857D01*
X175857142Y-131321428D01*
X175785714Y-131250000D01*
X175714285Y-131107142D01*
X175714285Y-130964285D01*
X175785714Y-130821428D01*
X175857142Y-130750000D01*
X176000000Y-130678571D01*
X176357142Y-130678571D01*
X176571428Y-130750000D01*
X178071428Y-132035714D02*
X178000000Y-132107142D01*
X177785714Y-132178571D01*
X177642857Y-132178571D01*
X177428571Y-132107142D01*
X177285714Y-131964285D01*
X177214285Y-131821428D01*
X177142857Y-131535714D01*
X177142857Y-131321428D01*
X177214285Y-131035714D01*
X177285714Y-130892857D01*
X177428571Y-130750000D01*
X177642857Y-130678571D01*
X177785714Y-130678571D01*
X178000000Y-130750000D01*
X178071428Y-130821428D01*
X179428571Y-132178571D02*
X178714285Y-132178571D01*
X178714285Y-130678571D01*
X183964285Y-132178571D02*
X183464285Y-131464285D01*
X183107142Y-132178571D02*
X183107142Y-130678571D01*
X183678571Y-130678571D01*
X183821428Y-130750000D01*
X183892857Y-130821428D01*
X183964285Y-130964285D01*
X183964285Y-131178571D01*
X183892857Y-131321428D01*
X183821428Y-131392857D01*
X183678571Y-131464285D01*
X183107142Y-131464285D01*
X184535714Y-131750000D02*
X185250000Y-131750000D01*
X184392857Y-132178571D02*
X184892857Y-130678571D01*
X185392857Y-132178571D01*
X185750000Y-130678571D02*
X186107142Y-132178571D01*
X186392857Y-131107142D01*
X186678571Y-132178571D01*
X187035714Y-130678571D01*
X168857142Y-130750000D02*
X168714285Y-130678571D01*
X168500000Y-130678571D01*
X168285714Y-130750000D01*
X168142857Y-130892857D01*
X168071428Y-131035714D01*
X168000000Y-131321428D01*
X168000000Y-131535714D01*
X168071428Y-131821428D01*
X168142857Y-131964285D01*
X168285714Y-132107142D01*
X168500000Y-132178571D01*
X168642857Y-132178571D01*
X168857142Y-132107142D01*
X168928571Y-132035714D01*
X168928571Y-131535714D01*
X168642857Y-131535714D01*
X169571428Y-132178571D02*
X169571428Y-130678571D01*
X170428571Y-132178571D01*
X170428571Y-130678571D01*
X171142857Y-132178571D02*
X171142857Y-130678571D01*
X171500000Y-130678571D01*
X171714285Y-130750000D01*
X171857142Y-130892857D01*
X171928571Y-131035714D01*
X172000000Y-131321428D01*
X172000000Y-131535714D01*
X171928571Y-131821428D01*
X171857142Y-131964285D01*
X171714285Y-132107142D01*
X171500000Y-132178571D01*
X171142857Y-132178571D01*
X160678571Y-132107142D02*
X160892857Y-132178571D01*
X161250000Y-132178571D01*
X161392857Y-132107142D01*
X161464285Y-132035714D01*
X161535714Y-131892857D01*
X161535714Y-131750000D01*
X161464285Y-131607142D01*
X161392857Y-131535714D01*
X161250000Y-131464285D01*
X160964285Y-131392857D01*
X160821428Y-131321428D01*
X160750000Y-131250000D01*
X160678571Y-131107142D01*
X160678571Y-130964285D01*
X160750000Y-130821428D01*
X160821428Y-130750000D01*
X160964285Y-130678571D01*
X161321428Y-130678571D01*
X161535714Y-130750000D01*
X162178571Y-132178571D02*
X162178571Y-130678571D01*
X162535714Y-130678571D01*
X162750000Y-130750000D01*
X162892857Y-130892857D01*
X162964285Y-131035714D01*
X163035714Y-131321428D01*
X163035714Y-131535714D01*
X162964285Y-131821428D01*
X162892857Y-131964285D01*
X162750000Y-132107142D01*
X162535714Y-132178571D01*
X162178571Y-132178571D01*
X163607142Y-131750000D02*
X164321428Y-131750000D01*
X163464285Y-132178571D02*
X163964285Y-130678571D01*
X164464285Y-132178571D01*
X145642857Y-130678571D02*
X146571428Y-130678571D01*
X146071428Y-131250000D01*
X146285714Y-131250000D01*
X146428571Y-131321428D01*
X146500000Y-131392857D01*
X146571428Y-131535714D01*
X146571428Y-131892857D01*
X146500000Y-132035714D01*
X146428571Y-132107142D01*
X146285714Y-132178571D01*
X145857142Y-132178571D01*
X145714285Y-132107142D01*
X145642857Y-132035714D01*
X147000000Y-130678571D02*
X147500000Y-132178571D01*
X148000000Y-130678571D01*
X148357142Y-130678571D02*
X149285714Y-130678571D01*
X148785714Y-131250000D01*
X149000000Y-131250000D01*
X149142857Y-131321428D01*
X149214285Y-131392857D01*
X149285714Y-131535714D01*
X149285714Y-131892857D01*
X149214285Y-132035714D01*
X149142857Y-132107142D01*
X149000000Y-132178571D01*
X148571428Y-132178571D01*
X148428571Y-132107142D01*
X148357142Y-132035714D01*
X153857142Y-130678571D02*
X154714285Y-130678571D01*
X154285714Y-132178571D02*
X154285714Y-130678571D01*
X155071428Y-130678571D02*
X156071428Y-132178571D01*
X156071428Y-130678571D02*
X155071428Y-132178571D01*
X139750000Y-132178571D02*
X139250000Y-131464285D01*
X138892857Y-132178571D02*
X138892857Y-130678571D01*
X139464285Y-130678571D01*
X139607142Y-130750000D01*
X139678571Y-130821428D01*
X139750000Y-130964285D01*
X139750000Y-131178571D01*
X139678571Y-131321428D01*
X139607142Y-131392857D01*
X139464285Y-131464285D01*
X138892857Y-131464285D01*
X140250000Y-130678571D02*
X141250000Y-132178571D01*
X141250000Y-130678571D02*
X140250000Y-132178571D01*
X131857142Y-130750000D02*
X131714285Y-130678571D01*
X131500000Y-130678571D01*
X131285714Y-130750000D01*
X131142857Y-130892857D01*
X131071428Y-131035714D01*
X131000000Y-131321428D01*
X131000000Y-131535714D01*
X131071428Y-131821428D01*
X131142857Y-131964285D01*
X131285714Y-132107142D01*
X131500000Y-132178571D01*
X131642857Y-132178571D01*
X131857142Y-132107142D01*
X131928571Y-132035714D01*
X131928571Y-131535714D01*
X131642857Y-131535714D01*
X132571428Y-132178571D02*
X132571428Y-130678571D01*
X133428571Y-132178571D01*
X133428571Y-130678571D01*
X134142857Y-132178571D02*
X134142857Y-130678571D01*
X134500000Y-130678571D01*
X134714285Y-130750000D01*
X134857142Y-130892857D01*
X134928571Y-131035714D01*
X135000000Y-131321428D01*
X135000000Y-131535714D01*
X134928571Y-131821428D01*
X134857142Y-131964285D01*
X134714285Y-132107142D01*
X134500000Y-132178571D01*
X134142857Y-132178571D01*
X122964285Y-130030000D02*
X124464285Y-130030000D01*
X124178571Y-132178571D02*
X123678571Y-131464285D01*
X123321428Y-132178571D02*
X123321428Y-130678571D01*
X123892857Y-130678571D01*
X124035714Y-130750000D01*
X124107142Y-130821428D01*
X124178571Y-130964285D01*
X124178571Y-131178571D01*
X124107142Y-131321428D01*
X124035714Y-131392857D01*
X123892857Y-131464285D01*
X123321428Y-131464285D01*
X124464285Y-130030000D02*
X125892857Y-130030000D01*
X124750000Y-132107142D02*
X124964285Y-132178571D01*
X125321428Y-132178571D01*
X125464285Y-132107142D01*
X125535714Y-132035714D01*
X125607142Y-131892857D01*
X125607142Y-131750000D01*
X125535714Y-131607142D01*
X125464285Y-131535714D01*
X125321428Y-131464285D01*
X125035714Y-131392857D01*
X124892857Y-131321428D01*
X124821428Y-131250000D01*
X124750000Y-131107142D01*
X124750000Y-130964285D01*
X124821428Y-130821428D01*
X124892857Y-130750000D01*
X125035714Y-130678571D01*
X125392857Y-130678571D01*
X125607142Y-130750000D01*
X125892857Y-130030000D02*
X127035714Y-130030000D01*
X126035714Y-130678571D02*
X126892857Y-130678571D01*
X126464285Y-132178571D02*
X126464285Y-130678571D01*
X117214285Y-130178571D02*
X116500000Y-130178571D01*
X116428571Y-130892857D01*
X116500000Y-130821428D01*
X116642857Y-130750000D01*
X117000000Y-130750000D01*
X117142857Y-130821428D01*
X117214285Y-130892857D01*
X117285714Y-131035714D01*
X117285714Y-131392857D01*
X117214285Y-131535714D01*
X117142857Y-131607142D01*
X117000000Y-131678571D01*
X116642857Y-131678571D01*
X116500000Y-131607142D01*
X116428571Y-131535714D01*
X117714285Y-130178571D02*
X118214285Y-131678571D01*
X118714285Y-130178571D01*
X106250000Y-130178571D02*
X106250000Y-131392857D01*
X106321428Y-131535714D01*
X106392857Y-131607142D01*
X106535714Y-131678571D01*
X106821428Y-131678571D01*
X106964285Y-131607142D01*
X107035714Y-131535714D01*
X107107142Y-131392857D01*
X107107142Y-130178571D01*
X107821428Y-131678571D02*
X107821428Y-130178571D01*
X107821428Y-130892857D02*
X108678571Y-130892857D01*
X108678571Y-131678571D02*
X108678571Y-130178571D01*
X109892857Y-130892857D02*
X109392857Y-130892857D01*
X109392857Y-131678571D02*
X109392857Y-130178571D01*
X110107142Y-130178571D01*
X110321428Y-131821428D02*
X111464285Y-131821428D01*
X112392857Y-131607142D02*
X112250000Y-131678571D01*
X111964285Y-131678571D01*
X111821428Y-131607142D01*
X111750000Y-131464285D01*
X111750000Y-130892857D01*
X111821428Y-130750000D01*
X111964285Y-130678571D01*
X112250000Y-130678571D01*
X112392857Y-130750000D01*
X112464285Y-130892857D01*
X112464285Y-131035714D01*
X111750000Y-131178571D01*
X113107142Y-130678571D02*
X113107142Y-131678571D01*
X113107142Y-130821428D02*
X113178571Y-130750000D01*
X113321428Y-130678571D01*
X113535714Y-130678571D01*
X113678571Y-130750000D01*
X113750000Y-130892857D01*
X113750000Y-131678571D01*
D12*
X196000000Y-53000000D02*
X196000000Y-147000000D01*
X97000000Y-53000000D02*
X196000000Y-53000000D01*
X97000000Y-147000000D02*
X97000000Y-53000000D01*
X196000000Y-147000000D02*
X97000000Y-147000000D01*
D10*
X112020000Y-136760000D02*
G75*
G03X112020000Y-136760000I-3250000J0D01*
G01*
X185720000Y-136760000D02*
G75*
G03X185720000Y-136760000I-3250000J0D01*
G01*
D13*
X174521000Y-63880000D02*
X174521000Y-67817000D01*
X174521000Y-72184000D02*
X174521000Y-76120000D01*
X164480000Y-63880000D02*
X164480000Y-67817000D01*
X164480000Y-72184000D02*
X164480000Y-76120000D01*
X174521000Y-63880000D02*
X172871000Y-63880000D01*
X171129000Y-63880000D02*
X170370000Y-63880000D01*
X168629000Y-63880000D02*
X167870000Y-63880000D01*
X166130000Y-63880000D02*
X164480000Y-63880000D01*
X174521000Y-76120000D02*
X164480000Y-76120000D01*
X158225000Y-100445225D02*
X157725000Y-100445225D01*
X157975000Y-100195225D02*
X157975000Y-100695225D01*
X155440000Y-105395997D02*
G75*
G02X155440000Y-100604003I1060000J2395997D01*
G01*
X157560000Y-105395997D02*
G75*
G03X157560000Y-100604003I-1060000J2395997D01*
G01*
X126725000Y-100445225D02*
X126225000Y-100445225D01*
X126475000Y-100195225D02*
X126475000Y-100695225D01*
X123940000Y-105395997D02*
G75*
G02X123940000Y-100604003I1060000J2395997D01*
G01*
X126060000Y-105395997D02*
G75*
G03X126060000Y-100604003I-1060000J2395997D01*
G01*
X187945225Y-101275000D02*
X187945225Y-101775000D01*
X187695225Y-101525000D02*
X188195225Y-101525000D01*
X192895997Y-104060000D02*
G75*
G02X188104003Y-104060000I-2395997J1060000D01*
G01*
X192895997Y-101940000D02*
G75*
G03X188104003Y-101940000I-2395997J-1060000D01*
G01*
X135060000Y-105395997D02*
G75*
G03X135060000Y-100604003I-1060000J2395997D01*
G01*
X132940000Y-105395997D02*
G75*
G02X132940000Y-100604003I1060000J2395997D01*
G01*
X135475000Y-100195225D02*
X135475000Y-100695225D01*
X135725000Y-100445225D02*
X135225000Y-100445225D01*
X103560000Y-105395997D02*
G75*
G03X103560000Y-100604003I-1060000J2395997D01*
G01*
X101440000Y-105395997D02*
G75*
G02X101440000Y-100604003I1060000J2395997D01*
G01*
X103975000Y-100195225D02*
X103975000Y-100695225D01*
X104225000Y-100445225D02*
X103725000Y-100445225D01*
X168060000Y-105395997D02*
G75*
G03X168060000Y-100604003I-1060000J2395997D01*
G01*
X165940000Y-105395997D02*
G75*
G02X165940000Y-100604003I1060000J2395997D01*
G01*
X168475000Y-100195225D02*
X168475000Y-100695225D01*
X168725000Y-100445225D02*
X168225000Y-100445225D01*
X132999538Y-115760000D02*
G75*
G03X134544830Y-110210000I462J2990000D01*
G01*
X133000462Y-115760000D02*
G75*
G02X131455170Y-110210000I-462J2990000D01*
G01*
X135500000Y-112770000D02*
G75*
G03X135500000Y-112770000I-2500000J0D01*
G01*
X134545000Y-110210000D02*
X131455000Y-110210000D01*
X104045000Y-110210000D02*
X100955000Y-110210000D01*
X105000000Y-112770000D02*
G75*
G03X105000000Y-112770000I-2500000J0D01*
G01*
X102500462Y-115760000D02*
G75*
G02X100955170Y-110210000I-462J2990000D01*
G01*
X102499538Y-115760000D02*
G75*
G03X104044830Y-110210000I462J2990000D01*
G01*
X190500462Y-109740000D02*
G75*
G03X188955170Y-115290000I-462J-2990000D01*
G01*
X190499538Y-109740000D02*
G75*
G02X192044830Y-115290000I462J-2990000D01*
G01*
X193000000Y-112730000D02*
G75*
G03X193000000Y-112730000I-2500000J0D01*
G01*
X188955000Y-115290000D02*
X192045000Y-115290000D01*
X115570000Y-138430000D02*
X112970000Y-138430000D01*
X112970000Y-135830000D02*
X179130000Y-135830000D01*
X115570000Y-141030000D02*
X115570000Y-138430000D01*
X112970000Y-138430000D02*
X112970000Y-135830000D01*
X114300000Y-141030000D02*
X112970000Y-141030000D01*
X179130000Y-141030000D02*
X179130000Y-135830000D01*
X112970000Y-141030000D02*
X112970000Y-139700000D01*
X112970000Y-146110000D02*
X112970000Y-144780000D01*
X114300000Y-146110000D02*
X112970000Y-146110000D01*
X112970000Y-143510000D02*
X112970000Y-140910000D01*
X115570000Y-143510000D02*
X112970000Y-143510000D01*
X115570000Y-146110000D02*
X115570000Y-143510000D01*
X115570000Y-146110000D02*
X179130000Y-146110000D01*
X179130000Y-146110000D02*
X179130000Y-140910000D01*
X115000000Y-74652000D02*
X145000000Y-74652000D01*
X145000000Y-55348000D02*
X115000000Y-55348000D01*
X145000000Y-74650000D02*
G75*
G03X145000000Y-55350000I0J9650000D01*
G01*
X115000000Y-55348000D02*
G75*
G03X115000000Y-74652000I0J-9652000D01*
G01*
D14*
X132221200Y-58700800D02*
X131459200Y-58700800D01*
D13*
X146170000Y-120370000D02*
X148830000Y-120370000D01*
X146170000Y-117770000D02*
X146170000Y-120370000D01*
X148830000Y-117770000D02*
X148830000Y-120370000D01*
X146170000Y-117770000D02*
X148830000Y-117770000D01*
X146170000Y-116500000D02*
X146170000Y-115170000D01*
X146170000Y-115170000D02*
X147500000Y-115170000D01*
X116170000Y-115170000D02*
X117500000Y-115170000D01*
X116170000Y-116500000D02*
X116170000Y-115170000D01*
X116170000Y-117770000D02*
X118830000Y-117770000D01*
X118830000Y-117770000D02*
X118830000Y-120370000D01*
X116170000Y-117770000D02*
X116170000Y-120370000D01*
X116170000Y-120370000D02*
X118830000Y-120370000D01*
X177670000Y-120370000D02*
X180330000Y-120370000D01*
X177670000Y-117770000D02*
X177670000Y-120370000D01*
X180330000Y-117770000D02*
X180330000Y-120370000D01*
X177670000Y-117770000D02*
X180330000Y-117770000D01*
X177670000Y-116500000D02*
X177670000Y-115170000D01*
X177670000Y-115170000D02*
X179000000Y-115170000D01*
X160870000Y-87310000D02*
X158130000Y-87310000D01*
X158130000Y-87310000D02*
X158130000Y-93850000D01*
X158130000Y-93850000D02*
X160870000Y-93850000D01*
X160870000Y-93850000D02*
X160870000Y-87310000D01*
X159500000Y-86540000D02*
X159500000Y-87310000D01*
X159500000Y-94620000D02*
X159500000Y-93850000D01*
X165870000Y-87310000D02*
X163130000Y-87310000D01*
X163130000Y-87310000D02*
X163130000Y-93850000D01*
X163130000Y-93850000D02*
X165870000Y-93850000D01*
X165870000Y-93850000D02*
X165870000Y-87310000D01*
X164500000Y-86540000D02*
X164500000Y-87310000D01*
X164500000Y-94620000D02*
X164500000Y-93850000D01*
X169500000Y-94620000D02*
X169500000Y-93850000D01*
X169500000Y-86540000D02*
X169500000Y-87310000D01*
X170870000Y-93850000D02*
X170870000Y-87310000D01*
X168130000Y-93850000D02*
X170870000Y-93850000D01*
X168130000Y-87310000D02*
X168130000Y-93850000D01*
X170870000Y-87310000D02*
X168130000Y-87310000D01*
X140380000Y-108000000D02*
X141150000Y-108000000D01*
X148460000Y-108000000D02*
X147690000Y-108000000D01*
X141150000Y-109370000D02*
X147690000Y-109370000D01*
X141150000Y-106630000D02*
X141150000Y-109370000D01*
X147690000Y-106630000D02*
X141150000Y-106630000D01*
X147690000Y-109370000D02*
X147690000Y-106630000D01*
X117690000Y-109370000D02*
X117690000Y-106630000D01*
X117690000Y-106630000D02*
X111150000Y-106630000D01*
X111150000Y-106630000D02*
X111150000Y-109370000D01*
X111150000Y-109370000D02*
X117690000Y-109370000D01*
X118460000Y-108000000D02*
X117690000Y-108000000D01*
X110380000Y-108000000D02*
X111150000Y-108000000D01*
X183120000Y-108000000D02*
X182350000Y-108000000D01*
X175040000Y-108000000D02*
X175810000Y-108000000D01*
X182350000Y-106630000D02*
X175810000Y-106630000D01*
X182350000Y-109370000D02*
X182350000Y-106630000D01*
X175810000Y-109370000D02*
X182350000Y-109370000D01*
X175810000Y-106630000D02*
X175810000Y-109370000D01*
D14*
X171750000Y-127500000D02*
G75*
G03X171750000Y-127500000I-1750000J0D01*
G01*
X111750000Y-127500000D02*
G75*
G03X111750000Y-127500000I-1750000J0D01*
G01*
X149250000Y-127500000D02*
G75*
G03X149250000Y-127500000I-1750000J0D01*
G01*
X119250000Y-127500000D02*
G75*
G03X119250000Y-127500000I-1750000J0D01*
G01*
X186750000Y-127500000D02*
G75*
G03X186750000Y-127500000I-1750000J0D01*
G01*
X126750000Y-127500000D02*
G75*
G03X126750000Y-127500000I-1750000J0D01*
G01*
X141750000Y-127500000D02*
G75*
G03X141750000Y-127500000I-1750000J0D01*
G01*
X134750000Y-127500000D02*
G75*
G03X134750000Y-127500000I-1750000J0D01*
G01*
X156750000Y-127500000D02*
G75*
G03X156750000Y-127500000I-1750000J0D01*
G01*
X164250000Y-127500000D02*
G75*
G03X164250000Y-127500000I-1750000J0D01*
G01*
X179250000Y-127500000D02*
G75*
G03X179250000Y-127500000I-1750000J0D01*
G01*
D13*
X139420000Y-96810000D02*
X149660000Y-96810000D01*
X139420000Y-80920000D02*
X149660000Y-80920000D01*
X139420000Y-80920000D02*
X139420000Y-96810000D01*
X149660000Y-80920000D02*
X149660000Y-96810000D01*
X142000000Y-96810000D02*
X142000000Y-99350000D01*
X144540000Y-96810000D02*
X144540000Y-99350000D01*
X147080000Y-96810000D02*
X147080000Y-99350000D01*
X109420000Y-96810000D02*
X119660000Y-96810000D01*
X109420000Y-80920000D02*
X119660000Y-80920000D01*
X109420000Y-80920000D02*
X109420000Y-96810000D01*
X119660000Y-80920000D02*
X119660000Y-96810000D01*
X112000000Y-96810000D02*
X112000000Y-99350000D01*
X114540000Y-96810000D02*
X114540000Y-99350000D01*
X117080000Y-96810000D02*
X117080000Y-99350000D01*
X181580000Y-96810000D02*
X181580000Y-99350000D01*
X179040000Y-96810000D02*
X179040000Y-99350000D01*
X176500000Y-96810000D02*
X176500000Y-99350000D01*
X184160000Y-80920000D02*
X184160000Y-96810000D01*
X173920000Y-80920000D02*
X173920000Y-96810000D01*
X173920000Y-80920000D02*
X184160000Y-80920000D01*
X173920000Y-96810000D02*
X184160000Y-96810000D01*
D14*
X168904761Y-61452380D02*
X168571428Y-60976190D01*
X168333333Y-61452380D02*
X168333333Y-60452380D01*
X168714285Y-60452380D01*
X168809523Y-60500000D01*
X168857142Y-60547619D01*
X168904761Y-60642857D01*
X168904761Y-60785714D01*
X168857142Y-60880952D01*
X168809523Y-60928571D01*
X168714285Y-60976190D01*
X168333333Y-60976190D01*
X169190476Y-60452380D02*
X169523809Y-61452380D01*
X169857142Y-60452380D01*
X170714285Y-61452380D02*
X170142857Y-61452380D01*
X170428571Y-61452380D02*
X170428571Y-60452380D01*
X170333333Y-60595238D01*
X170238095Y-60690476D01*
X170142857Y-60738095D01*
X160083333Y-103357142D02*
X160035714Y-103404761D01*
X159892857Y-103452380D01*
X159797619Y-103452380D01*
X159654761Y-103404761D01*
X159559523Y-103309523D01*
X159511904Y-103214285D01*
X159464285Y-103023809D01*
X159464285Y-102880952D01*
X159511904Y-102690476D01*
X159559523Y-102595238D01*
X159654761Y-102500000D01*
X159797619Y-102452380D01*
X159892857Y-102452380D01*
X160035714Y-102500000D01*
X160083333Y-102547619D01*
X161035714Y-103452380D02*
X160464285Y-103452380D01*
X160750000Y-103452380D02*
X160750000Y-102452380D01*
X160654761Y-102595238D01*
X160559523Y-102690476D01*
X160464285Y-102738095D01*
X128583333Y-103357142D02*
X128535714Y-103404761D01*
X128392857Y-103452380D01*
X128297619Y-103452380D01*
X128154761Y-103404761D01*
X128059523Y-103309523D01*
X128011904Y-103214285D01*
X127964285Y-103023809D01*
X127964285Y-102880952D01*
X128011904Y-102690476D01*
X128059523Y-102595238D01*
X128154761Y-102500000D01*
X128297619Y-102452380D01*
X128392857Y-102452380D01*
X128535714Y-102500000D01*
X128583333Y-102547619D01*
X128964285Y-102547619D02*
X129011904Y-102500000D01*
X129107142Y-102452380D01*
X129345238Y-102452380D01*
X129440476Y-102500000D01*
X129488095Y-102547619D01*
X129535714Y-102642857D01*
X129535714Y-102738095D01*
X129488095Y-102880952D01*
X128916666Y-103452380D01*
X129535714Y-103452380D01*
X185833333Y-103357142D02*
X185785714Y-103404761D01*
X185642857Y-103452380D01*
X185547619Y-103452380D01*
X185404761Y-103404761D01*
X185309523Y-103309523D01*
X185261904Y-103214285D01*
X185214285Y-103023809D01*
X185214285Y-102880952D01*
X185261904Y-102690476D01*
X185309523Y-102595238D01*
X185404761Y-102500000D01*
X185547619Y-102452380D01*
X185642857Y-102452380D01*
X185785714Y-102500000D01*
X185833333Y-102547619D01*
X186166666Y-102452380D02*
X186785714Y-102452380D01*
X186452380Y-102833333D01*
X186595238Y-102833333D01*
X186690476Y-102880952D01*
X186738095Y-102928571D01*
X186785714Y-103023809D01*
X186785714Y-103261904D01*
X186738095Y-103357142D01*
X186690476Y-103404761D01*
X186595238Y-103452380D01*
X186309523Y-103452380D01*
X186214285Y-103404761D01*
X186166666Y-103357142D01*
X137583333Y-103357142D02*
X137535714Y-103404761D01*
X137392857Y-103452380D01*
X137297619Y-103452380D01*
X137154761Y-103404761D01*
X137059523Y-103309523D01*
X137011904Y-103214285D01*
X136964285Y-103023809D01*
X136964285Y-102880952D01*
X137011904Y-102690476D01*
X137059523Y-102595238D01*
X137154761Y-102500000D01*
X137297619Y-102452380D01*
X137392857Y-102452380D01*
X137535714Y-102500000D01*
X137583333Y-102547619D01*
X138440476Y-102785714D02*
X138440476Y-103452380D01*
X138202380Y-102404761D02*
X137964285Y-103119047D01*
X138583333Y-103119047D01*
X106083333Y-103357142D02*
X106035714Y-103404761D01*
X105892857Y-103452380D01*
X105797619Y-103452380D01*
X105654761Y-103404761D01*
X105559523Y-103309523D01*
X105511904Y-103214285D01*
X105464285Y-103023809D01*
X105464285Y-102880952D01*
X105511904Y-102690476D01*
X105559523Y-102595238D01*
X105654761Y-102500000D01*
X105797619Y-102452380D01*
X105892857Y-102452380D01*
X106035714Y-102500000D01*
X106083333Y-102547619D01*
X106988095Y-102452380D02*
X106511904Y-102452380D01*
X106464285Y-102928571D01*
X106511904Y-102880952D01*
X106607142Y-102833333D01*
X106845238Y-102833333D01*
X106940476Y-102880952D01*
X106988095Y-102928571D01*
X107035714Y-103023809D01*
X107035714Y-103261904D01*
X106988095Y-103357142D01*
X106940476Y-103404761D01*
X106845238Y-103452380D01*
X106607142Y-103452380D01*
X106511904Y-103404761D01*
X106464285Y-103357142D01*
X170583333Y-103357142D02*
X170535714Y-103404761D01*
X170392857Y-103452380D01*
X170297619Y-103452380D01*
X170154761Y-103404761D01*
X170059523Y-103309523D01*
X170011904Y-103214285D01*
X169964285Y-103023809D01*
X169964285Y-102880952D01*
X170011904Y-102690476D01*
X170059523Y-102595238D01*
X170154761Y-102500000D01*
X170297619Y-102452380D01*
X170392857Y-102452380D01*
X170535714Y-102500000D01*
X170583333Y-102547619D01*
X171440476Y-102452380D02*
X171250000Y-102452380D01*
X171154761Y-102500000D01*
X171107142Y-102547619D01*
X171011904Y-102690476D01*
X170964285Y-102880952D01*
X170964285Y-103261904D01*
X171011904Y-103357142D01*
X171059523Y-103404761D01*
X171154761Y-103452380D01*
X171345238Y-103452380D01*
X171440476Y-103404761D01*
X171488095Y-103357142D01*
X171535714Y-103261904D01*
X171535714Y-103023809D01*
X171488095Y-102928571D01*
X171440476Y-102880952D01*
X171345238Y-102833333D01*
X171154761Y-102833333D01*
X171059523Y-102880952D01*
X171011904Y-102928571D01*
X170964285Y-103023809D01*
X136221904Y-113222380D02*
X136221904Y-112222380D01*
X136460000Y-112222380D01*
X136602857Y-112270000D01*
X136698095Y-112365238D01*
X136745714Y-112460476D01*
X136793333Y-112650952D01*
X136793333Y-112793809D01*
X136745714Y-112984285D01*
X136698095Y-113079523D01*
X136602857Y-113174761D01*
X136460000Y-113222380D01*
X136221904Y-113222380D01*
X137745714Y-113222380D02*
X137174285Y-113222380D01*
X137460000Y-113222380D02*
X137460000Y-112222380D01*
X137364761Y-112365238D01*
X137269523Y-112460476D01*
X137174285Y-112508095D01*
X105721904Y-113222380D02*
X105721904Y-112222380D01*
X105960000Y-112222380D01*
X106102857Y-112270000D01*
X106198095Y-112365238D01*
X106245714Y-112460476D01*
X106293333Y-112650952D01*
X106293333Y-112793809D01*
X106245714Y-112984285D01*
X106198095Y-113079523D01*
X106102857Y-113174761D01*
X105960000Y-113222380D01*
X105721904Y-113222380D01*
X106674285Y-112317619D02*
X106721904Y-112270000D01*
X106817142Y-112222380D01*
X107055238Y-112222380D01*
X107150476Y-112270000D01*
X107198095Y-112317619D01*
X107245714Y-112412857D01*
X107245714Y-112508095D01*
X107198095Y-112650952D01*
X106626666Y-113222380D01*
X107245714Y-113222380D01*
X185801904Y-113182380D02*
X185801904Y-112182380D01*
X186040000Y-112182380D01*
X186182857Y-112230000D01*
X186278095Y-112325238D01*
X186325714Y-112420476D01*
X186373333Y-112610952D01*
X186373333Y-112753809D01*
X186325714Y-112944285D01*
X186278095Y-113039523D01*
X186182857Y-113134761D01*
X186040000Y-113182380D01*
X185801904Y-113182380D01*
X186706666Y-112182380D02*
X187325714Y-112182380D01*
X186992380Y-112563333D01*
X187135238Y-112563333D01*
X187230476Y-112610952D01*
X187278095Y-112658571D01*
X187325714Y-112753809D01*
X187325714Y-112991904D01*
X187278095Y-113087142D01*
X187230476Y-113134761D01*
X187135238Y-113182380D01*
X186849523Y-113182380D01*
X186754285Y-113134761D01*
X186706666Y-113087142D01*
X113609523Y-134548571D02*
X113942857Y-134548571D01*
X114085714Y-135072380D02*
X113609523Y-135072380D01*
X113609523Y-134072380D01*
X114085714Y-134072380D01*
X115038095Y-135072380D02*
X114466666Y-135072380D01*
X114752380Y-135072380D02*
X114752380Y-134072380D01*
X114657142Y-134215238D01*
X114561904Y-134310476D01*
X114466666Y-134358095D01*
X110998095Y-140152380D02*
X110998095Y-139152380D01*
X110998095Y-139628571D02*
X111569523Y-139628571D01*
X111569523Y-140152380D02*
X111569523Y-139152380D01*
X111998095Y-139247619D02*
X112045714Y-139200000D01*
X112140952Y-139152380D01*
X112379047Y-139152380D01*
X112474285Y-139200000D01*
X112521904Y-139247619D01*
X112569523Y-139342857D01*
X112569523Y-139438095D01*
X112521904Y-139580952D01*
X111950476Y-140152380D01*
X112569523Y-140152380D01*
X110998095Y-145232380D02*
X110998095Y-144232380D01*
X110998095Y-144708571D02*
X111569523Y-144708571D01*
X111569523Y-145232380D02*
X111569523Y-144232380D01*
X112569523Y-145232380D02*
X111998095Y-145232380D01*
X112283809Y-145232380D02*
X112283809Y-144232380D01*
X112188571Y-144375238D01*
X112093333Y-144470476D01*
X111998095Y-144518095D01*
X129652666Y-56171980D02*
X129652666Y-56886266D01*
X129605047Y-57029123D01*
X129509809Y-57124361D01*
X129366952Y-57171980D01*
X129271714Y-57171980D01*
X130652666Y-57171980D02*
X130081238Y-57171980D01*
X130366952Y-57171980D02*
X130366952Y-56171980D01*
X130271714Y-56314838D01*
X130176476Y-56410076D01*
X130081238Y-56457695D01*
X124120952Y-57594380D02*
X124454285Y-58594380D01*
X124787619Y-57594380D01*
X124882857Y-58689619D02*
X125644761Y-58689619D01*
X125835238Y-58546761D02*
X125930476Y-58594380D01*
X126120952Y-58594380D01*
X126216190Y-58546761D01*
X126263809Y-58451523D01*
X126263809Y-58403904D01*
X126216190Y-58308666D01*
X126120952Y-58261047D01*
X125978095Y-58261047D01*
X125882857Y-58213428D01*
X125835238Y-58118190D01*
X125835238Y-58070571D01*
X125882857Y-57975333D01*
X125978095Y-57927714D01*
X126120952Y-57927714D01*
X126216190Y-57975333D01*
X127120952Y-57927714D02*
X127120952Y-58594380D01*
X126692380Y-57927714D02*
X126692380Y-58451523D01*
X126740000Y-58546761D01*
X126835238Y-58594380D01*
X126978095Y-58594380D01*
X127073333Y-58546761D01*
X127120952Y-58499142D01*
X127597142Y-57927714D02*
X127597142Y-58927714D01*
X127597142Y-57975333D02*
X127692380Y-57927714D01*
X127882857Y-57927714D01*
X127978095Y-57975333D01*
X128025714Y-58022952D01*
X128073333Y-58118190D01*
X128073333Y-58403904D01*
X128025714Y-58499142D01*
X127978095Y-58546761D01*
X127882857Y-58594380D01*
X127692380Y-58594380D01*
X127597142Y-58546761D01*
X128501904Y-57927714D02*
X128501904Y-58927714D01*
X128501904Y-57975333D02*
X128597142Y-57927714D01*
X128787619Y-57927714D01*
X128882857Y-57975333D01*
X128930476Y-58022952D01*
X128978095Y-58118190D01*
X128978095Y-58403904D01*
X128930476Y-58499142D01*
X128882857Y-58546761D01*
X128787619Y-58594380D01*
X128597142Y-58594380D01*
X128501904Y-58546761D01*
X129549523Y-58594380D02*
X129454285Y-58546761D01*
X129406666Y-58451523D01*
X129406666Y-57594380D01*
X129835238Y-57927714D02*
X130073333Y-58594380D01*
X130311428Y-57927714D02*
X130073333Y-58594380D01*
X129978095Y-58832476D01*
X129930476Y-58880095D01*
X129835238Y-58927714D01*
X131454285Y-57927714D02*
X132216190Y-58213428D01*
X131454285Y-58499142D01*
X133120952Y-57594380D02*
X132930476Y-57594380D01*
X132835238Y-57642000D01*
X132787619Y-57689619D01*
X132692380Y-57832476D01*
X132644761Y-58022952D01*
X132644761Y-58403904D01*
X132692380Y-58499142D01*
X132740000Y-58546761D01*
X132835238Y-58594380D01*
X133025714Y-58594380D01*
X133120952Y-58546761D01*
X133168571Y-58499142D01*
X133216190Y-58403904D01*
X133216190Y-58165809D01*
X133168571Y-58070571D01*
X133120952Y-58022952D01*
X133025714Y-57975333D01*
X132835238Y-57975333D01*
X132740000Y-58022952D01*
X132692380Y-58070571D01*
X132644761Y-58165809D01*
X133644761Y-58499142D02*
X133692380Y-58546761D01*
X133644761Y-58594380D01*
X133597142Y-58546761D01*
X133644761Y-58499142D01*
X133644761Y-58594380D01*
X134597142Y-57594380D02*
X134120952Y-57594380D01*
X134073333Y-58070571D01*
X134120952Y-58022952D01*
X134216190Y-57975333D01*
X134454285Y-57975333D01*
X134549523Y-58022952D01*
X134597142Y-58070571D01*
X134644761Y-58165809D01*
X134644761Y-58403904D01*
X134597142Y-58499142D01*
X134549523Y-58546761D01*
X134454285Y-58594380D01*
X134216190Y-58594380D01*
X134120952Y-58546761D01*
X134073333Y-58499142D01*
X135692380Y-57594380D02*
X136025714Y-58594380D01*
X136359047Y-57594380D01*
X146666666Y-113622380D02*
X146666666Y-114336666D01*
X146619047Y-114479523D01*
X146523809Y-114574761D01*
X146380952Y-114622380D01*
X146285714Y-114622380D01*
X147142857Y-114622380D02*
X147142857Y-113622380D01*
X147523809Y-113622380D01*
X147619047Y-113670000D01*
X147666666Y-113717619D01*
X147714285Y-113812857D01*
X147714285Y-113955714D01*
X147666666Y-114050952D01*
X147619047Y-114098571D01*
X147523809Y-114146190D01*
X147142857Y-114146190D01*
X148666666Y-114622380D02*
X148095238Y-114622380D01*
X148380952Y-114622380D02*
X148380952Y-113622380D01*
X148285714Y-113765238D01*
X148190476Y-113860476D01*
X148095238Y-113908095D01*
X116666666Y-113622380D02*
X116666666Y-114336666D01*
X116619047Y-114479523D01*
X116523809Y-114574761D01*
X116380952Y-114622380D01*
X116285714Y-114622380D01*
X117142857Y-114622380D02*
X117142857Y-113622380D01*
X117523809Y-113622380D01*
X117619047Y-113670000D01*
X117666666Y-113717619D01*
X117714285Y-113812857D01*
X117714285Y-113955714D01*
X117666666Y-114050952D01*
X117619047Y-114098571D01*
X117523809Y-114146190D01*
X117142857Y-114146190D01*
X118095238Y-113717619D02*
X118142857Y-113670000D01*
X118238095Y-113622380D01*
X118476190Y-113622380D01*
X118571428Y-113670000D01*
X118619047Y-113717619D01*
X118666666Y-113812857D01*
X118666666Y-113908095D01*
X118619047Y-114050952D01*
X118047619Y-114622380D01*
X118666666Y-114622380D01*
X178166666Y-113622380D02*
X178166666Y-114336666D01*
X178119047Y-114479523D01*
X178023809Y-114574761D01*
X177880952Y-114622380D01*
X177785714Y-114622380D01*
X178642857Y-114622380D02*
X178642857Y-113622380D01*
X179023809Y-113622380D01*
X179119047Y-113670000D01*
X179166666Y-113717619D01*
X179214285Y-113812857D01*
X179214285Y-113955714D01*
X179166666Y-114050952D01*
X179119047Y-114098571D01*
X179023809Y-114146190D01*
X178642857Y-114146190D01*
X179547619Y-113622380D02*
X180166666Y-113622380D01*
X179833333Y-114003333D01*
X179976190Y-114003333D01*
X180071428Y-114050952D01*
X180119047Y-114098571D01*
X180166666Y-114193809D01*
X180166666Y-114431904D01*
X180119047Y-114527142D01*
X180071428Y-114574761D01*
X179976190Y-114622380D01*
X179690476Y-114622380D01*
X179595238Y-114574761D01*
X179547619Y-114527142D01*
X161703333Y-91032380D02*
X161370000Y-90556190D01*
X161131904Y-91032380D02*
X161131904Y-90032380D01*
X161512857Y-90032380D01*
X161608095Y-90080000D01*
X161655714Y-90127619D01*
X161703333Y-90222857D01*
X161703333Y-90365714D01*
X161655714Y-90460952D01*
X161608095Y-90508571D01*
X161512857Y-90556190D01*
X161131904Y-90556190D01*
X162655714Y-91032380D02*
X162084285Y-91032380D01*
X162370000Y-91032380D02*
X162370000Y-90032380D01*
X162274761Y-90175238D01*
X162179523Y-90270476D01*
X162084285Y-90318095D01*
X166703333Y-91032380D02*
X166370000Y-90556190D01*
X166131904Y-91032380D02*
X166131904Y-90032380D01*
X166512857Y-90032380D01*
X166608095Y-90080000D01*
X166655714Y-90127619D01*
X166703333Y-90222857D01*
X166703333Y-90365714D01*
X166655714Y-90460952D01*
X166608095Y-90508571D01*
X166512857Y-90556190D01*
X166131904Y-90556190D01*
X167084285Y-90127619D02*
X167131904Y-90080000D01*
X167227142Y-90032380D01*
X167465238Y-90032380D01*
X167560476Y-90080000D01*
X167608095Y-90127619D01*
X167655714Y-90222857D01*
X167655714Y-90318095D01*
X167608095Y-90460952D01*
X167036666Y-91032380D01*
X167655714Y-91032380D01*
X171703333Y-91032380D02*
X171370000Y-90556190D01*
X171131904Y-91032380D02*
X171131904Y-90032380D01*
X171512857Y-90032380D01*
X171608095Y-90080000D01*
X171655714Y-90127619D01*
X171703333Y-90222857D01*
X171703333Y-90365714D01*
X171655714Y-90460952D01*
X171608095Y-90508571D01*
X171512857Y-90556190D01*
X171131904Y-90556190D01*
X172036666Y-90032380D02*
X172655714Y-90032380D01*
X172322380Y-90413333D01*
X172465238Y-90413333D01*
X172560476Y-90460952D01*
X172608095Y-90508571D01*
X172655714Y-90603809D01*
X172655714Y-90841904D01*
X172608095Y-90937142D01*
X172560476Y-90984761D01*
X172465238Y-91032380D01*
X172179523Y-91032380D01*
X172084285Y-90984761D01*
X172036666Y-90937142D01*
X144253333Y-110822380D02*
X143920000Y-110346190D01*
X143681904Y-110822380D02*
X143681904Y-109822380D01*
X144062857Y-109822380D01*
X144158095Y-109870000D01*
X144205714Y-109917619D01*
X144253333Y-110012857D01*
X144253333Y-110155714D01*
X144205714Y-110250952D01*
X144158095Y-110298571D01*
X144062857Y-110346190D01*
X143681904Y-110346190D01*
X145110476Y-110155714D02*
X145110476Y-110822380D01*
X144872380Y-109774761D02*
X144634285Y-110489047D01*
X145253333Y-110489047D01*
X114253333Y-110822380D02*
X113920000Y-110346190D01*
X113681904Y-110822380D02*
X113681904Y-109822380D01*
X114062857Y-109822380D01*
X114158095Y-109870000D01*
X114205714Y-109917619D01*
X114253333Y-110012857D01*
X114253333Y-110155714D01*
X114205714Y-110250952D01*
X114158095Y-110298571D01*
X114062857Y-110346190D01*
X113681904Y-110346190D01*
X115158095Y-109822380D02*
X114681904Y-109822380D01*
X114634285Y-110298571D01*
X114681904Y-110250952D01*
X114777142Y-110203333D01*
X115015238Y-110203333D01*
X115110476Y-110250952D01*
X115158095Y-110298571D01*
X115205714Y-110393809D01*
X115205714Y-110631904D01*
X115158095Y-110727142D01*
X115110476Y-110774761D01*
X115015238Y-110822380D01*
X114777142Y-110822380D01*
X114681904Y-110774761D01*
X114634285Y-110727142D01*
X178913333Y-106082380D02*
X178580000Y-105606190D01*
X178341904Y-106082380D02*
X178341904Y-105082380D01*
X178722857Y-105082380D01*
X178818095Y-105130000D01*
X178865714Y-105177619D01*
X178913333Y-105272857D01*
X178913333Y-105415714D01*
X178865714Y-105510952D01*
X178818095Y-105558571D01*
X178722857Y-105606190D01*
X178341904Y-105606190D01*
X179770476Y-105082380D02*
X179580000Y-105082380D01*
X179484761Y-105130000D01*
X179437142Y-105177619D01*
X179341904Y-105320476D01*
X179294285Y-105510952D01*
X179294285Y-105891904D01*
X179341904Y-105987142D01*
X179389523Y-106034761D01*
X179484761Y-106082380D01*
X179675238Y-106082380D01*
X179770476Y-106034761D01*
X179818095Y-105987142D01*
X179865714Y-105891904D01*
X179865714Y-105653809D01*
X179818095Y-105558571D01*
X179770476Y-105510952D01*
X179675238Y-105463333D01*
X179484761Y-105463333D01*
X179389523Y-105510952D01*
X179341904Y-105558571D01*
X179294285Y-105653809D01*
X168738095Y-124202380D02*
X169309523Y-124202380D01*
X169023809Y-125202380D02*
X169023809Y-124202380D01*
X169642857Y-125202380D02*
X169642857Y-124202380D01*
X170023809Y-124202380D01*
X170119047Y-124250000D01*
X170166666Y-124297619D01*
X170214285Y-124392857D01*
X170214285Y-124535714D01*
X170166666Y-124630952D01*
X170119047Y-124678571D01*
X170023809Y-124726190D01*
X169642857Y-124726190D01*
X171166666Y-125202380D02*
X170595238Y-125202380D01*
X170880952Y-125202380D02*
X170880952Y-124202380D01*
X170785714Y-124345238D01*
X170690476Y-124440476D01*
X170595238Y-124488095D01*
X108738095Y-124202380D02*
X109309523Y-124202380D01*
X109023809Y-125202380D02*
X109023809Y-124202380D01*
X109642857Y-125202380D02*
X109642857Y-124202380D01*
X110023809Y-124202380D01*
X110119047Y-124250000D01*
X110166666Y-124297619D01*
X110214285Y-124392857D01*
X110214285Y-124535714D01*
X110166666Y-124630952D01*
X110119047Y-124678571D01*
X110023809Y-124726190D01*
X109642857Y-124726190D01*
X110595238Y-124297619D02*
X110642857Y-124250000D01*
X110738095Y-124202380D01*
X110976190Y-124202380D01*
X111071428Y-124250000D01*
X111119047Y-124297619D01*
X111166666Y-124392857D01*
X111166666Y-124488095D01*
X111119047Y-124630952D01*
X110547619Y-125202380D01*
X111166666Y-125202380D01*
X146238095Y-124202380D02*
X146809523Y-124202380D01*
X146523809Y-125202380D02*
X146523809Y-124202380D01*
X147142857Y-125202380D02*
X147142857Y-124202380D01*
X147523809Y-124202380D01*
X147619047Y-124250000D01*
X147666666Y-124297619D01*
X147714285Y-124392857D01*
X147714285Y-124535714D01*
X147666666Y-124630952D01*
X147619047Y-124678571D01*
X147523809Y-124726190D01*
X147142857Y-124726190D01*
X148047619Y-124202380D02*
X148666666Y-124202380D01*
X148333333Y-124583333D01*
X148476190Y-124583333D01*
X148571428Y-124630952D01*
X148619047Y-124678571D01*
X148666666Y-124773809D01*
X148666666Y-125011904D01*
X148619047Y-125107142D01*
X148571428Y-125154761D01*
X148476190Y-125202380D01*
X148190476Y-125202380D01*
X148095238Y-125154761D01*
X148047619Y-125107142D01*
X116238095Y-124202380D02*
X116809523Y-124202380D01*
X116523809Y-125202380D02*
X116523809Y-124202380D01*
X117142857Y-125202380D02*
X117142857Y-124202380D01*
X117523809Y-124202380D01*
X117619047Y-124250000D01*
X117666666Y-124297619D01*
X117714285Y-124392857D01*
X117714285Y-124535714D01*
X117666666Y-124630952D01*
X117619047Y-124678571D01*
X117523809Y-124726190D01*
X117142857Y-124726190D01*
X118571428Y-124535714D02*
X118571428Y-125202380D01*
X118333333Y-124154761D02*
X118095238Y-124869047D01*
X118714285Y-124869047D01*
X183738095Y-124202380D02*
X184309523Y-124202380D01*
X184023809Y-125202380D02*
X184023809Y-124202380D01*
X184642857Y-125202380D02*
X184642857Y-124202380D01*
X185023809Y-124202380D01*
X185119047Y-124250000D01*
X185166666Y-124297619D01*
X185214285Y-124392857D01*
X185214285Y-124535714D01*
X185166666Y-124630952D01*
X185119047Y-124678571D01*
X185023809Y-124726190D01*
X184642857Y-124726190D01*
X186119047Y-124202380D02*
X185642857Y-124202380D01*
X185595238Y-124678571D01*
X185642857Y-124630952D01*
X185738095Y-124583333D01*
X185976190Y-124583333D01*
X186071428Y-124630952D01*
X186119047Y-124678571D01*
X186166666Y-124773809D01*
X186166666Y-125011904D01*
X186119047Y-125107142D01*
X186071428Y-125154761D01*
X185976190Y-125202380D01*
X185738095Y-125202380D01*
X185642857Y-125154761D01*
X185595238Y-125107142D01*
X123738095Y-124202380D02*
X124309523Y-124202380D01*
X124023809Y-125202380D02*
X124023809Y-124202380D01*
X124642857Y-125202380D02*
X124642857Y-124202380D01*
X125023809Y-124202380D01*
X125119047Y-124250000D01*
X125166666Y-124297619D01*
X125214285Y-124392857D01*
X125214285Y-124535714D01*
X125166666Y-124630952D01*
X125119047Y-124678571D01*
X125023809Y-124726190D01*
X124642857Y-124726190D01*
X126071428Y-124202380D02*
X125880952Y-124202380D01*
X125785714Y-124250000D01*
X125738095Y-124297619D01*
X125642857Y-124440476D01*
X125595238Y-124630952D01*
X125595238Y-125011904D01*
X125642857Y-125107142D01*
X125690476Y-125154761D01*
X125785714Y-125202380D01*
X125976190Y-125202380D01*
X126071428Y-125154761D01*
X126119047Y-125107142D01*
X126166666Y-125011904D01*
X126166666Y-124773809D01*
X126119047Y-124678571D01*
X126071428Y-124630952D01*
X125976190Y-124583333D01*
X125785714Y-124583333D01*
X125690476Y-124630952D01*
X125642857Y-124678571D01*
X125595238Y-124773809D01*
X138738095Y-124202380D02*
X139309523Y-124202380D01*
X139023809Y-125202380D02*
X139023809Y-124202380D01*
X139642857Y-125202380D02*
X139642857Y-124202380D01*
X140023809Y-124202380D01*
X140119047Y-124250000D01*
X140166666Y-124297619D01*
X140214285Y-124392857D01*
X140214285Y-124535714D01*
X140166666Y-124630952D01*
X140119047Y-124678571D01*
X140023809Y-124726190D01*
X139642857Y-124726190D01*
X140547619Y-124202380D02*
X141214285Y-124202380D01*
X140785714Y-125202380D01*
X131738095Y-124202380D02*
X132309523Y-124202380D01*
X132023809Y-125202380D02*
X132023809Y-124202380D01*
X132642857Y-125202380D02*
X132642857Y-124202380D01*
X133023809Y-124202380D01*
X133119047Y-124250000D01*
X133166666Y-124297619D01*
X133214285Y-124392857D01*
X133214285Y-124535714D01*
X133166666Y-124630952D01*
X133119047Y-124678571D01*
X133023809Y-124726190D01*
X132642857Y-124726190D01*
X133785714Y-124630952D02*
X133690476Y-124583333D01*
X133642857Y-124535714D01*
X133595238Y-124440476D01*
X133595238Y-124392857D01*
X133642857Y-124297619D01*
X133690476Y-124250000D01*
X133785714Y-124202380D01*
X133976190Y-124202380D01*
X134071428Y-124250000D01*
X134119047Y-124297619D01*
X134166666Y-124392857D01*
X134166666Y-124440476D01*
X134119047Y-124535714D01*
X134071428Y-124583333D01*
X133976190Y-124630952D01*
X133785714Y-124630952D01*
X133690476Y-124678571D01*
X133642857Y-124726190D01*
X133595238Y-124821428D01*
X133595238Y-125011904D01*
X133642857Y-125107142D01*
X133690476Y-125154761D01*
X133785714Y-125202380D01*
X133976190Y-125202380D01*
X134071428Y-125154761D01*
X134119047Y-125107142D01*
X134166666Y-125011904D01*
X134166666Y-124821428D01*
X134119047Y-124726190D01*
X134071428Y-124678571D01*
X133976190Y-124630952D01*
X153738095Y-124202380D02*
X154309523Y-124202380D01*
X154023809Y-125202380D02*
X154023809Y-124202380D01*
X154642857Y-125202380D02*
X154642857Y-124202380D01*
X155023809Y-124202380D01*
X155119047Y-124250000D01*
X155166666Y-124297619D01*
X155214285Y-124392857D01*
X155214285Y-124535714D01*
X155166666Y-124630952D01*
X155119047Y-124678571D01*
X155023809Y-124726190D01*
X154642857Y-124726190D01*
X155690476Y-125202380D02*
X155880952Y-125202380D01*
X155976190Y-125154761D01*
X156023809Y-125107142D01*
X156119047Y-124964285D01*
X156166666Y-124773809D01*
X156166666Y-124392857D01*
X156119047Y-124297619D01*
X156071428Y-124250000D01*
X155976190Y-124202380D01*
X155785714Y-124202380D01*
X155690476Y-124250000D01*
X155642857Y-124297619D01*
X155595238Y-124392857D01*
X155595238Y-124630952D01*
X155642857Y-124726190D01*
X155690476Y-124773809D01*
X155785714Y-124821428D01*
X155976190Y-124821428D01*
X156071428Y-124773809D01*
X156119047Y-124726190D01*
X156166666Y-124630952D01*
X160761904Y-124202380D02*
X161333333Y-124202380D01*
X161047619Y-125202380D02*
X161047619Y-124202380D01*
X161666666Y-125202380D02*
X161666666Y-124202380D01*
X162047619Y-124202380D01*
X162142857Y-124250000D01*
X162190476Y-124297619D01*
X162238095Y-124392857D01*
X162238095Y-124535714D01*
X162190476Y-124630952D01*
X162142857Y-124678571D01*
X162047619Y-124726190D01*
X161666666Y-124726190D01*
X163190476Y-125202380D02*
X162619047Y-125202380D01*
X162904761Y-125202380D02*
X162904761Y-124202380D01*
X162809523Y-124345238D01*
X162714285Y-124440476D01*
X162619047Y-124488095D01*
X163809523Y-124202380D02*
X163904761Y-124202380D01*
X164000000Y-124250000D01*
X164047619Y-124297619D01*
X164095238Y-124392857D01*
X164142857Y-124583333D01*
X164142857Y-124821428D01*
X164095238Y-125011904D01*
X164047619Y-125107142D01*
X164000000Y-125154761D01*
X163904761Y-125202380D01*
X163809523Y-125202380D01*
X163714285Y-125154761D01*
X163666666Y-125107142D01*
X163619047Y-125011904D01*
X163571428Y-124821428D01*
X163571428Y-124583333D01*
X163619047Y-124392857D01*
X163666666Y-124297619D01*
X163714285Y-124250000D01*
X163809523Y-124202380D01*
X175761904Y-124202380D02*
X176333333Y-124202380D01*
X176047619Y-125202380D02*
X176047619Y-124202380D01*
X176666666Y-125202380D02*
X176666666Y-124202380D01*
X177047619Y-124202380D01*
X177142857Y-124250000D01*
X177190476Y-124297619D01*
X177238095Y-124392857D01*
X177238095Y-124535714D01*
X177190476Y-124630952D01*
X177142857Y-124678571D01*
X177047619Y-124726190D01*
X176666666Y-124726190D01*
X178190476Y-125202380D02*
X177619047Y-125202380D01*
X177904761Y-125202380D02*
X177904761Y-124202380D01*
X177809523Y-124345238D01*
X177714285Y-124440476D01*
X177619047Y-124488095D01*
X179142857Y-125202380D02*
X178571428Y-125202380D01*
X178857142Y-125202380D02*
X178857142Y-124202380D01*
X178761904Y-124345238D01*
X178666666Y-124440476D01*
X178571428Y-124488095D01*
X143778095Y-79372380D02*
X143778095Y-80181904D01*
X143825714Y-80277142D01*
X143873333Y-80324761D01*
X143968571Y-80372380D01*
X144159047Y-80372380D01*
X144254285Y-80324761D01*
X144301904Y-80277142D01*
X144349523Y-80181904D01*
X144349523Y-79372380D01*
X145349523Y-80372380D02*
X144778095Y-80372380D01*
X145063809Y-80372380D02*
X145063809Y-79372380D01*
X144968571Y-79515238D01*
X144873333Y-79610476D01*
X144778095Y-79658095D01*
X113778095Y-79372380D02*
X113778095Y-80181904D01*
X113825714Y-80277142D01*
X113873333Y-80324761D01*
X113968571Y-80372380D01*
X114159047Y-80372380D01*
X114254285Y-80324761D01*
X114301904Y-80277142D01*
X114349523Y-80181904D01*
X114349523Y-79372380D01*
X114778095Y-79467619D02*
X114825714Y-79420000D01*
X114920952Y-79372380D01*
X115159047Y-79372380D01*
X115254285Y-79420000D01*
X115301904Y-79467619D01*
X115349523Y-79562857D01*
X115349523Y-79658095D01*
X115301904Y-79800952D01*
X114730476Y-80372380D01*
X115349523Y-80372380D01*
X178278095Y-79372380D02*
X178278095Y-80181904D01*
X178325714Y-80277142D01*
X178373333Y-80324761D01*
X178468571Y-80372380D01*
X178659047Y-80372380D01*
X178754285Y-80324761D01*
X178801904Y-80277142D01*
X178849523Y-80181904D01*
X178849523Y-79372380D01*
X179230476Y-79372380D02*
X179849523Y-79372380D01*
X179516190Y-79753333D01*
X179659047Y-79753333D01*
X179754285Y-79800952D01*
X179801904Y-79848571D01*
X179849523Y-79943809D01*
X179849523Y-80181904D01*
X179801904Y-80277142D01*
X179754285Y-80324761D01*
X179659047Y-80372380D01*
X179373333Y-80372380D01*
X179278095Y-80324761D01*
X179230476Y-80277142D01*
M02*
